SplineFontDB: 3.2
FontName: Sealo-Regular
FullName: Sealo Regular
FamilyName: Sealo
Weight: Regular
Copyright: Copyright (c) 2024-2025, Zamero Type Foundry
UComments: "2024-10-7: Created with FontForge (http://fontforge.org)"
Version: 001.000
ItalicAngle: 0
UnderlinePosition: -100
UnderlineWidth: 50
Ascent: 800
Descent: 200
InvalidEm: 0
LayerCount: 2
Layer: 0 0 "Back" 1
Layer: 1 0 "Fore" 0
XUID: [1021 474 1118879153 12759]
StyleMap: 0x0040
FSType: 0
OS2Version: 0
OS2_WeightWidthSlopeOnly: 0
OS2_UseTypoMetrics: 1
CreationTime: 1728346564
ModificationTime: 1749487371
PfmFamily: 81
TTFWeight: 400
TTFWidth: 5
LineGap: 90
VLineGap: 0
OS2TypoAscent: 0
OS2TypoAOffset: 1
OS2TypoDescent: 0
OS2TypoDOffset: 1
OS2TypoLinegap: 90
OS2WinAscent: 0
OS2WinAOffset: 1
OS2WinDescent: 0
OS2WinDOffset: 1
HheadAscent: 0
HheadAOffset: 1
HheadDescent: 0
HheadDOffset: 1
OS2Vendor: 'ZAM '
Lookup: 1 0 0 "'ss01' Style Set 1 lookup 4" { "'ss01' Style Set 1 lookup 4-1" ("ss01") } ['ss01' ('DFLT' <'dflt' > 'grek' <'dflt' > 'latn' <'dflt' > ) ]
Lookup: 1 0 0 "'ss02' Style Set 2 lookup 5" { "'ss02' Style Set 2 lookup 5-1" ("ss02") } ['ss02' ('DFLT' <'dflt' > 'grek' <'dflt' > 'latn' <'dflt' > ) ]
Lookup: 1 0 0 "'sups' Superscript lookup 0" { "'sups' Superscript lookup 0 subtable" ("superior") } ['sups' ('DFLT' <'dflt' > ) ]
Lookup: 1 0 0 "'sinf' Scientific Inferiors lookup 0" { "'sinf' Scientific Inferiors lookup 0 subtable"  } ['sinf' ('DFLT' <'dflt' > ) ]
Lookup: 1 0 0 "'dnom' Denominators lookup 0" { "'dnom' Denominators lookup 0 subtable"  } ['dnom' ('DFLT' <'dflt' > ) ]
Lookup: 1 0 0 "'numr' Numerators lookup 0" { "'numr' Numerators lookup 0 subtable"  } ['numr' ('DFLT' <'dflt' > ) ]
Lookup: 258 0 0 "'kern' Horizontal Kerning in Latin lookup 1" { "'kern' Horizontal Kerning in Latin lookup 1-1" [150,15,2] } ['kern' ('DFLT' <'dflt' > 'latn' <'dflt' > ) ]
MarkAttachClasses: 1
DEI: 91125

StartChar: I
Encoding: 73 73 0
Width: 230
Flags: W
HStem: -10 21G<93 138.5> -10 21G<93 138.5> 719 20G<92.5 134>
VStem: 60 110<66.5952 607.944>
AnchorPoint: "Anchor-3" 106 0 basechar 0
AnchorPoint: "Anchor-2" 116 0 basechar 0
AnchorPoint: "Anchor-0" 113 731 basechar 0
LayerCount: 2
Fore
SplineSet
60 339 m 0xb0
 60 695 72 739 113 739 c 0
 155 739 170 701 170 335 c 0
 170 44 161 -10 116 -10 c 0
 70 -10 60 38 60 339 c 0xb0
EndSplineSet
EndChar

StartChar: O
Encoding: 79 79 1
Width: 781
Flags: W
HStem: -10 101<285.477 495.34> 633 106<285.66 492.692>
VStem: 35 110<240.354 480.556> 636 110<242.315 486.953>
AnchorPoint: "Anchor-3" 380 0 basechar 0
AnchorPoint: "Anchor-2" 392 0 basechar 0
AnchorPoint: "Anchor-0" 389 731 basechar 0
LayerCount: 2
Fore
SplineSet
145 361 m 0
 145 197 236 91 392 91 c 4
 548 91 636 204 636 368 c 0
 636 522 545 633 389 633 c 0
 233 633 145 515 145 361 c 0
35 359 m 0
 35 568 177 739 389 739 c 0
 601 739 746 576 746 367 c 0
 746 147 604 -10 392 -10 c 0
 180 -10 35 139 35 359 c 0
EndSplineSet
EndChar

StartChar: H
Encoding: 72 72 2
Width: 738
Flags: W
HStem: -10 21G<118.5 165.5 573.5 620.5> -10 21G<118.5 165.5 573.5 620.5> 314 99<164.192 574.715> 719 20G<118.5 165.5 573.5 620.5>
VStem: 73 87<213.111 511.816> 579 88<212.611 514.859>
AnchorPoint: "Anchor-0" 371 731 basechar 0
AnchorPoint: "Anchor-2" 367 0 basechar 0
LayerCount: 2
Fore
SplineSet
579 364 m 4xbc
 579 563 546 651 546 688 c 4
 546 720 559 739 588 739 c 4
 653 739 687 573 687 365 c 4
 687 157 653 -10 588 -10 c 0
 559 -10 546 9 546 41 c 0
 546 78 579 166 579 364 c 4xbc
160 364 m 0
 160 166 193 78 193 41 c 0
 193 9 180 -10 151 -10 c 0
 86 -10 52 157 52 365 c 0
 52 573 86 739 151 739 c 0
 180 739 193 720 193 688 c 0
 193 651 160 563 160 364 c 0
366 314 m 0
 105 314 73 315 73 362 c 0
 73 410 101 413 370 413 c 0
 622 413 667 412 667 364 c 0
 667 314 626 314 366 314 c 0
EndSplineSet
EndChar

StartChar: J
Encoding: 74 74 3
Width: 449
Flags: W
HStem: -10 104<44.3977 173.338> 642 97<58.6456 276.688>
VStem: 292 106<247.249 626.227>
AnchorPoint: "Anchor-0" 204 731 basechar 0
AnchorPoint: "Anchor-2" 183 0 basechar 0
LayerCount: 2
Fore
SplineSet
398 421 m 0
 398 147 286 -10 99 -10 c 0
 44 -10 24 7 24 36 c 0
 24 84 74 79 129 94 c 0
 203 115 292 173 292 421 c 0
 292 589 290 609 270 628 c 0
 258 640 239 642 181 642 c 0
 155 642 130 640 107 640 c 0
 65 640 47 651 47 684 c 0
 47 736 93 739 195 739 c 0
 309 739 341 728 367 698 c 0
 397 664 398 608 398 421 c 0
EndSplineSet
Substitution2: "'ss02' Style Set 2 lookup 5-1" J.ss02
EndChar

StartChar: L
Encoding: 76 76 4
Width: 608
Flags: W
HStem: -10 98<186.546 479.773> 719 20G<118 164.5>
VStem: 52 106<121.46 611.66>
AnchorPoint: "Anchor-0" 136 731 basechar 0
AnchorPoint: "Anchor-2" 309 0 basechar 0
LayerCount: 2
Fore
SplineSet
311 88 m 0
 432 88 482 117 530 117 c 0
 564 117 579 98 579 71 c 0
 579 18 519 -10 281 -10 c 0
 203 -10 142 -1 108 34 c 0
 54 81 52 179 52 365 c 0
 52 573 86 739 150 739 c 0
 179 739 191 720 191 688 c 0
 191 651 158 561 158 363 c 0
 158 239 164 154 178 124 c 0
 191 90 225 88 311 88 c 0
EndSplineSet
EndChar

StartChar: E
Encoding: 69 69 5
Width: 630
Flags: W
HStem: -10 98<190.636 520.426> 315 99<161.902 487.172> 641 98<192.147 551.658>
VStem: 73 87<218.951 509.049>
CounterMasks: 1 e0
AnchorPoint: "Anchor-3" 454 0 basechar 0
AnchorPoint: "Anchor-2" 331 0 basechar 0
AnchorPoint: "Anchor-0" 342 731 basechar 0
LayerCount: 2
Fore
SplineSet
242 315 m 0
 91 315 73 316 73 363 c 0
 73 411 89 414 246 414 c 0
 443 414 499 413 499 365 c 0
 499 315 447 315 242 315 c 0
160 365 m 4
 160 241 166 155 180 125 c 4
 196 91 227 88 343 88 c 4
 458 88 506 113 552 113 c 0
 586 113 601 92 601 71 c 0
 601 18 542 -10 311 -10 c 4
 210 -10 149 -1 109 34 c 4
 55 81 52 179 52 365 c 4
 52 549 58 645 108 692 c 0
 149 730 209 739 311 739 c 0
 545 739 601 714 601 666 c 0
 601 643 586 619 554 619 c 0
 507 619 459 641 343 641 c 0
 227 641 197 638 180 604 c 0
 165 574 160 489 160 365 c 4
EndSplineSet
EndChar

StartChar: F
Encoding: 70 70 6
Width: 621
Flags: W
HStem: -11 21G<119.5 167> -11 21G<119.5 167> 295 99<162.734 488.594> 641 98<191.69 543.768>
VStem: 83 78<209.478 499.547>
AnchorPoint: "Anchor-2" 246 -1 basechar 0
AnchorPoint: "Anchor-0" 343 731 basechar 0
LayerCount: 2
Fore
SplineSet
52 365 m 0xb8
 52 549 60 644 111 692 c 0
 151 729 212 739 312 739 c 0
 539 739 592 714 592 666 c 0
 592 643 577 619 545 619 c 0
 501 619 455 641 344 641 c 0
 228 641 198 639 181 605 c 4
 166 576 161 489 161 365 c 0
 161 165 194 77 194 40 c 0
 194 8 182 -11 152 -11 c 0
 87 -11 52 157 52 365 c 0xb8
252 295 m 0
 101 295 83 296 83 343 c 0
 83 391 99 394 256 394 c 0
 446 394 500 393 500 345 c 0
 500 295 450 295 252 295 c 0
EndSplineSet
EndChar

StartChar: C
Encoding: 67 67 7
Width: 729
Flags: W
HStem: -10 107<287.656 510.413> 516 21G<606.5 655> 632 107<288.071 501.58>
VStem: 35 112<242.023 480.459>
AnchorPoint: "Anchor-0" 389 731 basechar 0
AnchorPoint: "Anchor-2" 393 0 basechar 0
LayerCount: 2
Fore
SplineSet
396 97 m 0
 576 97 576 203 643 203 c 0
 673 203 690 185 690 155 c 0
 690 95 576 -10 394 -10 c 0
 180 -10 35 139 35 359 c 0
 35 568 177 739 391 739 c 0
 573 739 687 627 687 563 c 0
 687 533 670 516 640 516 c 0
 573 516 573 632 393 632 c 0
 237 632 147 515 147 361 c 4
 147 202 239 97 396 97 c 0
EndSplineSet
EndChar

StartChar: G
Encoding: 71 71 8
Width: 750
Flags: W
HStem: -10 104<286.675 512.435> 306 97<403.879 606.521> 632 107<287.576 504.329>
VStem: 35 112<241.08 480.459> 609 107<182.14 302.383>
AnchorPoint: "Anchor-2" 393 0 basechar 0
AnchorPoint: "Anchor-0" 389 731 basechar 0
LayerCount: 2
Fore
SplineSet
559 306 m 0
 480 306 454 299 417 299 c 0
 383 299 369 315 369 339 c 4
 369 392 411 403 576 403 c 0
 691 403 716 364 716 279 c 0
 716 94 591 -10 392 -10 c 0
 180 -10 35 139 35 359 c 0
 35 568 177 739 390 739 c 0
 566 739 676 637 676 580 c 0
 676 550 659 533 629 533 c 0
 564 533 565 632 392 632 c 0
 237 632 147 515 147 361 c 0
 147 199 238 94 395 94 c 0
 530 94 609 155 609 266 c 0
 609 299 596 306 559 306 c 0
EndSplineSet
EndChar

StartChar: V
Encoding: 86 86 9
Width: 719
Flags: W
HStem: -10 111<331.847 386.23> 719 20G<63 100.5 621.5 658>
VStem: 32 119<560.221 700.083> 571 117<560.779 698.033>
AnchorPoint: "Anchor-0" 357 731 basechar 0
AnchorPoint: "Anchor-2" 360 -1 basechar 0
LayerCount: 2
Fore
SplineSet
359 101 m 0
 406 101 510 367 571 618 c 0
 593 713 602 739 641 739 c 0
 675 739 688 711 688 678 c 4
 688 593 597 320 527 172 c 0
 460 28 415 -10 360 -10 c 0
 305 -10 265 31 193 172 c 0
 117 317 32 593 32 678 c 0
 32 711 45 739 81 739 c 0
 120 739 130 713 151 618 c 0
 213 359 313 101 359 101 c 0
EndSplineSet
EndChar

StartChar: U
Encoding: 85 85 10
Width: 735
Flags: W
HStem: -10 103<261.639 466.858> 719 20G<110 158 577 620>
VStem: 52 106<210.429 631.37> 577 106<214.453 624.414>
AnchorPoint: "Anchor-3" 372 0 basechar 0
AnchorPoint: "Anchor-2" 364 0 basechar 0
AnchorPoint: "Anchor-0" 361 731 basechar 0
LayerCount: 2
Fore
SplineSet
52 365 m 0
 52 594 78 739 142 739 c 0
 174 739 187 720 187 688 c 0
 187 647 158 563 158 359 c 0
 158 197 205 93 364 93 c 0
 529 93 577 204 577 365 c 0
 577 562 548 646 548 688 c 4
 548 720 561 739 593 739 c 0
 647 739 683 594 683 367 c 0
 683 147 584 -10 364 -10 c 0
 149 -10 52 141 52 365 c 0
EndSplineSet
EndChar

StartChar: N
Encoding: 78 78 11
Width: 754
Flags: W
HStem: -10 21G<118 164.5 530.5 617> -10 21G<118 164.5 530.5 617> 719 20G<125 207.5 590.5 637>
VStem: 52 106<117.264 596.051> 597 106<134.087 611.807>
AnchorPoint: "Anchor-2" 374 0 basechar 0
AnchorPoint: "Anchor-0" 375 731 basechar 0
LayerCount: 2
Fore
SplineSet
703 365 m 0xb8
 703 82 662 -10 572 -10 c 0
 489 -10 451 95 323 346 c 0
 212 563 197 597 180 597 c 0
 159 597 158 480 158 364 c 0
 158 166 191 78 191 41 c 0
 191 9 179 -10 150 -10 c 0
 86 -10 52 157 52 365 c 0
 52 603 74 739 176 739 c 0
 239 739 273 692 429 386 c 0
 548 151 557 131 573 131 c 0
 596 131 597 245 597 363 c 0
 597 562 564 651 564 688 c 0
 564 720 576 739 605 739 c 0
 669 739 703 573 703 365 c 0xb8
EndSplineSet
EndChar

StartChar: D
Encoding: 68 68 12
Width: 743
Flags: W
HStem: -10 104<196.371 448.504> 635 104<195.609 446.51>
VStem: 52 108<133.717 593.665> 600 108<250.17 479.617>
AnchorPoint: "Anchor-2" 363 0 basechar 0
AnchorPoint: "Anchor-0" 360 731 basechar 0
LayerCount: 2
Fore
SplineSet
332 94 m 0
 503 94 600 205 600 367 c 0
 600 522 501 635 331 635 c 0
 226 635 202 629 183 598 c 0
 167 572 160 486 160 365 c 0
 160 244 167 157 183 131 c 0
 203 100 226 94 332 94 c 0
323 -10 m 0
 213 -10 150 0 107 36 c 0
 53 82 52 180 52 365 c 0
 52 554 58 656 121 700 c 4
 162 729 220 739 320 739 c 0
 569 739 708 576 708 367 c 0
 708 147 572 -10 323 -10 c 0
EndSplineSet
EndChar

StartChar: K
Encoding: 75 75 13
Width: 670
Flags: W
HStem: -10 21G<118.5 165.5 574.5 608> -10 21G<118.5 165.5 574.5 608> 314 99<162.373 314.65> 719 20G<118.5 165.5 559 591.5>
VStem: 73 87<213.111 511.816>
AnchorPoint: "Anchor-2" 345 0 basechar 0
AnchorPoint: "Anchor-0" 335 731 basechar 0
LayerCount: 2
Fore
SplineSet
160 364 m 4xb8
 160 166 193 78 193 41 c 4
 193 9 180 -10 151 -10 c 4
 86 -10 52 157 52 365 c 4
 52 573 86 739 151 739 c 0
 180 739 193 720 193 688 c 0
 193 651 160 563 160 364 c 4xb8
204 314 m 0
 93 314 73 315 73 362 c 0
 73 410 95 413 208 413 c 0
 354 413 423 505 493 632 c 0
 526 693 540 739 578 739 c 0
 605 739 629 719 629 686 c 0
 629 615 498 408 386 366 c 1
 512 323 639 114 639 41 c 0
 639 12 624 -10 592 -10 c 0
 557 -10 540 26 511 81 c 0
 427 241 360 314 204 314 c 0
EndSplineSet
EndChar

StartChar: W
Encoding: 87 87 14
Width: 957
Flags: W
HStem: -10 128<249.256 282.981 675.254 710.722> 719 20G<61.5 94.5 861.5 894>
VStem: 32 114<514.284 691.419> 821 105<529.184 721.764>
AnchorPoint: "Anchor-0" 475 731 basechar 0
AnchorPoint: "Anchor-2" 475 0 basechar 0
LayerCount: 2
Fore
SplineSet
595 454 m 0
 653 177 674 118 694 118 c 0
 711 118 747 200 821 645 c 0
 833 721 845 739 878 739 c 0
 910 739 926 721 926 664 c 0
 926 583 880 331 832 192 c 0
 784 52 755 -10 678 -10 c 0
 625 -10 586 60 560 157 c 0
 493 411 501 475 479 475 c 0
 458 475 464 412 399 158 c 0
 375 65 334 -10 270 -10 c 0
 205 -10 172 38 126 192 c 0
 82 339 32 598 32 682 c 0
 32 710 45 739 78 739 c 0
 111 739 125 720 146 590 c 0
 204 251 247 118 263 118 c 0
 285 118 305 174 362 454 c 0
 395 614 428 634 477 634 c 0
 530 634 562 611 595 454 c 0
EndSplineSet
EndChar

StartChar: M
Encoding: 77 77 15
Width: 902
Flags: W
HStem: -10 21G<65 96.5 808 840> -10 21G<65 96.5 808 840> 719 20G<195 258 652 716>
VStem: 32 103<3.60181 280.138> 761 110<12.4452 318.793>
AnchorPoint: "Anchor-2" 450 0 basechar 0
AnchorPoint: "Anchor-0" 454 731 basechar 0
LayerCount: 2
Fore
SplineSet
293 386 m 0xb8
 252 548 233 608 224 608 c 0
 212 608 177 524 135 83 c 0
 128 8 112 -10 81 -10 c 0
 49 -10 32 8 32 65 c 0
 32 146 62 398 93 537 c 0
 124 677 161 739 229 739 c 0
 287 739 319 675 355 541 c 0
 428 272 434 202 451 202 c 0
 467 202 478 273 551 551 c 0
 581 665 619 739 685 739 c 0
 747 739 791 692 819 537 c 0
 846 390 871 131 871 47 c 0
 871 19 857 -10 823 -10 c 0
 793 -10 769 8 761 103 c 0
 727 521 695 608 683 608 c 0
 674 608 652 552 611 380 c 0
 542 92 497 73 453 73 c 0
 404 73 365 100 293 386 c 0xb8
EndSplineSet
EndChar

StartChar: P
Encoding: 80 80 16
Width: 651
Flags: W
HStem: -11 21G<103 158.5> -11 21G<103 158.5> 227 96<181.569 428.91> 636 103<192.449 415.748>
VStem: 52 106<229.743 603.27> 508 108<392.909 556.533>
AnchorPoint: "Anchor-2" 284 -1 basechar 0
AnchorPoint: "Anchor-0" 328 731 basechar 0
LayerCount: 2
Fore
SplineSet
52 365 m 4xbc
 52 549 59 644 110 692 c 0
 150 729 210 739 312 739 c 0
 493 739 616 624 616 477 c 0
 616 331 515 227 322 227 c 0
 209 227 167 239 167 239 c 1
 169 129 191 77 191 40 c 0
 191 8 177 -11 140 -11 c 0
 66 -11 52 127 52 365 c 4xbc
178 348 m 0
 196 329 228 323 311 323 c 0
 457 323 508 387 508 478 c 0
 508 582 421 636 308 636 c 0
 226 636 207 628 186 610 c 0
 163 591 158 529 158 443 c 0
 158 410 160 367 178 348 c 0
EndSplineSet
EndChar

StartChar: R
Encoding: 82 82 17
Width: 664
Flags: W
HStem: -11 21G<103 158.5 569.5 603> -11 21G<103 158.5 569.5 603> 267 88<167.037 355.528> 636 103<191.842 420.329>
VStem: 52 106<113.229 603.248> 505 108<418.231 563.303> 508 125<36.3914 116.011>
AnchorPoint: "Anchor-0" 315 731 basechar 0
AnchorPoint: "Anchor-2" 318 -1 basechar 0
LayerCount: 2
Back
SplineSet
170 379 m 4
 179.725463649 358 223.262325546 355.901367188 311.700195312 355.901367188 c 4
 460.316852074 355.901367188 512.099609375 411.543664386 512.099609375 492.301757812 c 4
 512.099609375 584.67970355 423.792879021 633.100585938 309.299804688 633.100585938 c 4
 229.66990868 633.100585938 210.463429839 624.856736406 190 608 c 4
 167.480526077 593.547922383 162 548.094769945 162 484.001953125 c 4
 162 447.961183814 164.029440116 391.538175756 170 379 c 4
468.422851562 290.448242188 m 5
 559.998538712 228.002629345 641.131835938 109.091858055 641.131835938 34.001953125 c 4
 641.131835938 6.53135279607 627.410075948 -9.998046875 598 -9.998046875 c 4
 563.203707266 -9.998046875 541.806080449 25.3525493025 512 81 c 4
 439.020898248 217.250755064 380 265.68359375 218 265.68359375 c 6
 168.708984375 265.68359375 l 5
 172.414455415 131.730473249 190.131835938 80.9449300286 190.131835938 45.001953125 c 4
 190.131835938 10.6637027138 176.873031887 -9.998046875 141 -9.998046875 c 4
 74.8485142673 -9.998046875 52 126.773229598 52 365 c 4
 52 549.033591757 59.2384259259 644.428576108 111 692 c 4
 151.332900096 729.067912281 211.563555645 739 313 739 c 4
 498.182065334 739 624 630.669673703 624 492.001953125 c 4
 624 401.160868517 570.996305606 320.223236433 468.422851562 290.448242188 c 5
EndSplineSet
Fore
SplineSet
464 292 m 1xbc
 553 256 633 96 633 40 c 0
 633 11 619 -11 587 -11 c 0
 552 -11 533 24 508 81 c 0xba
 444 218 374 267 214 267 c 2
 164 267 l 1
 169 121 191 77 191 40 c 4
 191 8 177 -11 140 -11 c 4
 66 -11 52 127 52 365 c 4
 52 549 59 644 110 692 c 0
 149 729 209 739 309 739 c 0
 490 739 613 631 613 493 c 0
 613 402 562 322 464 292 c 1xbc
166 379 m 0
 176 357 220 355 308 355 c 0
 454 355 505 412 505 494 c 0x3c
 505 588 418 636 305 636 c 0
 225 636 207 628 186 610 c 0
 165 593 158 550 158 485 c 0
 158 448 160 392 166 379 c 0
EndSplineSet
EndChar

StartChar: B
Encoding: 66 66 18
Width: 654
Flags: W
HStem: -10 96<198.753 448.643> 320 83<164.378 440.639> 638 101<195.457 431.38>
VStem: 52 108<120.36 604.1> 494 105<448.365 583.846> 511 109<138.856 269.288>
AnchorPoint: "Anchor-2" 329 -1 basechar 0
AnchorPoint: "Anchor-0" 328 731 basechar 0
LayerCount: 2
Fore
SplineSet
194 316 m 0xf4
 165 313 160 309 160 243 c 0
 160 163 169 128 188 114 c 0
 217 93 262 86 328 86 c 0
 447 86 511 125 511 201 c 0
 511 282 452 320 329 320 c 0
 254 320 213 318 194 316 c 0xf4
193 405 m 0
 214 405 254 403 330 403 c 0
 452 403 494 448 494 516 c 0xf8
 494 605 417 638 328 638 c 0
 262 638 214 634 188 611 c 0
 166 592 160 563 160 482 c 0
 160 413 165 406 193 405 c 0
505 368 m 1
 505 368 620 327 620 195 c 0xf4
 620 69 509 -10 325 -10 c 0
 239 -10 157 3 110 38 c 0
 53 81 52 181 52 365 c 0
 52 549 58 646 110 692 c 0
 153 730 217 739 325 739 c 0
 488 739 599 656 599 527 c 0
 599 400 505 368 505 368 c 1
EndSplineSet
EndChar

StartChar: S
Encoding: 83 83 19
Width: 596
Flags: W
HStem: -10 99<191.487 393.815> 640 99<195.602 383.392>
VStem: 47 105<476.765 598.587> 449 107<138.049 257.468>
AnchorPoint: "Anchor-0" 290 731 basechar 0
AnchorPoint: "Anchor-2" 295 0 basechar 0
LayerCount: 2
Fore
SplineSet
289 739 m 0
 434 739 533 675 533 613 c 0
 533 583 509 560 480 560 c 0
 427 560 414 640 288 640 c 0
 189 640 152 593 152 533 c 0
 152 470 201 449 282 431 c 0
 464 389 556 331 556 194 c 0
 556 70 447 -10 293 -10 c 0
 137 -10 30 60 30 128 c 0
 30 158 53 181 82 181 c 0
 135 181 151 89 290 89 c 0
 393 89 449 133 449 197 c 0
 449 267 388 299 282 324 c 0
 126 361 47 399 47 534 c 0
 47 642 128 739 289 739 c 0
EndSplineSet
EndChar

StartChar: Q
Encoding: 81 81 20
Width: 781
Flags: W
HStem: -9 103<281.155 496.672> 631 108<285.292 493.06>
VStem: 35 108<241.983 480.995> 638 108<242.978 483.065>
AnchorPoint: "Anchor-0" 389 731 basechar 0
AnchorPoint: "Anchor-2" 392 1 basechar 0
LayerCount: 2
Fore
SplineSet
143 362 m 0
 143 200 235 94 392 94 c 0
 549 94 638 205 638 368 c 0
 638 520 546 631 389 631 c 0
 232 631 143 515 143 362 c 0
35 360 m 0
 35 569 177 739 389 739 c 0
 601 739 746 582 746 367 c 0
 746 129 603 58 603 58 c 5
 688 34 741 -23 741 -77 c 0
 741 -107 718 -125 693 -125 c 0
 646 -125 643 -72 580 -37 c 0
 546 -18 509 -9 392 -9 c 0
 180 -9 35 140 35 360 c 0
EndSplineSet
EndChar

StartChar: T
Encoding: 84 84 21
Width: 629
Flags: W
HStem: -10 21G<293 338.5> -10 21G<293 338.5> 621 118<73.6951 268.719 361.281 556.305> 641 79<170.589 458.911>
VStem: 260 110<6.89684 427.661>
AnchorPoint: "Anchor-0" 313 731 basechar 0
AnchorPoint: "Anchor-2" 316 0 basechar 0
LayerCount: 2
Fore
SplineSet
315 641 m 0x18
 200 641 123 621 77 621 c 0
 45 621 30 644 30 667 c 0
 30 715 81 739 315 739 c 0
 549 739 600 715 600 667 c 0
 600 644 585 621 553 621 c 0x28
 507 621 430 641 315 641 c 0x18
260 159 m 0
 260 658 262 720 313 720 c 0
 367 720 370 667 370 155 c 0
 370 41 361 -10 316 -10 c 0x98
 270 -10 260 38 260 159 c 0
EndSplineSet
EndChar

StartChar: A
Encoding: 65 65 22
Width: 719
Flags: W
HStem: -10 21G<62 98.5 619.5 657> -10 21G<62 98.5 619.5 657> 184 99<197.62 521.723> 719 20G<334 385.5>
VStem: 32 117<32.3482 167.664> 569 119<31.7023 152.811>
AnchorPoint: "Anchor-3" 631 0 basechar 0
AnchorPoint: "Anchor-2" 360 0 basechar 0
AnchorPoint: "Anchor-0" 360 731 basechar 0
LayerCount: 2
Fore
SplineSet
361 608 m 0xbc
 333 608 237 433 149 109 c 0
 125 15 118 -10 79 -10 c 0
 45 -10 32 18 32 51 c 0
 32 136 125 406 203 557 c 0
 273 697 308 739 360 739 c 0
 411 739 447 697 517 557 c 0
 591 412 688 136 688 51 c 4
 688 18 675 -10 639 -10 c 0
 600 -10 592 16 569 109 c 0
 486 427 387 608 361 608 c 0xbc
356 184 m 0
 131 184 103 185 103 232 c 0
 103 280 127 283 360 283 c 0
 578 283 617 282 617 234 c 0
 617 184 582 184 356 184 c 0
EndSplineSet
EndChar

StartChar: X
Encoding: 88 88 23
Width: 696
Flags: W
HStem: -10 21G<75 128 576 622.5> -10 21G<75 128 576 622.5> 719 20G<87.5 131 565.5 609.5>
AnchorPoint: "Anchor-0" 351 731 basechar 0
AnchorPoint: "Anchor-2" 350 0 basechar 0
LayerCount: 2
Fore
SplineSet
642 690 m 0xa0
 642 648 616 595 412 372 c 0
 194 134 169 -10 87 -10 c 0
 63 -10 35 12 35 44 c 0
 35 91 121 197 311 412 c 0
 530 659 538 739 593 739 c 0
 626 739 642 715 642 690 c 0xa0
55 692 m 0
 55 716 75 739 100 739 c 0
 162 739 171 666 386 412 c 0
 570 195 662 91 662 44 c 0
 662 12 640 -10 605 -10 c 0
 547 -10 507 129 285 372 c 0
 83 593 55 650 55 692 c 0
EndSplineSet
EndChar

StartChar: Y
Encoding: 89 89 24
Width: 691
Flags: W
HStem: -10 21G<325.5 368> -10 21G<325.5 368> 280 77<297 395> 719 20G<75.5 118 577 618.5>
VStem: 294 103<5.07568 278.068>
AnchorPoint: "Anchor-2" 347 0 basechar 0
AnchorPoint: "Anchor-0" 353 731 basechar 0
LayerCount: 2
Fore
SplineSet
346 380 m 0x38
 377 380 428 444 483 559 c 0
 544 686 554 739 600 739 c 0
 637 739 650 714 650 686 c 0
 650 643 585 515 503 398 c 0
 437 305 398 280 346 280 c 0
 295 280 256 304 189 398 c 0
 105 516 41 643 41 686 c 0
 41 714 56 739 95 739 c 0
 141 739 153 685 213 559 c 0
 268 442 317 380 346 380 c 0x38
294 158 m 0
 294 335 297 357 344 357 c 0
 395 357 397 338 397 154 c 0
 397 40 389 -10 347 -10 c 0xb8
 304 -10 294 38 294 158 c 0
EndSplineSet
EndChar

StartChar: Z
Encoding: 90 90 25
Width: 605
Flags: W
HStem: -10 98<150.499 529.732> 641 98<95.8189 454.325>
VStem: 30 120<60.8762 148.557> 457 119<573.684 668.239>
AnchorPoint: "Anchor-0" 313 731 basechar 0
AnchorPoint: "Anchor-2" 313 0 basechar 0
LayerCount: 2
Fore
SplineSet
313 641 m 0
 207 641 139 619 97 619 c 0
 65 619 49 643 49 666 c 0
 49 714 96 739 313 739 c 0
 530 739 576 702 576 633 c 0
 576 559 453 433 325 311 c 0
 230 219 150 135 150 112 c 0
 150 89 207 88 312 88 c 0
 417 88 487 110 529 110 c 0
 561 110 576 86 576 63 c 0
 576 15 529 -10 313 -10 c 0
 81 -10 30 27 30 96 c 0
 30 171 135 258 265 391 c 0
 362 490 457 581 457 616 c 0
 457 637 422 641 313 641 c 0
EndSplineSet
EndChar

StartChar: o
Encoding: 111 111 26
Width: 601
Flags: W
HStem: -9.99805 89.8994<213.903 387.474> 438.101 92.8994<216.759 385.348>
VStem: 36.3701 99.9004<162.04 349.727> 467.963 99.9004<164.218 354.953>
AnchorPoint: "Anchor-3" 298.479 0 basechar 0
AnchorPoint: "Anchor-2" 304.714 0 basechar 0
AnchorPoint: "Anchor-0" 301.597 521.029 basechar 0
LayerCount: 2
Fore
SplineSet
136.270507812 254.900390625 m 0
 136.270507812 148.885724775 197.914344178 79.9013671875 303.363592756 79.9013671875 c 0
 408.188048721 79.9013671875 467.962890625 153.900674675 467.962890625 261.301757812 c 0
 467.962890625 363.681790815 406.318808907 438.100585938 300.869140625 438.100585938 c 0
 196.045108199 438.100585938 136.270507812 358.810347797 136.270507812 254.900390625 c 0
36.3701171875 253 m 0
 36.3701171875 405.934868472 141.902173916 531 300.580078125 531 c 0
 459.731382253 531 567.86328125 412.582154646 567.86328125 261.001953125 c 0
 567.86328125 102.792815897 462.330908991 -9.998046875 303.652530351 -9.998046875 c 0
 144.501696598 -9.998046875 36.3701171875 95.9515583782 36.3701171875 253 c 0
EndSplineSet
EndChar

StartChar: dotlessi
Encoding: 305 305 27
Width: 224
Flags: W
HStem: -9.99805 21G<91.4688 133.986> -9.99805 21G<91.4688 133.986> 511 20G<90.7336 129.826>
VStem: 60 104<9.65148 507.198>
AnchorPoint: "Anchor-3" 100 0.383804 basechar 0
AnchorPoint: "Anchor-2" 112 0.383804 basechar 0
AnchorPoint: "Anchor-0" 110 520.646 basechar 0
LayerCount: 2
Fore
SplineSet
60 244.404950684 m 0xb0
 60 478.727078531 71.4672851563 531 110 531 c 0
 149.652954102 531 164 482.849520396 164 240.253427346 c 0
 164 49.6419926456 154.972288038 -9.998046875 113 -9.998046875 c 0
 69.9375 -9.998046875 60 45.5743445612 60 244.404950684 c 0xb0
EndSplineSet
EndChar

StartChar: a
Encoding: 97 97 28
Width: 627
Flags: W
HStem: -9.99805 91.8994<212.73 388.476> -9.99805 21G<490.194 536.88> 433.101 97.8994<216.023 391.299>
VStem: 36.3699 97.9004<162.452 348.283> 470.119 108.032<95.9021 408.725> 480.151 57.8682<112.35 401.212>
AnchorPoint: "Anchor-3" 490.02 0 basechar 0
AnchorPoint: "Anchor-2" 306.871 0 basechar 0
AnchorPoint: "Anchor-0" 312.067 521.029 basechar 0
LayerCount: 2
Fore
SplineSet
578.151389754 261.019156442 m 0x78
 578.151389754 99.2326634674 567.783216623 -9.998046875 505.977607866 -9.998046875 c 0
 474.409394623 -9.998046875 462.741667319 10.2865952464 462.741667319 43.9981218366 c 0
 462.741667319 71.4530905088 480.151389754 126.220122684 480.151389754 259.982796683 c 0x74
 480.151389754 394.38681654 457.545972603 449.416840883 457.545972603 477.003831288 c 0
 457.545972603 510.715357879 468.689640352 531 498.839957605 531 c 0
 548.567912346 531 578.151389754 422.504010193 578.151389754 261.019156442 c 0x78
134.270253639 254.743338262 m 0
 134.270253639 150.035418536 196.680900186 81.9013682254 303.441870457 81.9013682254 c 0
 409.589680054 81.9013682254 470.119147902 155.178430564 470.119147902 261.531261848 c 0xb8
 470.119147902 360.88299788 407.708501355 433.100560934 300.947531084 433.100560934 c 0
 194.799721488 433.100560934 134.270253639 355.906392906 134.270253639 254.743338262 c 0
36.3698630137 252.712053563 m 0
 36.3698630137 405.805328691 137.989721549 531 290.785248124 531 c 0
 437.998622238 531 538.019553816 408.036346996 538.019553816 250.637305945 c 0xb4
 538.019553816 98.4790243921 436.39969528 -9.998046875 283.604168706 -9.998046875 c 0
 136.390794591 -9.998046875 36.3698630137 95.8355582341 36.3698630137 252.712053563 c 0
EndSplineSet
EndChar

StartChar: d
Encoding: 100 100 29
Width: 627
Flags: W
HStem: -9.99805 91.8994<212.73 388.476> -9.99805 21G<490.194 536.88> 433.101 97.8994<216.023 391.299> 741 20G<472.512 520.93>
VStem: 36.3699 97.9004<162.452 348.283> 470.119 108.032<100.976 476.867> 480.151 57.8682<123.156 490.844>
AnchorPoint: "Anchor-0" 484.02 751.829 basechar 0
AnchorPoint: "Anchor-2" 306.871 0 basechar 0
LayerCount: 2
Fore
SplineSet
578.151389754 321 m 0x7c
 578.151389754 93.4073286496 567.783216623 -9.998046875 505.977607866 -9.998046875 c 0
 474.409394623 -9.998046875 462.741667319 9.53669819081 462.741667319 42.001953125 c 0
 462.741667319 77.3400218852 480.151389754 147.832222109 480.151389754 320.001953125 c 0x7a
 480.151389754 573.651980581 442.998027397 663.043398476 442.998027397 713 c 0
 442.998027397 742.967927632 455.542057388 761 489.481195954 761 c 0
 552.379308545 761 578.151389754 564.481500496 578.151389754 321 c 0x7c
134.270253639 254.743338262 m 0
 134.270253639 150.035418536 196.680900186 81.9013682254 303.441870457 81.9013682254 c 0
 409.589680054 81.9013682254 470.119147902 155.178430564 470.119147902 261.531261848 c 0xbc
 470.119147902 360.88299788 407.708501355 433.100560934 300.947531084 433.100560934 c 0
 194.799721488 433.100560934 134.270253639 355.906392906 134.270253639 254.743338262 c 0
36.3698630137 252.712053563 m 0
 36.3698630137 405.805328691 137.989721549 531 290.785248124 531 c 0
 437.998622238 531 538.019553816 408.036346996 538.019553816 250.637305945 c 0xba
 538.019553816 98.4790243921 436.39969528 -9.998046875 283.604168706 -9.998046875 c 4
 136.390794591 -9.998046875 36.3698630137 95.8355582341 36.3698630137 252.712053563 c 0
EndSplineSet
EndChar

StartChar: b
Encoding: 98 98 30
Width: 627
Flags: W
HStem: -9.99805 91.8994<241.632 417.378> -9.99805 21G<93.2279 139.915> 433.101 97.8994<238.809 414.086> 741 20G<107.227 155.677>
VStem: 51.9569 108.032<96.1434 470.667> 92.0888 57.8682<123.413 491.348> 495.838 97.9004<162.452 348.283>
AnchorPoint: "Anchor-2" 323.238 0 basechar 0
AnchorPoint: "Anchor-0" 146.089 751.829 basechar 0
LayerCount: 2
Fore
SplineSet
51.9569471624 311 m 0x7a
 51.9569471624 560.015170962 76.8504335106 761 137.604289378 761 c 0
 173.75052277 761 187.110303098 742.967927632 187.110303098 713 c 0
 187.110303098 661.772231814 149.956947162 570.106211829 149.956947162 310.001953125 c 0x76
 149.956947162 144.025377901 167.366663176 76.0688683327 167.366663176 42.001953125 c 0
 167.366663176 9.53669819081 155.698936522 -9.998046875 124.130725035 -9.998046875 c 0
 62.3251197157 -9.998046875 51.9569471624 90.2832807435 51.9569471624 311 c 0x7a
495.838059793 254.743338262 m 0
 495.838059793 355.906392906 435.308595021 433.100560934 329.160790817 433.100560934 c 0
 222.399825969 433.100560934 159.989182592 360.88299788 159.989182592 261.531261848 c 0
 159.989182592 155.178430564 220.518647366 81.9013682254 326.666451569 81.9013682254 c 0xba
 433.427416417 81.9013682254 495.838059793 150.035418536 495.838059793 254.743338262 c 0
593.738467482 252.712053563 m 0
 593.738467482 95.8355582341 493.717537184 -9.998046875 346.504164954 -9.998046875 c 0
 193.708640334 -9.998046875 92.0887830999 102.80082006 92.0887830999 261.021184543 c 0xb6
 92.0887830999 412.590589311 192.109713397 531 339.323085628 531 c 0
 492.118610247 531 593.738467482 405.805328691 593.738467482 252.712053563 c 0
EndSplineSet
EndChar

StartChar: c
Encoding: 99 99 31
Width: 578
Flags: W
HStem: -10.0889 92.8994<216.535 392.035> 438.101 92.8994<216.556 384.566>
VStem: 36.3699 100.9<162.746 349.555>
AnchorPoint: "Anchor-0" 301.558 521.029 basechar 0
AnchorPoint: "Anchor-2" 304.675 -1.58294e-15 basechar 0
LayerCount: 2
Fore
SplineSet
307.064963384 82.8105496711 m 0
 430.251113576 82.8105496715 434.612898097 177.32013284 490.681017613 177.32013284 c 0
 524.174565414 177.32013284 540.063457452 149.626638975 540.063457452 130.172133643 c 0
 540.063457452 78.985467402 449.765675519 -10.0888671875 305.475254598 -10.0888671875 c 0
 145.238930952 -10.0888671875 36.3698630137 95.8206631426 36.3698630137 252.713846644 c 0
 36.3698630137 405.806135352 141.376063737 531 299.263291336 531 c 0
 443.239662079 531 533.828623793 441.874460863 533.828623793 393.0405706 c 0
 533.828623793 359.638560565 507.32265399 341.471678536 484.596372003 341.471678536 c 0
 427.310030461 341.471678536 424.117039558 438.100561238 300.830129725 438.100561239 c 0
 196.667635427 438.100561239 137.270268927 358.666912144 137.270268927 254.569014736 c 0
 137.270268927 150.944037299 199.757546771 82.8105496708 307.064963384 82.8105496711 c 0
EndSplineSet
EndChar

StartChar: e
Encoding: 101 101 32
Width: 550
Flags: W
HStem: -10.0889 90.8994<216.741 401.32> 201.49 79<165.949 405.013> 444.101 86.8994<206.185 378.752>
VStem: 36.3699 109.739<149.149 224.2 224.92 378.546> 424.869 97.5225<302.254 403.017>
AnchorPoint: "Anchor-3" 320.955 -1.5786e-15 basechar 0
AnchorPoint: "Anchor-2" 302.251 -1.5786e-15 basechar 0
AnchorPoint: "Anchor-0" 292.899 521.029 basechar 0
LayerCount: 2
Fore
SplineSet
302.124234131 80.8105504222 m 0
 419.969911044 80.8105504222 424.142599682 135.873729854 477.780005246 135.873729854 c 4
 503.968366814 135.873729854 516.391776006 114.266697456 516.391776006 99.0878930379 c 4
 516.391776006 48.4652981661 433.151771429 -10.0888671875 300.139253949 -10.0888671875 c 0
 143.080202679 -10.0888671875 36.3698630137 98.3314696789 36.3698630137 258.944133659 c 0
 36.3698630137 408.608983068 122.894125944 531 293.933978561 531 c 0
 461.850881288 531 522.391776006 426.351688352 522.391776006 346.557218621 c 4
 522.391776006 219.162262858 408.863808226 201.489862481 301.254005618 201.489862481 c 0
 196.159097516 201.489862481 144.227284889 224.199823419 144.227284889 224.199823419 c 1
 145.70006878 136.567406116 211.803332743 80.8105504222 302.124234131 80.8105504222 c 0
424.869315068 346.105995108 m 4
 424.869315068 409.336390529 368.216665667 444.100554604 292.171069059 444.100554604 c 0
 213.687233146 444.100554604 146.109130916 399.82016337 146.109130916 331.452033624 c 0
 146.109130916 295.862787167 202.403737286 280.489862481 305.911246102 280.489862481 c 0
 389.931790623 280.489862481 424.869315068 301.17963403 424.869315068 346.105995108 c 4
EndSplineSet
EndChar

StartChar: l
Encoding: 108 108 33
Width: 294
Flags: W
HStem: -9.99805 85.998<198.524 280.737> 741 20G<109.344 157.904>
VStem: 51.9569 98<135.911 571.724>
AnchorPoint: "Anchor-2" 178.151 0 basechar 0
AnchorPoint: "Anchor-0" 146.089 751.031 basechar 0
LayerCount: 2
Fore
SplineSet
51.9569471624 311 m 0
 51.9569471624 560.015170962 77.8038991156 761 140.884737677 761 c 0
 174.922473192 761 187.502944977 742.967927632 187.502944977 713 c 0
 187.502944977 661.772231814 149.956947162 570.106211829 149.956947162 310.001953125 c 0
 149.956947162 125.829872624 180.553782683 91.8395066445 244.839262781 76 c 0
 270.247196982 69.7396571982 286.221144585 60.6325303071 286.221144585 32 c 0
 286.221144585 10.0131780857 270.458102856 -9.998046875 227.809603306 -9.998046875 c 0
 136.230137072 -9.998046875 51.9569471624 40.2832807435 51.9569471624 311 c 0
EndSplineSet
EndChar

StartChar: m
Encoding: 109 109 34
Width: 925
Flags: W
HStem: -9.99805 21G<91.6424 138.297 447.855 493.649 804.886 851.542> -9.99805 21G<91.6424 138.297 447.855 493.649 804.886 851.542> 442.101 88.8994<218.878 368.317 594.171 739.178>
VStem: 51.9569 98.0322<223.672 372.824> 98.0888 51.8682<175.929 401.542> 417.014 108.115<13.0675 382.327> 443.13 82<217.96 408.647> 793.228 98<45.31 384.567>
AnchorPoint: "Anchor-0" 470.998 521.029 basechar 0
AnchorPoint: "Anchor-2" 463.998 0.462767 basechar 0
LayerCount: 2
Fore
SplineSet
527.462659159 252.933352342 m 0xa3
 527.462659159 215.409855769 505.712941959 205.415223349 485.211793889 205.415223349 c 0
 463.642259473 205.415223349 443.129863702 217.960127227 443.129863702 252.030541752 c 0
 443.129863702 408.647403203 528.239550739 531 678.297510945 531 c 0
 815.447970302 531 891.22771106 428.470487683 891.22771106 281.786913639 c 0
 891.22771106 107.602895479 881.25774131 -9.998046875 821.825858571 -9.998046875 c 0
 787.947075534 -9.998046875 775.425353168 13.5853280928 775.425353168 52.7790968345 c 0
 775.425353168 83.1028647471 793.22771106 143.592563088 793.22771106 291.332242931 c 0
 793.22771106 386.205824713 747.86896053 442.100585938 668.32535663 442.100585938 c 0
 579.429603667 442.100585938 527.462659159 372.824020621 527.462659159 252.933352342 c 0xa3
51.9569471624 261.019156442 m 0xb1
 51.9569471624 422.504010193 81.6364253001 531 131.525751199 531 c 0
 161.773908622 531 172.953738458 510.715357879 172.953738458 477.003831288 c 0
 172.953738458 449.416840883 149.956947162 394.38681654 149.956947162 259.982796683 c 0xa9
 149.956947162 126.220122684 167.758043741 71.4530905088 167.758043741 43.9981218366 c 0
 167.758043741 10.2865952464 155.236457761 -9.998046875 121.35804373 -9.998046875 c 0
 61.9268083199 -9.998046875 51.9569471624 99.2326634674 51.9569471624 261.019156442 c 0xb1
149.989173724 252.933352342 m 0xb5
 149.989173724 223.672028497 136.588417025 215.878080634 123.956947162 215.878080634 c 0
 110.697948524 215.878080634 98.0887830999 225.638364362 98.0887830999 252.14609338 c 0xa9
 98.0887830999 408.698082736 174.200622829 531 308.39436522 531 c 0
 447.995855098 531 525.129863702 424.198424669 525.129863702 271.40303504 c 0
 525.129863702 61.8822650795 521.709265387 -9.998046875 465.588153799 -9.998046875 c 0
 430.122594829 -9.998046875 417.014394264 14.7644968412 417.014394264 55.91795402 c 0
 417.014394264 84.5127351656 423.386223781 141.553459478 423.386223781 280.869385646 c 0
 423.386223781 382.326900941 377.611663575 442.100585938 297.338872921 442.100585938 c 0
 204.349297298 442.100585938 149.989173724 372.824020621 149.989173724 252.933352342 c 0xb5
EndSplineSet
EndChar

StartChar: t
Encoding: 116 116 36
Width: 388
Flags: W
HStem: -9.99805 85.998<262.096 357.509> 438.934 92<20.506 370.163>
VStem: 108.068 101<136.17 494.63>
AnchorPoint: "Anchor-0" 199.2 692.08 basechar 0
AnchorPoint: "Anchor-2" 250.773 0 basechar 0
LayerCount: 2
Fore
SplineSet
185.173089697 438.933570057 m 0
 62.8971857061 438.933570057 10.3913894325 439.2470467 10.3913894325 482.933581389 c 0
 10.3913894325 527.976561738 60.677273371 530.93359375 189.283592229 530.93359375 c 0
 324.997445877 530.93359375 379.487207222 530.793945276 379.487207222 485.933582161 c 0
 379.487207222 438.933570057 327.749494593 438.933570057 185.173089697 438.933570057 c 0
108.068418695 291 m 0
 108.068418695 517.88034668 121.32262921 701 189.659193437 701 c 0
 221.381084787 701 233.105612081 682.967773438 233.105612081 653 c 0
 233.105612081 606.856759189 209.06842053 524.289189504 209.06842053 290.001953125 c 0
 209.06842053 116.500749455 245.285386872 90.109109401 321.616098184 76 c 0
 347.373217367 71.2390066046 362.997979987 60.6328125 362.997979987 32 c 0
 362.997979987 10.0126953125 347.221208645 -9.998046875 304.536588184 -9.998046875 c 0
 202.221408041 -9.998046875 108.068418695 37.1504066036 108.068418695 291 c 0
EndSplineSet
EndChar

StartChar: s
Encoding: 115 115 37
Width: 493
Flags: W
HStem: -9.99805 90.8994<160.893 335.058> 440.101 90.8994<168.339 325.859>
VStem: 49.8787 97.9004<337.37 419.694> 355.877 97.9004<101.557 181.898>
AnchorPoint: "Anchor-0" 249.718 521.029 basechar 0
AnchorPoint: "Anchor-2" 252.836 0 basechar 0
LayerCount: 2
Fore
SplineSet
249.237629722 531 m 0
 360.87275735 531 433.903141833 474.193988921 433.903141833 430.957138363 c 0
 433.903141833 407.015097744 416.126546515 387.458551571 394.641092192 387.458551571 c 0
 346.505250143 387.458551571 331.961387484 440.100561524 245.557156673 440.100561524 c 0
 174.394138741 440.100561524 147.779059901 411.257329575 147.779059901 373.961499944 c 0
 147.779059901 338.075224561 182.756613066 325.155399479 239.898406366 313.368688766 c 0
 378.99608207 284.676833475 453.777171019 246.09151094 453.777171019 140.696039471 c 0
 453.777171019 53.1518168786 371.032119835 -9.998046875 253.018866943 -9.998046875 c 0
 121.225725039 -9.998046875 31.1741682975 54.6474338366 31.1741682975 99.5132662937 c 0
 31.1741682975 127.098456734 50.3536991848 144.639731422 75.7241425718 144.639731422 c 0
 123.435488585 144.639731422 143.804896535 80.9013682009 254.130647082 80.9013682009 c 0
 320.53465375 80.9013682009 355.876774645 106.273582119 355.876774645 143.900930341 c 0
 355.876774645 181.799296195 314.831799293 200.019718313 242.748598783 212.968971677 c 0
 124.574252056 234.198183835 49.8786692759 269.157947765 49.8786692759 368.79235132 c 0
 49.8786692759 454.967564772 123.047360907 531 249.237629722 531 c 0
EndSplineSet
EndChar

StartChar: uni0237
Encoding: 567 567 38
Width: 228
Flags: W
HStem: -190.064 85.998<-52.6638 34.0728> 510.934 20G<88.6328 138.862>
VStem: 78.0104 98<-56.1525 351.12>
AnchorPoint: "Anchor-0" 103.879 521.029 basechar 0
AnchorPoint: "Anchor-2" 41.5326 -179.994 basechar 0
LayerCount: 2
Fore
SplineSet
176.010450342 90.93359375 m 0
 176.010450342 -136.048749626 91.7761670003 -190.064453125 0.238980438329 -190.064453125 c 0
 -42.3898294956 -190.064453125 -58.1455938697 -170.053228164 -58.1455938697 -148.06640625 c 0
 -58.1455938697 -119.433875943 -42.4320748797 -109.307263244 -16.7965573806 -104.06640625 c 0
 47.4378985327 -90.9344849795 78.0104489643 -62.7543894745 78.0104489643 89.935546875 c 0
 78.0104489643 342.294728081 61.2607421875 431.231225558 61.2607421875 480.93359375 c 4
 61.2607421875 512.150185033 73.7774057841 530.93359375 103.48828125 530.93359375 c 4
 174.23663466 530.93359375 176.010450342 429.384114583 176.010450342 90.93359375 c 0
EndSplineSet
EndChar

StartChar: period
Encoding: 46 46 40
Width: 194
Flags: W
HStem: -10 121<49.1897 144.81>
VStem: 35 124<2.69263 96.8479>
LayerCount: 2
Fore
SplineSet
35 50 m 0
 35 83 59 111 97 111 c 4
 134 111 159 84 159 49 c 4
 159 14 135 -10 97 -10 c 4
 60 -10 35 13 35 50 c 0
EndSplineSet
EndChar

StartChar: p
Encoding: 112 112 41
Width: 627
Flags: W
HStem: -9.99805 91.8994<241.632 417.378> 433.101 97.8994<238.809 414.086>
VStem: 51.9569 108.032<43.1007 417.628> 92.0888 57.8682<41.8071 392.586> 495.838 97.9004<162.451 348.282>
AnchorPoint: "Anchor-0" 318.042 521.029 basechar 0
AnchorPoint: "Anchor-2" 139.089 -179.988 basechar 0
LayerCount: 2
Fore
SplineSet
51.9569471624 200.843638111 m 0xe8
 51.9569471624 427.85765073 62.3249816592 531 124.130725035 531 c 0
 155.698921497 531 167.366663176 510.907491092 167.366663176 477.516401002 c 0
 167.366663176 442.477050209 149.956947162 372.582158316 149.956947162 201.870160012 c 0xd8
 149.956947162 -19.1867576224 176.718913666 -97.0908995368 176.718913666 -140.628570877 c 0
 176.718913666 -171.451347365 164.206498934 -189.998046875 130.352898642 -189.998046875 c 0
 74.7425719387 -189.998046875 51.9569471624 -15.4352217726 51.9569471624 200.843638111 c 0xe8
495.838059793 254.743338262 m 0
 495.838059793 355.905884053 435.30875367 433.100560934 329.160790817 433.100560934 c 0
 222.399504018 433.100560934 159.989182592 360.883377036 159.989182592 261.531261848 c 0xe8
 159.989182592 155.178740902 220.518488716 81.9013682254 326.666451569 81.9013682254 c 0
 433.427738368 81.9013682254 495.838059793 150.034958367 495.838059793 254.743338262 c 0
593.738467482 252.712053563 m 0
 593.738467482 95.8353767264 493.717292972 -9.998046875 346.504164954 -9.998046875 c 0
 193.708869803 -9.998046875 92.0887830999 102.800890603 92.0887830999 261.021184543 c 0xd8
 92.0887830999 412.590320308 192.109957609 531 339.323085628 531 c 0
 492.118380778 531 593.738467482 405.805307446 593.738467482 252.712053563 c 0
EndSplineSet
EndChar

StartChar: q
Encoding: 113 113 42
Width: 627
Flags: W
HStem: -9.99805 91.8994<212.73 388.476> 433.101 97.8994<216.023 391.299>
VStem: 36.3699 97.9004<162.451 348.282> 470.119 108.032<38.2442 412.192> 480.151 57.8682<37.823 388.352>
AnchorPoint: "Anchor-2" 491.02 -179.988 basechar 0
AnchorPoint: "Anchor-0" 312.067 521.029 basechar 0
LayerCount: 2
Fore
SplineSet
578.151389754 190.558330611 m 0xf0
 578.151389754 -20.0293928215 555.365763804 -189.998046875 499.75543424 -189.998046875 c 0
 465.901832206 -189.998046875 453.38941683 -171.451347365 453.38941683 -140.628570877 c 0
 453.38941683 -98.3986108838 480.151389754 -22.8329537439 480.151389754 191.584852512 c 0xe8
 480.151389754 368.666911379 462.741667319 441.170293855 462.741667319 477.516401002 c 0
 462.741667319 510.907491092 474.409409647 531 505.977607866 531 c 0
 567.78335468 531 578.151389754 424.644496561 578.151389754 190.558330611 c 0xf0
134.270253639 254.743338262 m 0
 134.270253639 150.034958367 196.680578236 81.9013682254 303.441870457 81.9013682254 c 0
 409.589838703 81.9013682254 470.119147902 155.178740902 470.119147902 261.531261848 c 0xf0
 470.119147902 360.883377036 407.708823305 433.100560934 300.947531084 433.100560934 c 0
 194.799562838 433.100560934 134.270253639 355.905884053 134.270253639 254.743338262 c 0
36.3698630137 252.712053563 m 0
 36.3698630137 405.805307446 137.989951018 531 290.785248124 531 c 4
 437.998378026 531 538.019553816 408.036218863 538.019553816 250.637305945 c 0xe8
 538.019553816 98.4790067563 436.399465812 -9.998046875 283.604168706 -9.998046875 c 0
 136.391038803 -9.998046875 36.3698630137 95.8353767264 36.3698630137 252.712053563 c 0
EndSplineSet
EndChar

StartChar: n
Encoding: 110 110 44
Width: 586
Flags: W
HStem: -9.99805 21G<91.6424 138.297 466.219 512.874> -9.99805 21G<91.6424 138.297 466.219 512.874> 442.101 88.8994<228.086 390.557>
VStem: 51.9569 99.758<223.672 372.824> 98.0888 51.8682<175.929 401.542> 454.56 98<43.5956 371.227>
AnchorPoint: "Anchor-2" 307.905 0.462766 basechar 0
AnchorPoint: "Anchor-0" 295.435 521.029 basechar 0
LayerCount: 2
Fore
SplineSet
51.9569471624 261.019156442 m 0xb4
 51.9569471624 422.504010193 81.6364255551 531 131.525751883 531 c 0
 161.773909566 531 172.953739497 510.715357879 172.953739497 477.003831288 c 0
 172.953739497 449.416840883 149.956947162 394.38681654 149.956947162 259.982796683 c 0xac
 149.956947162 126.220122684 167.758044781 71.4530905088 167.758044781 43.9981218366 c 0
 167.758044781 10.2865952464 155.236458688 -9.998046875 121.358044353 -9.998046875 c 0
 61.9268084095 -9.998046875 51.9569471624 99.2326634674 51.9569471624 261.019156442 c 0xb4
151.714915872 252.933341196 m 0xb4
 151.714915872 223.672018591 137.868570029 215.878071059 124.817090612 215.878071059 c 0
 111.117216433 215.878071059 98.0887830999 225.638355084 98.0887830999 252.146084907 c 0xac
 98.0887830999 408.698079019 180.093263135 531 324.676393803 531 c 0
 471.458748067 531 552.560399539 419.926361656 552.560399539 261.019156442 c 0
 552.560399539 99.2326634674 542.590429236 -9.998046875 483.158543201 -9.998046875 c 0
 449.279758286 -9.998046875 436.758035225 13.5853270931 436.758035225 52.7790941733 c 0
 436.758035225 80.4428812717 454.560393118 135.626463384 454.560393118 270.406516474 c 0
 454.560393118 378.447960703 403.791992704 442.100566773 314.761728735 442.100566773 c 0
 211.866005042 442.100566773 151.714915872 372.824004393 151.714915872 252.933341196 c 0xb4
EndSplineSet
EndChar

StartChar: g
Encoding: 103 103 45
Width: 623
Flags: W
HStem: -190.064 96.998<178.417 358.786> 10.002 87.8994<209.74 391.762> 437.101 93.8994<214.833 388.166>
VStem: 36.3701 95.9004<174.78 353.992> 470.197 104.032<79.3935 387.517> 476.23 57.8682<34.7063 381.358>
AnchorPoint: "Anchor-0" 310.067 521.029 basechar 0
AnchorPoint: "Anchor-2" 292.401 -179.988 basechar 0
LayerCount: 2
Fore
SplineSet
476.229667641 151.935546875 m 0xf4
 476.229667641 354.52074263 461.78125 437.43493211 461.78125 479 c 0
 461.78125 511.46484375 473.453577053 531 505.034179688 531 c 0
 564.289475685 531 574.229667641 411.930413037 574.229667641 150.93359375 c 0xf8
 574.229667641 -124.515067289 414.483318404 -190.064453125 240.887357325 -190.064453125 c 0
 187.453744458 -190.064453125 167.704485323 -165.76490911 167.704485323 -139.06640625 c 0
 167.704485323 -109.132397293 190.15914984 -94.0457094437 228.783270312 -93.06640625 c 0
 396.435275293 -88.6372666801 476.229667641 -40.8941232678 476.229667641 151.935546875 c 0xf4
132.270507812 262.900390625 m 4
 132.270507812 162.943300199 195.447451164 97.9013671875 303.520148343 97.9013671875 c 0
 409.668116589 97.9013671875 470.197425789 164.558152858 470.197425789 261.301757812 c 0
 470.197425789 363.103102895 407.786946857 437.100585938 301.025390625 437.100585938 c 0
 193.554305083 437.100585938 132.270507812 361.705109442 132.270507812 262.900390625 c 4
36.3701171875 261 m 4
 36.3701171875 409.53384445 137.207597921 531 288.826171875 531 c 0
 434.87066444 531 534.097831703 408.196148829 534.097831703 251.001953125 c 0xf4
 534.097831703 110.30672622 433.260438452 10.001953125 281.641996038 10.001953125 c 0
 135.597373058 10.001953125 36.3701171875 111.11714654 36.3701171875 261 c 4
EndSplineSet
EndChar

StartChar: h
Encoding: 104 104 46
Width: 588
Flags: W
HStem: -9.99805 21G<94.014 141.59 466.11 512.956> -9.99805 21G<94.014 141.59 466.11 512.956> 442.101 88.8994<230.158 392.363> 741 20G<110.089 158.157>
VStem: 51.9569 102.564<223.606 372.708> 99.8943 51.8682<184.832 489.402> 456.367 98<45.361 371.227>
AnchorPoint: "Anchor-0" 147.894 751.829 basechar 0
AnchorPoint: "Anchor-2" 325.436 0.462766 basechar 0
LayerCount: 2
Fore
SplineSet
51.9569471624 311 m 0xba
 51.9569471624 560.015170962 78.1393390672 761 142.038836381 761 c 0
 174.276076106 761 186.191078049 742.967927632 186.191078049 713 c 0
 186.191078049 661.772231814 151.762497065 570.106211829 151.762497065 310.001953125 c 0xb6
 151.762497065 144.025377901 169.564854957 76.0688683327 169.564854957 42.001953125 c 0
 169.564854957 9.53669819081 157.67489484 -9.998046875 125.5054083 -9.998046875 c 0
 62.5226007639 -9.998046875 51.9569471624 90.2832807435 51.9569471624 311 c 0xba
154.520611815 252.617616317 m 0xba
 154.520611815 223.605611219 140.159463774 215.878071059 126.622735009 215.878071059 c 0
 112.922812396 215.878071059 99.8943330021 225.638355084 99.8943330021 252.146084907 c 0xb6
 99.8943330021 408.698079019 181.89904044 531 326.482572044 531 c 0
 473.265333344 531 554.367209715 419.926361656 554.367209715 261.019156442 c 0
 554.367209715 99.2326634674 543.963762442 -9.998046875 481.947881363 -9.998046875 c 0
 450.272268133 -9.998046875 438.564845401 13.5853270931 438.564845401 52.7790941733 c 0
 438.564845401 80.4428812717 456.367203294 135.626463384 456.367203294 270.406516474 c 0
 456.367203294 378.447960703 405.598623393 442.100566773 316.568044665 442.100566773 c 0
 214.303010575 442.100566773 154.520611815 372.70838006 154.520611815 252.617616317 c 0xba
EndSplineSet
EndChar

StartChar: f
Encoding: 102 102 47
Width: 388
Flags: W
HStem: -9.99805 21G<156.109 207.699> -9.99805 21G<156.109 207.699> 438.934 92<20.5049 370.125> 675.002 85.998<267.146 357.471>
VStem: 108.068 102<127.34 599.676>
AnchorPoint: "Anchor-0" 312.043 751.031 basechar 0
AnchorPoint: "Anchor-2" 198.202 0.466184 basechar 0
LayerCount: 2
Fore
SplineSet
185.154555834 438.93359375 m 0x38
 62.8916179882 438.93359375 10.3913894325 439.247070312 10.3913894325 482.93359375 c 0
 10.3913894325 527.9765625 60.6719410528 530.93359375 189.264622489 530.93359375 c 0
 324.964085032 530.93359375 379.448068279 530.793945312 379.448068279 485.93359375 c 0
 379.448068279 438.93359375 327.715841919 438.93359375 185.154555834 438.93359375 c 0x38
108.06842053 390.001953125 m 0
 108.06842053 702.88671875 202.206954034 761 304.506425149 761 c 4
 347.184491999 761 362.958841043 740.989257812 362.958841043 719.001953125 c 0
 362.958841043 690.369140625 346.992227633 681.236328125 321.57695924 675.001953125 c 0
 246.026451239 655.778320312 210.06842053 634.524414062 210.06842053 391 c 0
 210.06842053 163.166992188 237.22302891 82.8740234375 237.22302891 38.001953125 c 0
 237.22302891 8.0341796875 224.674438152 -9.998046875 190.722959972 -9.998046875 c 0xb8
 121.495436871 -9.998046875 108.06842053 168.655273438 108.06842053 390.001953125 c 0
EndSplineSet
EndChar

StartChar: u
Encoding: 117 117 48
Width: 588
Flags: W
HStem: -9.99805 88.8994<213.961 376.432> -9.99805 21G<466.68 514.063> 511 20G<91.6428 138.298 465.908 505.965>
VStem: 51.9569 98<149.775 477.406> 452.804 101.564<148.178 297.33> 454.562 51.8682<119.262 343.911>
AnchorPoint: "Anchor-3" 465.43 0 basechar 0
AnchorPoint: "Anchor-2" 309.984 0 basechar 0
AnchorPoint: "Anchor-0" 304.789 520.567 basechar 0
LayerCount: 2
Fore
SplineSet
554.367203294 261.019156442 m 0x78
 554.367203294 99.2324463851 544.241920082 -9.998046875 483.88326137 -9.998046875 c 0
 449.476252186 -9.998046875 436.759295499 10.2870222151 436.759295499 43.9981218366 c 0
 436.759295499 71.4535430331 454.561653392 126.220390234 454.561653392 259.982796683 c 0x74
 454.561653392 392.457830828 434.681017613 436.313534234 434.681017613 473.888667709 c 0
 434.681017613 509.544638463 447.95285659 531 483.862487425 531 c 0
 528.068254008 531 554.367203294 453.655315202 554.367203294 261.019156442 c 0x78
452.803500546 268.068601245 m 0xb8
 452.803500546 297.329861636 466.649517343 305.123872889 479.701421387 305.123872889 c 0
 493.401127701 305.123872889 506.429823875 295.363713824 506.429823875 268.855860096 c 0xb4
 506.429823875 112.303997987 424.425096745 -9.998046875 279.841584833 -9.998046875 c 0
 133.059004151 -9.998046875 51.9569471624 101.075990457 51.9569471624 259.982796683 c 0
 51.9569471624 421.76950674 61.9267841581 531 121.358799652 531 c 0
 155.237582688 531 167.759305055 507.416678851 167.759305055 468.222856401 c 0
 167.759305055 440.558612212 149.956947162 385.375214238 149.956947162 250.595425258 c 0
 149.956947162 142.55416282 200.72567542 78.901367983 289.75610831 78.901367983 c 0
 392.651729713 78.901367983 452.803500546 148.177948601 452.803500546 268.068601245 c 0xb8
EndSplineSet
EndChar

StartChar: v
Encoding: 118 118 49
Width: 574
Flags: W
HStem: -10 105<262.347 312.653> 510.998 20G<64.1213 100.09 478.756 514.593>
VStem: 33.2524 115<374.431 489.315> 429.256 115.11<367.181 492.371>
AnchorPoint: "Anchor-0" 289.575 520.55 basechar 0
AnchorPoint: "Anchor-2" 288.536 0 basechar 0
LayerCount: 2
Fore
SplineSet
287.000754045 95 m 0
 318.720475416 95 386.398381712 238.109796089 429.255909329 416.276586621 c 0
 451.826364365 506.834878361 460.135703541 530.998046875 497.376470691 530.998046875 c 0
 531.810005704 530.998046875 544.365616591 501.476469834 544.365616591 467.656387425 c 0
 544.365616591 410.964890531 491.480145135 251.405472771 432.162938839 129.128762458 c 0
 382.095102795 25.9187384832 336.034221882 -10 288.598570324 -10 c 0
 237.576603736 -10 198.58390252 25.293134008 133.807949359 160.293580912 c 0
 91.6508244812 248.15381949 33.252446184 416.183903923 33.252446184 467.656387425 c 0
 33.252446184 501.476469834 46.2704723173 530.998046875 81.9721727465 530.998046875 c 0
 118.206874581 530.998046875 123.229199394 504.958213375 148.252446184 416.276586621 c 0
 199.173492937 234.185932941 256.419909443 95 287.000754045 95 c 0
EndSplineSet
EndChar

StartChar: k
Encoding: 107 107 50
Width: 557
Flags: W
HStem: -9.99805 21G<93.3683 140.214 464.365 492.792> -9.99805 21G<93.3683 140.214 464.365 492.792> 213.501 102<154.357 307.98> 511 20G<452.828 485.549> 741 20G<109.307 156.729>
VStem: 51.9569 115.802<37.1084 208.627> 74.458 75.4989<141.872 428.786>
AnchorPoint: "Anchor-2" 284.143 0 basechar 0
AnchorPoint: "Anchor-0" 146.089 751.031 basechar 0
LayerCount: 2
Fore
SplineSet
51.9569471624 311 m 0xbc
 51.9569471624 560.015170962 77.7871662269 761 140.827167298 761 c 0
 172.630791931 761 184.385528147 742.967927632 184.385528147 713 c 0
 184.385528147 661.772231814 149.956947162 570.106211829 149.956947162 310.001953125 c 0xba
 149.956947162 144.025377901 167.759305055 76.0688683327 167.759305055 42.001953125 c 0
 167.759305055 9.53669819081 156.051882972 -9.998046875 124.376271499 -9.998046875 c 0
 62.360393858 -9.998046875 51.9569471624 90.2832807435 51.9569471624 311 c 0xbc
210.735351562 213.500976562 m 4
 95.2726761136 213.500976562 74.4580078125 213.850244635 74.4580078125 262.500976562 c 4
 74.4580078125 312.235669089 97.3584671935 315.500976562 214.840820312 315.500976562 c 4
 305.524411829 315.500976562 336.130928657 351.475867688 380.517578125 419 c 4
 417.678350443 475.531613378 432.235862937 531 473.419921875 531 c 4
 497.678309316 531 516.91015625 512.967927632 516.91015625 483 c 4
 516.91015625 415.949275554 426.67632239 293.261566844 341.158203125 269.001953125 c 5
 438.655779591 238.220421007 527.301379419 95.8912405608 527.301379419 34.001953125 c 4
 527.301379419 6.53135279607 503.843467762 -9.998046875 481.739575763 -9.998046875 c 4
 446.989765256 -9.998046875 430.03428005 24.8005833114 408.523710182 66.0439453125 c 4
 350.004553191 178.245843761 304.038470863 213.500976562 210.735351562 213.500976562 c 4
EndSplineSet
EndChar

StartChar: r
Encoding: 114 114 51
Width: 392
Flags: W
HStem: -9.99805 21G<91.6424 138.297> -9.99805 21G<91.6424 138.297> 438.058 92.9424<241.32 376.356>
VStem: 51.9569 99.6843<223.596 370.095> 98.0888 51.8682<175.942 401.547>
AnchorPoint: "Anchor-0" 243.478 521.029 basechar 0
AnchorPoint: "Anchor-2" 214.382 0.463946 basechar 0
LayerCount: 2
Fore
SplineSet
333.528867423 438.057555257 m 0x28
 202.440046191 427.373669149 151.641267859 370.094954274 151.641267859 252.478244892 c 0x30
 151.641267859 223.596416946 137.81393804 215.903550336 124.780383009 215.903550336 c 0
 111.099323697 215.903550336 98.0887830999 225.66304519 98.0887830999 252.168631723 c 0
 98.0887830999 408.707967777 176.833501793 531 315.669306217 531 c 0
 366.244761143 531 384.93808392 508.858411566 384.93808392 484.52978614 c 0
 384.93808392 454.288179928 365.988052554 440.703015288 333.528867423 438.057555257 c 0x28
51.9569471624 261.019156442 m 0
 51.9569471624 422.504010193 81.6364255551 531 131.525751883 531 c 0
 161.773909566 531 172.953739497 510.715357879 172.953739497 477.003831288 c 0
 172.953739497 449.416840883 149.956947162 394.38681654 149.956947162 259.982796683 c 0
 149.956947162 126.220122684 167.758044781 71.4530905088 167.758044781 43.9981218366 c 0
 167.758044781 10.2865952464 155.236458688 -9.998046875 121.358044353 -9.998046875 c 0xa8
 61.9268084095 -9.998046875 51.9569471624 99.2326634674 51.9569471624 261.019156442 c 0
EndSplineSet
EndChar

StartChar: z
Encoding: 122 122 52
Width: 501
Flags: W
HStem: -9.99805 92<146.324 422.941> 439 92<101.24 357.434>
VStem: 31.1742 111.758<86.8774 138.959> 362.127 110.802<381.944 434.191>
AnchorPoint: "Anchor-2" 259.567 0 basechar 0
AnchorPoint: "Anchor-0" 260.606 521.029 basechar 0
LayerCount: 2
Fore
SplineSet
263.305358204 439 m 0
 183.627991252 439.000000002 131.578993507 420.693150594 99.7319512065 420.693150594 c 0
 66.5903088252 420.693150594 51.1741682975 442.435810344 51.1741682975 464.380593095 c 0
 51.1741682975 507.950379163 89.1680595014 531 262.305142664 531 c 0
 435.326132955 531 472.929122203 492.976934445 472.929122203 421.104872864 c 0
 472.929122203 354.577230501 412.85922151 306.70264001 285.038998675 221.196315142 c 0
 206.363489341 168.565725778 142.931980797 136.341868227 142.931980797 106.645567618 c 0
 142.931980797 82.4096201851 183.690258882 82.0019533071 260.617469394 82.0019533105 c 0
 340.253145019 82.0019533134 392.61729161 100.308802717 424.44764891 100.308802717 c 0
 457.536856153 100.308802717 472.929122203 78.5661401413 472.929122203 56.6213601418 c 0
 472.929122203 13.0518748663 435.360093142 -9.998046875 262.495362377 -9.998046875 c 0
 72.8013729621 -9.998046875 31.1741682975 28.0245223888 31.1741682975 99.8970803063 c 0
 31.1741682975 172.236726405 107.847008232 227.514449034 227.930080374 301.761918556 c 0
 309.757735509 352.356029968 362.127363472 390.942086999 362.127363472 413.150319368 c 0
 362.127363472 434.813518965 338.560833479 438.999999997 263.305358204 439 c 0
EndSplineSet
EndChar

StartChar: w
Encoding: 119 119 53
Width: 824
Flags: W
HStem: -9.99805 111.285<210.555 253.316 572.49 614.706> 510.992 20G<65.0498 98.5565 728.148 760.243>
VStem: 33.2524 117.218<336.314 478.007> 680.782 111.258<334.278 496.889>
AnchorPoint: "Anchor-2" 404.955 0 basechar 0
AnchorPoint: "Anchor-0" 413.268 520.543 basechar 0
LayerCount: 2
Fore
SplineSet
412.373138822 474.251674157 m 0
 465.692237201 474.251674157 488.931844597 446.374326618 536.987961375 234.006330456 c 0
 561.85564715 124.1118789 580.464101836 101.287117155 594.187697932 101.287117155 c 0
 615.789383551 101.287117155 638.662589319 156.321738801 680.782398468 410.204275688 c 0
 698.007691468 510.463524617 713.447225971 530.9921875 742.849023665 530.9921875 c 0
 777.637595836 530.9921875 792.040616515 500.769405341 792.040616515 471.810130985 c 0
 792.040616515 425.32401627 762.31915832 281.485386375 735.879269927 199.752360888 c 0
 685.570279091 40.9235581511 656.653405061 -9.998046875 591.059485444 -9.998046875 c 0
 525.680602411 -9.998046875 490.707998945 73.2620690902 460.117005366 173.972439097 c 0
 425.475347732 288.018233288 423.987370116 307.802387831 411.318696446 307.802387831 c 0
 399.827913896 307.802387831 394.384666106 288.487251952 365.176057334 173.972439097 c 0
 339.160045155 71.9744703131 299.612460287 -9.998046875 234.233577255 -9.998046875 c 0
 168.639657638 -9.998046875 140.358183834 41.1365217458 89.4137927712 199.752360888 c 0
 62.8081528847 281.430419098 33.252446184 425.32401627 33.252446184 471.810130985 c 0
 33.252446184 500.769405341 47.6554668636 530.9921875 82.4440390333 530.9921875 c 0
 114.668911186 530.9921875 127.158940238 510.628754996 150.470119708 375.51551967 c 0
 187.364452706 156.320849189 210.034761711 101.287117155 232.559110724 101.287117155 c 0
 248.831573685 101.287117155 260.89456248 124.903677497 288.305101324 234.006330456 c 0
 341.214779677 444.603659773 359.287994041 474.251674157 412.373138822 474.251674157 c 0
EndSplineSet
EndChar

StartChar: x
Encoding: 120 120 54
Width: 555
Flags: W
HStem: -9.99805 21G<75.4314 118.621 443.751 483.125> -9.99805 21G<75.4314 118.621 443.751 483.125> 511 20G<88.8342 123.082 433.517 469.616>
AnchorPoint: "Anchor-2" 281.607 0.383804 basechar 0
AnchorPoint: "Anchor-0" 282.646 520.646 basechar 0
LayerCount: 2
Fore
SplineSet
501.073001391 484.272546307 m 0xa0
 501.073001391 454.717026226 482.271081136 416.517738453 334.635212818 257.903992862 c 0
 174.006048573 85.3298120507 149.954650043 -9.998046875 87.2876712329 -9.998046875 c 0
 63.5752106011 -9.998046875 36.3698630137 11.3031009607 36.3698630137 41.9193180157 c 0
 36.3698630137 74.7796291466 109.348063311 142.83155384 250.136168359 299.439507256 c 0
 407.638782718 474.640079236 413.761990124 531 453.272610001 531 c 0
 485.958806645 531 501.073001391 508.487061645 501.073001391 484.272546307 c 0xa0
57.1526418787 486.349322027 m 0
 57.1526418787 509.48792963 76.8719269814 531 100.796477495 531 c 0
 145.366811016 531 152.317067484 472.706284657 308.088460127 299.439507256 c 0
 447.352359421 144.534144871 521.855780256 74.7796291466 521.855780256 41.9193180157 c 0
 521.855780256 11.3031009607 500.50675185 -9.998046875 465.74227732 -9.998046875 c 0
 421.759503807 -9.998046875 387.173631283 83.3909472187 223.590430451 257.903992862 c 0
 80.1567831917 410.920178896 57.1526418787 456.522036373 57.1526418787 486.349322027 c 0
EndSplineSet
EndChar

StartChar: y
Encoding: 121 121 55
Width: 574
Flags: W
HStem: -190.064 96.998<70.9001 184.32> 490.998 20G<64.1213 100.09 478.756 514.593>
VStem: 33.2524 115<352.187 470.523> 429.256 115.11<351.906 473.27>
AnchorPoint: "Anchor-2" 172.29 -180.064 basechar 0
AnchorPoint: "Anchor-0" 298.928 501.029 basechar 0
LayerCount: 2
Fore
SplineSet
289.056284532 118 m 0
 320.317668529 118 385.582906406 244.627139033 429.255909329 401.5390625 c 0
 452.443723589 487.788388138 460.135703541 510.998046875 497.376470691 510.998046875 c 0
 531.810005704 510.998046875 544.365616591 482.56784446 544.365616591 449.998046875 c 0
 544.365616591 392.757593472 497.261988827 260.681713377 418.056033116 108.192382812 c 0
 299.552760917 -119.95314596 252.698068375 -190.064453125 132.992154212 -190.064453125 c 0
 79.8821123057 -190.064453125 60.252446184 -165.76490911 60.252446184 -139.06640625 c 0
 60.252446184 -109.132397293 82.3120746873 -94.665963562 120.197080557 -93.06640625 c 0
 201.597590621 -89.0917824928 235.089553266 -17.722344764 235.089553266 3.013671875 c 0
 235.089553266 21.555605458 193.516552949 62.5855449961 133.324270964 163.998046875 c 0
 80.7897050736 252.508759318 33.252446184 402.103083758 33.252446184 449.998046875 c 0
 33.252446184 482.56784446 46.2704723173 510.998046875 81.9721727465 510.998046875 c 0
 118.206874581 510.998046875 122.726382956 486.002378366 148.252446184 401.5390625 c 0
 199.927878815 240.836990253 258.02239038 118 289.056284532 118 c 0
EndSplineSet
EndChar

StartChar: comma
Encoding: 44 44 56
Width: 220
Flags: W
HStem: -106 215<74 98>
VStem: 51 114<-7.92972 51.7054>
LayerCount: 2
Fore
SplineSet
-11 -69 m 4
 -11 -40 19 -30 51 8 c 4
 82 49 74 109 124 109 c 4
 148 109 165 90 165 65 c 4
 165 6 98 -106 35 -106 c 4
 8 -106 -11 -89 -11 -69 c 4
EndSplineSet
EndChar

StartChar: zero
Encoding: 48 48 59
Width: 653
Flags: W
HStem: -10 95<249.488 406.179> 638 101<246.821 403.512>
VStem: 35 104<217.081 499.321> 514 104<222.768 505.008>
LayerCount: 2
Fore
SplineSet
139 361 m 0
 139 194 209 85 328 85 c 0
 447 85 514 200 514 367 c 0
 514 524 444 638 325 638 c 0
 206 638 139 518 139 361 c 0
35 359 m 0
 35 568 151 739 325 739 c 0
 499 739 618 576 618 367 c 0
 618 147 502 -10 328 -10 c 0
 154 -10 35 139 35 359 c 0
EndSplineSet
Substitution2: "'sups' Superscript lookup 0 subtable" zero.superior
Substitution2: "'sinf' Scientific Inferiors lookup 0 subtable" zero.inferior
Substitution2: "'dnom' Denominators lookup 0 subtable" zero.dnom
Substitution2: "'numr' Numerators lookup 0 subtable" zero.numr
EndChar

StartChar: one
Encoding: 49 49 60
Width: 383
Flags: W
HStem: 634 105<144.337 264>
VStem: 225 106<208.679 630.436>
LayerCount: 2
Fore
SplineSet
225 476 m 4
 225 612 218 634 198 634 c 0
 167 634 111 584 71 584 c 0
 44 584 29 604 29 626 c 0
 29 680 168 739 234 739 c 0
 294 739 331 709 331 474 c 4
 331 105 320 -12 258 -12 c 4
 221 -12 208 10 208 47 c 0
 208 101 225 211 225 476 c 4
EndSplineSet
Substitution2: "'sups' Superscript lookup 0 subtable" one.superior
Substitution2: "'sinf' Scientific Inferiors lookup 0 subtable" one.inferior
Substitution2: "'dnom' Denominators lookup 0 subtable" one.dnom
Substitution2: "'numr' Numerators lookup 0 subtable" one.numr
EndChar

StartChar: two
Encoding: 50 50 61
Width: 562
Flags: W
HStem: -10 98<160.964 490.433> 639 100<184.188 361.683>
VStem: 30 129<60.6494 139.865> 406 107<450.096 595.679>
LayerCount: 2
Fore
SplineSet
283 639 m 4
 153 639 139 559 93 559 c 0
 59 559 43 583 43 606 c 0
 43 665 139 739 282 739 c 4
 455 739 513 624 513 534 c 0
 513 409 448 344 322 244 c 4
 237 176 159 136 159 112 c 0
 159 89 210 88 308 88 c 0
 394 88 452 110 486 110 c 0
 518 110 533 86 533 63 c 0
 533 15 494 -10 311 -10 c 0
 80 -10 30 27 30 96 c 0
 30 165 134 222 263 326 c 4
 346 392 406 449 406 529 c 0
 406 588 369 639 283 639 c 4
EndSplineSet
Substitution2: "'sups' Superscript lookup 0 subtable" two.superior
Substitution2: "'sinf' Scientific Inferiors lookup 0 subtable" two.inferior
Substitution2: "'dnom' Denominators lookup 0 subtable" two.dnom
Substitution2: "'numr' Numerators lookup 0 subtable" two.numr
EndChar

StartChar: three
Encoding: 51 51 62
Width: 574
Flags: W
HStem: -10 100<173.282 381.415> 331 98<161.856 341.502> 641 98<186.751 365.081>
VStem: 401 108<479.192 604.696> 430 105<137.389 269.362>
LayerCount: 2
Fore
SplineSet
232 331 m 4xe8
 185 331 153 341 153 382 c 4
 153 417 180 429 231 429 c 4
 338 429 401 468 401 542 c 0
 401 596 366 641 290 641 c 0
 156 641 158 574 99 574 c 0
 73 574 51 592 51 622 c 0
 51 674 139 739 286 739 c 0
 416 739 509 659 509 544 c 0xf0
 509 413 394 379 394 379 c 5
 394 379 535 353 535 192 c 0
 535 74 433 -10 288 -10 c 0
 124 -10 30 64 30 116 c 0
 30 145 52 166 76 166 c 0
 131 166 131 90 291 90 c 0
 377 90 430 130 430 204 c 0
 430 292 349 331 232 331 c 4xe8
EndSplineSet
Substitution2: "'sups' Superscript lookup 0 subtable" three.superior
Substitution2: "'sinf' Scientific Inferiors lookup 0 subtable" three.inferior
Substitution2: "'dnom' Denominators lookup 0 subtable" three.dnom
Substitution2: "'numr' Numerators lookup 0 subtable" three.numr
EndChar

StartChar: four
Encoding: 52 52 63
Width: 651
Flags: W
HStem: -10 21G<432 481> -10 21G<432 481> 178 91<152.372 501.42> 508 20G<429.5 479> 719 20G<335.5 371.5>
VStem: 42 105<279.666 374.04> 404 101<10.4712 511.297>
LayerCount: 2
Fore
SplineSet
404 278 m 0xbe
 404 437 404 528 455 528 c 0
 503 528 505 440 505 274 c 0
 505 53 504 -10 458 -10 c 0
 406 -10 404 48 404 278 c 0xbe
345 178 m 4
 73 178 42 215 42 286 c 0
 42 354 106 480 179 576 c 0
 248 666 311 739 360 739 c 0
 383 739 400 722 400 700 c 0
 400 658 337 621 273 538 c 0
 211 458 147 363 147 302 c 0
 147 274 192 269 348 269 c 4
 459 269 538 278 577 278 c 4
 609 278 623 259 623 238 c 4
 623 180 541 178 345 178 c 4
EndSplineSet
Substitution2: "'sups' Superscript lookup 0 subtable" four.superior
Substitution2: "'sinf' Scientific Inferiors lookup 0 subtable" four.inferior
Substitution2: "'dnom' Denominators lookup 0 subtable" four.dnom
Substitution2: "'numr' Numerators lookup 0 subtable" four.numr
EndChar

StartChar: five
Encoding: 53 53 64
Width: 581
Flags: W
HStem: -10 99<172.259 372.729> 331 101<94 209.2> 360 92<162.418 371.591> 641 98<185.728 471.516>
VStem: 54 102<378.5 596.762> 432 105<144.716 302.166>
LayerCount: 2
Fore
SplineSet
287 -10 m 0xbc
 125 -10 30 64 30 116 c 0
 30 145 51 165 75 165 c 0
 129 165 130 89 287 89 c 0
 376 89 432 136 432 221 c 0
 432 315 378 360 276 360 c 0xbc
 200 360 146 331 118 331 c 0
 70 331 54 363 54 394 c 0
 54 514 81 677 123 710 c 0
 153 734 182 739 301 739 c 0
 471 739 512 719 512 673 c 0
 512 648 493 629 461 629 c 0
 430 629 376 641 300 641 c 0
 234 641 200 633 186 620 c 0
 170 605 156 492 156 445 c 0
 156 436 160 432 166 432 c 0xdc
 182 432 211 452 290 452 c 0
 444 452 537 362 537 222 c 0
 537 87 434 -10 287 -10 c 0xbc
EndSplineSet
Substitution2: "'sinf' Scientific Inferiors lookup 0 subtable" five.inferior
Substitution2: "'dnom' Denominators lookup 0 subtable" five.dnom
Substitution2: "'numr' Numerators lookup 0 subtable" five.numr
EndChar

StartChar: six
Encoding: 54 54 65
Width: 588
Flags: W
HStem: -10 98<212.739 377.903> 404 90<215.036 375.78> 630 109<319.281 463.518>
VStem: 35 107<158.135 328.766> 449 104<159.438 331.929>
LayerCount: 2
Fore
SplineSet
142 248 m 0
 142 151 199 88 297 88 c 0
 395 88 449 155 449 252 c 0
 449 334 392 404 294 404 c 0
 196 404 142 330 142 248 c 0
431 739 m 0
 471 739 489 719 489 690 c 0
 489 668 475 644 396 630 c 0
 230 599 167 505 157 436 c 1
 157 436 212 494 320 494 c 0
 456 494 553 390 553 251 c 0
 553 99 450 -10 296 -10 c 0
 141 -10 35 91 35 288 c 0
 35 573 226 739 431 739 c 0
EndSplineSet
Substitution2: "'sups' Superscript lookup 0 subtable" six.superior
Substitution2: "'sinf' Scientific Inferiors lookup 0 subtable" six.inferior
Substitution2: "'dnom' Denominators lookup 0 subtable" six.dnom
Substitution2: "'numr' Numerators lookup 0 subtable" six.numr
EndChar

StartChar: seven
Encoding: 55 55 66
Width: 569
Flags: W
HStem: 641 98<93.8321 426.795>
VStem: 433 107<523.373 668.5>
LayerCount: 2
Fore
SplineSet
115 34 m 0
 115 89 171 94 297 299 c 0
 378 430 433 557 433 604 c 0
 433 635 398 641 287 641 c 0
 195 641 134 620 97 620 c 0
 65 620 50 643 50 666 c 0
 50 714 92 739 285 739 c 0
 494 739 540 703 540 634 c 0
 540 552 486 410 401 273 c 0
 270 62 217 -12 164 -12 c 0
 137 -12 115 9 115 34 c 0
EndSplineSet
Substitution2: "'sups' Superscript lookup 0 subtable" seven.superior
Substitution2: "'sinf' Scientific Inferiors lookup 0 subtable" seven.inferior
Substitution2: "'dnom' Denominators lookup 0 subtable" seven.dnom
Substitution2: "'numr' Numerators lookup 0 subtable" seven.numr
EndChar

StartChar: eight
Encoding: 56 56 67
Width: 581
Flags: W
HStem: -10 93<198.984 383.906> 341 84<211 372> 362 46<156 428> 648 91<210.844 368.073>
VStem: 35 105<140.561 280.103> 63 101<470.399 604.089> 417 101<469.848 601.224> 441 105<139.821 279.079>
LayerCount: 2
Fore
SplineSet
140 213 m 0xd9
 140 134 196 83 292 83 c 4
 387 83 441 134 441 209 c 0
 441 280 385 341 289 341 c 4
 194 341 140 281 140 213 c 0xd9
35 203 m 0
 35 331 137 408 289 408 c 4xb9
 442 408 546 332 546 201 c 0
 546 78 444 -10 292 -10 c 4
 139 -10 35 76 35 203 c 0
164 536 m 4xd6
 164 473 211 425 292 425 c 4
 372 425 417 474 417 535 c 4
 417 601 370 648 289 648 c 4
 209 648 164 600 164 536 c 4xd6
63 548 m 4
 63 652 153 739 289 739 c 4
 425 739 518 654 518 548 c 4
 518 423 428 362 292 362 c 4xb6
 156 362 63 421 63 548 c 4
EndSplineSet
Substitution2: "'sups' Superscript lookup 0 subtable" eight.superior
Substitution2: "'sinf' Scientific Inferiors lookup 0 subtable" eight.inferior
Substitution2: "'dnom' Denominators lookup 0 subtable" eight.dnom
Substitution2: "'numr' Numerators lookup 0 subtable" eight.numr
EndChar

StartChar: nine
Encoding: 57 57 68
Width: 588
Flags: W
HStem: -10 109<124.482 268.719> 236 90<212.22 372.964> 641 98<208.519 375.261>
VStem: 35 104<397.625 569.914> 446 107<400.381 570.865>
LayerCount: 2
Fore
SplineSet
446 481 m 4
 446 578 389 641 291 641 c 0
 193 641 139 575 139 478 c 4
 139 396 196 326 294 326 c 4
 392 326 446 399 446 481 c 4
157 -10 m 0
 117 -10 99 10 99 39 c 0
 99 61 113 85 192 99 c 4
 358 130 421 225 431 294 c 5
 431 294 376 236 268 236 c 4
 132 236 35 339 35 478 c 4
 35 630 138 739 292 739 c 0
 447 739 553 638 553 441 c 4
 553 156 362 -10 157 -10 c 0
EndSplineSet
Substitution2: "'sups' Superscript lookup 0 subtable" nine.superior
Substitution2: "'sinf' Scientific Inferiors lookup 0 subtable" nine.inferior
Substitution2: "'dnom' Denominators lookup 0 subtable" nine.dnom
Substitution2: "'numr' Numerators lookup 0 subtable" nine.numr
EndChar

StartChar: hyphen
Encoding: 45 45 69
Width: 358
Flags: W
HStem: 216 92<19.8281 340.946>
LayerCount: 2
Fore
SplineSet
180 216 m 4
 61 216 10 217 10 260 c 4
 10 305 59 308 184 308 c 4
 302 308 349 307 349 263 c 4
 349 216 304 216 180 216 c 4
EndSplineSet
EndChar

StartChar: exclam
Encoding: 33 33 70
Width: 230
Flags: W
HStem: -10 121<65.1897 160.81> 719 20G<95 132>
VStem: 51 124<2.69263 96.8479> 60 106<372.261 726.977> 70 89<203.247 515.76>
LayerCount: 2
Fore
SplineSet
60 642 m 0xd0
 60 710 76 739 114 739 c 0
 150 739 166 712 166 646 c 0xd0
 166 541 163 355 159 265 c 4
 157 218 143 196 115 196 c 4
 86 196 73 218 70 266 c 4xc8
 65 354 60 543 60 642 c 0xd0
EndSplineSet
Refer: 40 46 N 1 0 0 1 16 0 2
EndChar

StartChar: question
Encoding: 63 63 71
Width: 598
Flags: W
HStem: -10 121<215.19 310.81> 641 98<190.982 386.136>
VStem: 201 124<2.69263 96.8479> 214 97<202.646 305.662> 432 105<470.796 600.891>
LayerCount: 2
Fore
SplineSet
290 641 m 0xd8
 154 641 141 558 94 558 c 0
 60 558 44 582 44 605 c 0
 44 665 145 739 293 739 c 0
 447 739 537 644 537 538 c 4
 537 430 474 376 396 343 c 4
 319 311 311 292 311 253 c 4
 311 212 296 195 262 195 c 0
 229 195 214 219 214 264 c 0
 214 363 281 393 366 435 c 0
 407 455 432 490 432 536 c 0
 432 595 398 641 290 641 c 0xd8
EndSplineSet
Refer: 40 46 N 1 0 0 1 166 0 2
EndChar

StartChar: quotesingle
Encoding: 39 39 72
Width: 215
Flags: W
HStem: 489 250<72.9805 141.785>
VStem: 60 95<497.819 730.355>
LayerCount: 2
Fore
SplineSet
60 654 m 0
 60 713 74 739 109 739 c 0
 141 739 155 715 155 658 c 0
 155 626 153 575 150 545 c 0
 146 506 135 489 108 489 c 0
 80 489 69 506 65 546 c 0
 62 574 60 625 60 654 c 0
EndSplineSet
EndChar

StartChar: dollar
Encoding: 36 36 74
Width: 592
Flags: W
HStem: -10 99<191.487 393.815> 640 99<195.602 383.392>
VStem: 47 105<476.765 598.587> 250 91<86.7436 580.325> 449 107<138.049 257.468>
LayerCount: 2
Fore
SplineSet
250 340 m 0
 250 785 260 839 294 839 c 0
 329 839 341 792 341 336 c 0
 341 -39 333 -109 296 -109 c 0
 258 -109 250 -47 250 340 c 0
EndSplineSet
Refer: 19 83 S 1 0 0 1 0 0 2
EndChar

StartChar: plus
Encoding: 43 43 75
Width: 446
Flags: W
HStem: 316 92<40.8125 407.424>
VStem: 179 89<176.499 548.545>
LayerCount: 2
Fore
SplineSet
268 356 m 4
 268 223 267 167 225 167 c 4
 181 167 179 221 179 360 c 4
 179 500 180 557 223 557 c 4
 268 557 268 503 268 356 c 4
218 316 m 4
 86 316 30 317 30 360 c 4
 30 405 84 408 222 408 c 4
 361 408 417 407 417 363 c 4
 417 316 364 316 218 316 c 4
EndSplineSet
EndChar

StartChar: equal
Encoding: 61 61 76
Width: 450
Flags: W
HStem: 226 92<40.9844 411.398> 406 92<40.9844 411.398>
LayerCount: 2
Fore
SplineSet
220 226 m 0
 87 226 30 227 30 270 c 0
 30 315 85 318 224 318 c 0
 365 318 421 317 421 273 c 0
 421 226 367 226 220 226 c 0
220 406 m 0
 87 406 30 407 30 450 c 0
 30 495 85 498 224 498 c 0
 365 498 421 497 421 453 c 0
 421 406 367 406 220 406 c 0
EndSplineSet
EndChar

StartChar: slash
Encoding: 47 47 77
Width: 502
Flags: W
HStem: 741 20G<400.5 444>
LayerCount: 2
Fore
SplineSet
474 717 m 0
 474 676 412 552 312 299 c 0
 171 -55 137 -190 79 -190 c 0
 50 -190 30 -167 30 -147 c 0
 30 -102 95 14 232 351 c 0
 343 625 371 761 430 761 c 0
 458 761 474 739 474 717 c 0
EndSplineSet
EndChar

StartChar: ampersand
Encoding: 38 38 78
Width: 683
Flags: W
HStem: -10 94<211.377 411.625> 331 98<225.055 414.818 532.037 666.389> 643 96<214.982 401.15>
VStem: 40 110<138.473 275.258> 65 105<478.546 600.502> 476 111<139.645 277.091>
LayerCount: 2
Fore
SplineSet
319 331 m 0xf4
 219 331 150 293 150 206 c 0
 150 127 213 84 314 84 c 0
 418 84 476 137 476 205 c 0
 476 279 424 331 319 331 c 0xf4
532 330 m 1
 532 330 587 287 587 200 c 0
 587 77 487 -10 312 -10 c 0
 144 -10 40 74 40 192 c 0xf4
 40 353 176 379 176 379 c 1
 176 379 65 413 65 544 c 0
 65 659 161 739 297 739 c 0
 444 739 532 674 532 622 c 0
 532 592 511 574 485 574 c 0
 429 574 429 643 303 643 c 0
 212 643 170 596 170 539 c 0xec
 170 467 231 429 337 429 c 0
 456 429 538 431 598 431 c 0
 648 431 674 415 674 380 c 0
 674 347 650 328 606 328 c 0
 583 328 532 330 532 330 c 1
EndSplineSet
Substitution2: "'ss01' Style Set 1 lookup 4-1" ampersand.ss01
EndChar

StartChar: underscore
Encoding: 95 95 79
Width: 518
Flags: W
HStem: -93 92<24.4531 497.014>
LayerCount: 2
Fore
SplineSet
260 -93 m 0
 85 -93 10 -92 10 -49 c 0
 10 -4 81 -1 264 -1 c 0
 439 -1 509 -2 509 -46 c 4
 509 -93 443 -93 260 -93 c 0
EndSplineSet
EndChar

StartChar: bar
Encoding: 124 124 80
Width: 221
Flags: W
HStem: 740 20G<85.5 133>
VStem: 60 101<31.6382 555.106>
LayerCount: 2
Fore
SplineSet
60 298 m 4
 60 709 62 760 109 760 c 4
 157 760 161 716 161 294 c 4
 161 -126 161 -190 111 -190 c 4
 60 -190 60 -124 60 298 c 4
EndSplineSet
EndChar

StartChar: backslash
Encoding: 92 92 81
Width: 502
Flags: W
HStem: 741 20G<60 103.5>
LayerCount: 2
Fore
SplineSet
30 717 m 0
 30 739 46 761 74 761 c 4
 133 761 161 625 272 351 c 4
 409 14 474 -102 474 -147 c 0
 474 -167 454 -190 425 -190 c 0
 367 -190 333 -55 192 299 c 4
 92 552 30 676 30 717 c 0
EndSplineSet
EndChar

StartChar: parenleft
Encoding: 40 40 82
Width: 393
Flags: W
HStem: -191 89<267.793 377.344> 671 89<267.793 377.344>
VStem: 35 105<78.8974 489.346>
LayerCount: 2
Fore
SplineSet
140 284 m 4
 140 65 189 -77 325 -102 c 4
 345 -106 384 -105 384 -148 c 4
 384 -183 345 -191 309 -191 c 4
 126 -191 35 22 35 284 c 0
 35 546 126 760 309 760 c 4
 345 760 384 752 384 717 c 4
 384 674 345 675 325 671 c 4
 189 646 140 503 140 284 c 4
EndSplineSet
EndChar

StartChar: parenright
Encoding: 41 41 83
Width: 394
Flags: W
HStem: -191 89<15.6562 125.423> 671 89<15.6562 125.423>
VStem: 253 106<84.2275 490.928>
LayerCount: 2
Fore
SplineSet
253 284 m 0
 253 503 204 646 68 671 c 0
 48 675 9 674 9 717 c 0
 9 752 48 760 84 760 c 0
 268 760 359 549 359 289 c 4
 359 25 268 -191 84 -191 c 0
 48 -191 9 -183 9 -148 c 0
 9 -105 48 -106 68 -102 c 0
 204 -77 253 65 253 284 c 0
EndSplineSet
EndChar

StartChar: bracketleft
Encoding: 91 91 84
Width: 391
Flags: W
HStem: -191 91<183.178 347.419> 669 91<183.327 350.724>
VStem: 52 100<51.8347 577.005>
LayerCount: 2
Fore
SplineSet
152 314 m 0
 152 114 157 -23 180 -74 c 0
 190 -96 199 -100 245 -100 c 0
 297 -100 319 -86 340 -86 c 0
 369 -86 383 -101 383 -123 c 0
 383 -166 349 -191 214 -191 c 0
 161 -191 127 -186 107 -163 c 0
 57 -105 52 45 52 314 c 0
 52 550 62 688 107 733 c 0
 128 754 161 760 214 760 c 0
 351 760 383 737 383 699 c 0
 383 676 370 658 342 658 c 0
 321 658 299 669 245 669 c 0
 199 669 191 664 180 643 c 0
 159 603 152 484 152 314 c 0
EndSplineSet
EndChar

StartChar: bracketright
Encoding: 93 93 85
Width: 391
Flags: W
HStem: -191 91<44.5808 208.822> 669 91<41.2762 208.673>
VStem: 240 100<51.8347 577.005>
LayerCount: 2
Fore
SplineSet
240 314 m 4
 240 484 233 603 212 643 c 4
 201 664 193 669 147 669 c 4
 93 669 71 658 50 658 c 4
 22 658 9 676 9 699 c 4
 9 737 41 760 178 760 c 4
 231 760 264 754 285 733 c 4
 330 688 340 550 340 314 c 4
 340 45 335 -105 285 -163 c 4
 265 -186 231 -191 178 -191 c 4
 43 -191 9 -166 9 -123 c 4
 9 -101 23 -86 52 -86 c 4
 73 -86 95 -100 147 -100 c 4
 193 -100 202 -96 212 -74 c 4
 235 -23 240 114 240 314 c 4
EndSplineSet
EndChar

StartChar: asciicircum
Encoding: 94 94 86
Width: 475
Flags: W
HStem: 641 98<213.592 254.149>
VStem: 32 112<413.934 486.546> 326 118<414.37 477.028>
LayerCount: 2
Fore
SplineSet
233 641 m 0
 221 641 187 579 144 472 c 0
 110 387 112 363 71 363 c 0
 42 363 32 386 32 413 c 0
 32 445 77 549 113 608 c 0
 168 709 194 739 233 739 c 0
 273 739 299 711 357 608 c 0
 390 549 444 445 444 413 c 0
 444 386 433 363 402 363 c 0
 360 363 358 388 326 472 c 0
 284 580 245 641 233 641 c 0
EndSplineSet
EndChar

StartChar: grave
Encoding: 96 96 87
Width: 262
Flags: W
HStem: 525 214<116 120>
VStem: 32 198<555 699>
LayerCount: 2
Fore
SplineSet
230 555 m 0
 230 539 215 525 194 525 c 4
 116 525 32 638 32 699 c 0
 32 721 48 739 71 739 c 4
 120 739 106 680 175 612 c 4
 197 590 230 584 230 555 c 0
EndSplineSet
EndChar

StartChar: less
Encoding: 60 60 88
Width: 450
Flags: W
HStem: 189 105<277.088 377.549> 418 110<282.74 376.356>
LayerCount: 2
Fore
SplineSet
157 355 m 0
 157 347 200 323 305 294 c 0
 392 270 415 264 415 228 c 0
 415 199 391 189 364 189 c 0
 331 189 228 226 168 252 c 0
 66 297 36 319 36 353 c 0
 36 388 65 409 168 459 c 0
 227 488 331 528 364 528 c 0
 391 528 415 517 415 486 c 0
 415 449 390 441 305 418 c 0
 200 390 157 363 157 355 c 0
EndSplineSet
EndChar

StartChar: greater
Encoding: 62 62 89
Width: 450
Flags: W
HStem: 189 105<72.2793 172.937> 418 110<73.4506 168.26>
LayerCount: 2
Fore
SplineSet
294 355 m 0
 294 363 250 390 145 418 c 0
 60 441 36 449 36 486 c 0
 36 517 60 528 87 528 c 0
 120 528 224 488 283 459 c 0
 386 409 415 388 415 353 c 0
 415 319 385 297 283 252 c 0
 223 226 120 189 87 189 c 0
 60 189 36 199 36 228 c 0
 36 264 58 270 145 294 c 0
 250 323 294 347 294 355 c 0
EndSplineSet
EndChar

StartChar: percent
Encoding: 37 37 90
Width: 890
Flags: W
HStem: -10 21G<182.105 215.33 182.105 215.33> -10 84<605.597 730.142> 282 89<606.858 731.403> 362 84<158.597 285.372> 650 89<159.858 284.403> 719 20G<688.18 726.39>
VStem: 35 90<480.228 615.657> 318 90<478.467 615.983> 482 90<106.723 246.852> 765 90<108.166 247.863>
LayerCount: 2
Fore
SplineSet
572 176 m 4x63c0
 572 114 608.626262626 74 670 74 c 4
 730.364583333 74 765 119 765 182 c 4
 765 240 728.373737374 282 667 282 c 4
 606.635416667 282 572 237 572 176 c 4x63c0
482 173 m 4
 482 282 556 371 667 371 c 4
 779 371 855 288 855 181 c 4
 855 69 781 -10 670 -10 c 4
 558 -10 482 63 482 173 c 4
125 546 m 0
 125 486 161.626262626 446 223 446 c 0
 283.364583333 446 318 488 318 551 c 0
 318 608 281.373737374 650 220 650 c 0x1bc0
 159.635416667 650 125 605 125 546 c 0
35 543 m 0
 35 651 109 739 220 739 c 0
 332 739 408 655 408 550 c 0
 408 440 334 362 223 362 c 0
 111 362 35 435 35 543 c 0
EndSplineSet
Refer: 130 8260 N 1 0 0 1 350 0 2
EndChar

StartChar: asciitilde
Encoding: 126 126 91
Width: 484
VWidth: 999
Flags: W
HStem: 289 89<280.732 394.998> 362 89<98.1428 218.752>
LayerCount: 2
Fore
SplineSet
475 392 m 0x80
 475 335.371247367 425.704355566 289 348 289 c 0x80
 261.434960937 289 218.850492437 362 158 362 c 0
 96.6540527344 362 85.3720703125 313 48 313 c 0
 23.384765625 313 9 328.860351562 9 356 c 0
 9 406.915153952 64.3446614583 451 149 451 c 0x40
 246.487465716 451 280.535857505 378 336 378 c 0
 407.817937078 378 397.190508868 427 438 427 c 0
 459.211914062 427 475 413.842573117 475 392 c 0x80
EndSplineSet
Validated: 1
EndChar

StartChar: asterisk
Encoding: 42 42 92
Width: 384
Flags: W
VStem: 151 83<634.042 780.491>
LayerCount: 2
Fore
SplineSet
192 536 m 1
 192 536 238 424 287 424 c 0
 306 424 324 440 324 462 c 4
 324 503 243 572 243 572 c 1
 243 572 370 590 370 644 c 0
 370 665 354 680 331 680 c 0
 293 680 222 634 222 634 c 1
 222 634 234 692 234 728 c 0
 234 766 221 785 193 785 c 0
 165 785 151 766 151 728 c 0
 151 692 163 634 163 634 c 1
 163 634 92 680 54 680 c 0
 31 680 15 665 15 644 c 0
 15 590 142 572 142 572 c 1
 142 572 61 503 61 462 c 4
 61 440 79 424 98 424 c 0
 147 424 192 536 192 536 c 1
EndSplineSet
EndChar

StartChar: braceleft
Encoding: 123 123 93
Width: 406
Flags: W
HStem: -191 94<214.156 367.895> 270 87<14.011 122.343> 666 94<212.549 367.895>
VStem: 97 100<-80.1422 95.946 504.353 651.392> 136 96<86.0432 256.367 370.212 516.839>
LayerCount: 2
Fore
SplineSet
97 604 m 0xf0
 97 702 142 760 267 760 c 0
 342 760 402 736 402 687 c 0
 402 663 387 651 368 651 c 0
 337 651 325 666 272 666 c 0
 224 666 197 646 197 597 c 0xf0
 197 532 232 489 232 416 c 0
 232 334 173 310 173 310 c 1
 173 310 232 286 232 206 c 0xe8
 232 131 197 77 197 -11 c 4
 197 -75 224 -97 272 -97 c 0
 325 -97 337 -84 368 -84 c 0
 387 -84 402 -95 402 -118 c 0
 402 -167 342 -191 267 -191 c 0
 142 -191 97 -130 97 -26 c 4xf0
 97 58 136 122 136 199 c 0
 136 253 110 270 61 270 c 0
 27 270 9 284 9 315 c 0
 9 346 26 357 61 357 c 0
 110 357 136 374 136 428 c 0xe8
 136 470 97 547 97 604 c 0xf0
EndSplineSet
EndChar

StartChar: braceright
Encoding: 125 125 94
Width: 407
Flags: W
HStem: -191 94<38.32 190.557> 270 87<284.657 392.989> 666 94<38.32 194.58>
VStem: 175 96<86.0432 256.367 370.212 516.839> 210 100<-79.5442 95.946 504.353 650.897>
LayerCount: 2
Fore
SplineSet
310 604 m 4xe8
 310 702 266 760 140 760 c 4
 65 760 4 736 4 687 c 4
 4 663 18 651 38 651 c 4
 69 651 80 666 134 666 c 4
 183 666 210 646 210 597 c 4xe8
 210 532 175 489 175 416 c 4
 175 334 234 310 234 310 c 5
 234 310 175 286 175 206 c 4xf0
 175 131 210 77 210 -11 c 4
 210 -75 183 -97 134 -97 c 4
 80 -97 69 -84 38 -84 c 4
 18 -84 4 -95 4 -118 c 4
 4 -167 65 -191 140 -191 c 4
 266 -191 310 -130 310 -26 c 4xe8
 310 58 271 122 271 199 c 4
 271 253 297 270 346 270 c 4
 380 270 398 284 398 315 c 4
 398 346 381 357 346 357 c 4
 297 357 271 374 271 428 c 4xf0
 271 470 310 547 310 604 c 4xe8
EndSplineSet
EndChar

StartChar: at
Encoding: 64 64 95
Width: 910
Flags: W
HStem: -133 96<348.853 654.411> 87 85<532.256 691.405> 438 91<534.105 692.029> 647 102<343.129 604.928>
VStem: 35 101<173.822 433.557> 384 93<227.87 380.789> 746 129<203 472> 783 39<215 470.5>
LayerCount: 2
Fore
SplineSet
477 303 m 0xfe
 477 224 528 172 616 172 c 0
 699 172 746 227 746 308 c 0
 746 383 697 438 613 438 c 0
 526 438 477 380 477 303 c 0xfe
384 309 m 0
 384 430 471 529 603 529 c 0
 733 529 822 431 822 306 c 0xfd
 822 178 735 87 606 87 c 0
 474 87 384 177 384 309 c 0
783 320 m 0
 783 510 693 647 469 647 c 4
 257 647 136 499 136 305 c 0
 136 97 264 -37 483 -37 c 0
 661 -37 704 13 757 13 c 0
 777 13 796 -5 796 -28 c 0
 796 -79 675 -133 482 -133 c 0
 217 -133 35 42 35 302 c 0
 35 548 209 749 469 749 c 0
 734 749 875 561 875 319 c 0xfe
 875 179 854 92 810 92 c 0
 783 92 768 111 768 143 c 0
 768 190 783 252 783 320 c 0
EndSplineSet
EndChar

StartChar: numbersign
Encoding: 35 35 96
Width: 696
Flags: W
HStem: -10 21G<131 169 381 419> -10 21G<131 169 381 419> 189 91<257.312 586.371> 447 91<317.312 646.371> 719 20G<275 317 525 567>
LayerCount: 2
Fore
SplineSet
591 699 m 0xb8
 591 660 573 585 510 299 c 0
 449 23 443 -10 395 -10 c 0
 367 -10 356 10 356 28 c 0
 356 57 372 108 426 351 c 0
 482 606 495 739 555 739 c 0
 579 739 591 724 591 699 c 0xb8
329 189 m 0
 44 189 9 190 9 235 c 0
 9 278 40 280 333 280 c 0
 582 280 628 279 628 236 c 0
 628 189 587 189 329 189 c 0
389 447 m 0
 104 447 69 448 69 491 c 0
 69 536 100 538 393 538 c 0
 642 538 688 538 688 493 c 0
 688 448 647 447 389 447 c 0
341 699 m 0
 341 660 323 585 260 299 c 0
 199 23 193 -10 145 -10 c 0
 117 -10 106 10 106 28 c 0
 106 57 122 108 176 351 c 0
 232 606 245 739 305 739 c 0
 329 739 341 724 341 699 c 0
EndSplineSet
EndChar

StartChar: cent
Encoding: 162 162 97
Width: 563
Flags: W
HStem: -9.99805 21G<284 322.429> -9.99805 21G<284 322.429> 100.911 92.8994<216.535 392.035> 549.101 92.8994<216.556 384.566> 719 20G<283.16 318.491>
VStem: 36.3699 100.9<273.746 460.555> 255.5 94<80.2498 590.675>
LayerCount: 2
Fore
SplineSet
255.5 339 m 0xbe
 255.5 675.028125 265.8203125 739 300.5 739 c 0
 336.481445312 739 349.5 680.951254875 349.5 335.001953125 c 0
 349.5 63.5917310393 341.357421875 -9.998046875 303.5 -9.998046875 c 0
 264.5 -9.998046875 255.5 57.7478590407 255.5 339 c 0xbe
EndSplineSet
Refer: 31 99 N 1 0 0 1 0 111 2
EndChar

StartChar: sterling
Encoding: 163 163 98
Width: 631
Flags: W
HStem: -9.99805 101<215.615 537.318> 635.442 103.558<389.107 518.96>
VStem: 9 418.998<281.342 377.797> 87.998 110.802<108.697 270.411>
LayerCount: 2
Fore
SplineSet
219 281 m 0xe0
 72.0859375 281 9 281.341796875 9 329 c 0
 9 377.796875 69.154296875 381 222.998046875 381 c 0
 369.26953125 381 427.998046875 380.84765625 427.998046875 332 c 0
 427.998046875 281 372.350585938 281 219 281 c 0xe0
533.254882812 688.001953125 m 0
 533.254882812 655.737524503 505 643 450.225585938 635.442382812 c 0
 317.501007029 617.129424547 198.799804688 462.034945316 198.799804688 157.700195312 c 0
 198.799804688 101.803710938 233.663967978 91.001953125 344.998046875 91.001953125 c 0
 437.172851562 91.001953125 497.385742188 112.283203125 534.228515625 112.283203125 c 0
 566.490234375 112.283203125 581.497070312 88.751953125 581.497070312 65.001953125 c 0
 581.497070312 15.951171875 538.848632812 -9.998046875 344.499023438 -9.998046875 c 0
 133.791314702 -9.998046875 87.998046875 36.7109375 87.998046875 125.001953125 c 0xd0
 87.998046875 578.826171875 310.919507502 739 452.998046875 739 c 0
 506.466515384 739 533.254882812 719.639157946 533.254882812 688.001953125 c 0
EndSplineSet
Validated: 5
EndChar

StartChar: yen
Encoding: 165 165 99
Width: 650
Flags: W
HStem: 110.867 92<100.811 546.881> 260.867 102.066<271.472 374.46> 293.934 58.9336<277.169 366.418> 718.998 20G<62.2354 101.254>
VStem: 269 108<10.8356 351.557>
LayerCount: 2
Fore
SplineSet
323 390.93359375 m 0xb8
 353.862671027 390.93359375 406.819454912 452.592966379 461.412109375 563.47265625 c 0
 522.66036511 687.870117188 529.033661261 742.931640625 573.692382812 742.931640625 c 0
 606.462890625 742.931640625 618.412109375 719.162109375 618.412109375 691.931640625 c 0
 618.412109375 649.896484375 569.808468354 523.271750192 485.961914062 411.931640625 c 0
 417.312732889 320.772171782 376.844726562 293.93359375 323 293.93359375 c 0
 269.420898438 293.93359375 226.251022318 316.332537143 160.450195312 411.931640625 c 0
 81.8656350553 526.103663227 32 646.553423582 32 687.998046875 c 0
 32 715.228515625 44.7509765625 738.998046875 79.7197265625 738.998046875 c 0
 122.78747509 738.998046875 129.61919332 684.586570311 188 563.47265625 c 0
 242.751496692 449.887927945 293.245643029 390.93359375 323 390.93359375 c 0xb8
269 162.93359375 m 0
 269 340.948242188 271.471679688 362.93359375 321 362.93359375 c 0xd8
 374.459960938 362.93359375 377 343.720703125 377 158.935546875 c 0
 377 44.9501953125 367.618164062 -6.064453125 324 -6.064453125 c 0
 279.3125 -6.064453125 269 42.533203125 269 162.93359375 c 0
317.500976562 110.8671875 m 0
 156.594366776 110.8671875 87.5009765625 111.180664062 87.5009765625 154.8671875 c 0
 87.5009765625 199.91015625 153.277074379 202.8671875 321.499023438 202.8671875 c 0
 490.603307424 202.8671875 558.499023438 202.727539062 558.499023438 157.8671875 c 0
 558.499023438 110.8671875 494.331077519 110.8671875 317.500976562 110.8671875 c 0
317.500976562 260.8671875 m 0
 156.594366776 260.8671875 87.5009765625 261.180664062 87.5009765625 304.8671875 c 0
 87.5009765625 349.91015625 153.277074379 352.8671875 321.499023438 352.8671875 c 0xb8
 490.603307424 352.8671875 558.499023438 352.727539062 558.499023438 307.8671875 c 0
 558.499023438 260.8671875 494.331077519 260.8671875 317.500976562 260.8671875 c 0
EndSplineSet
Validated: 5
EndChar

StartChar: brokenbar
Encoding: 166 166 100
Width: 224
Flags: W
HStem: 741 20G<85.7336 134.826>
VStem: 60 104<-175.339 226.778 344.661 746.778>
LayerCount: 2
Fore
SplineSet
60 559 m 4
 60 703.966715551 61.4672851563 761 110 761 c 0
 159.652954102 761 164 706.683742863 164 555.001953125 c 4
 164 395.290161489 164 330.001953125 113 330.001953125 c 0
 60.9375 330.001953125 60 396.697720441 60 559 c 4
60 39 m 0
 60 183.966715551 61.4672851563 241 110 241 c 0
 159.652954102 241 164 186.683742863 164 35.001953125 c 0
 164 -124.709838511 164 -189.998046875 113 -189.998046875 c 0
 60.9375 -189.998046875 60 -123.302279559 60 39 c 0
EndSplineSet
Validated: 1
EndChar

StartChar: dieresis
Encoding: 168 168 101
Width: 418
Flags: W
HStem: 615.994 122.998<49.6762 148.324 269.676 368.324>
VStem: 35 128<630.176 723.824> 255 128<630.176 723.824>
LayerCount: 2
Fore
SplineSet
255 677.9921875 m 4
 255 711.549838496 280.563198324 738.9921875 319 738.9921875 c 4
 357.108206371 738.9921875 383 711.362013657 383 675.994140625 c 4
 383 640.966287364 357.436801676 615.994140625 319 615.994140625 c 4
 280.891793629 615.994140625 255 640.970252314 255 677.9921875 c 4
35 677.9921875 m 0
 35 711.549838496 60.563198324 738.9921875 99 738.9921875 c 0
 137.108206371 738.9921875 163 711.362013657 163 675.994140625 c 0
 163 640.966287364 137.436801676 615.994140625 99 615.994140625 c 0
 60.8917936289 615.994140625 35 640.970252314 35 677.9921875 c 0
EndSplineSet
Validated: 1
EndChar

StartChar: copyright
Encoding: 169 169 102
Width: 809
Flags: W
HStem: -9.99805 85.8994<287.764 523.652> 177.184 73.4492<348.501 483.968> 478.278 73.4492<349.771 479.802> 647.101 91.8994<285.348 521.236>
VStem: 35 86.9004<240.091 480.538> 231.631 78.9502<289.845 437.271> 687.1 86.9004<241.944 482.277>
LayerCount: 2
Fore
SplineSet
413.780273438 250.6328125 m 0
 496.288212365 250.6328125 485.367953338 294.727539062 527.203125 294.727539062 c 0
 548.442654851 294.727539062 560.891601562 282.214185762 560.891601562 260.823242188 c 0
 560.891601562 220.299898252 503.630559043 177.18359375 412.130859375 177.18359375 c 0
 304.653799001 177.18359375 231.630859375 251.554829451 231.630859375 361.727539062 c 0
 231.630859375 466.251370032 303.127929688 551.727539062 410.630859375 551.727539062 c 0
 501.940310541 551.727539062 559.391601562 505.435928022 559.391601562 463.087890625 c 0
 559.391601562 441.696947051 546.942654851 429.18359375 525.703125 429.18359375 c 0
 483.867953338 429.18359375 494.788212365 478.278320312 412.280273438 478.278320312 c 0
 347.513500945 478.278320312 310.581054688 428.245633543 310.581054688 362.677734375 c 0
 310.581054688 295.079013713 348.560087401 250.6328125 413.780273438 250.6328125 c 0
121.900390625 360.900390625 m 0
 121.900390625 188.247562947 226.59956909 75.9013671875 405.700195312 75.9013671875 c 0
 584.908374629 75.9013671875 687.099609375 194.773366488 687.099609375 367.301757812 c 0
 687.099609375 529.326662396 582.40043091 647.100585938 403.299804688 647.100585938 c 0
 224.091625371 647.100585938 121.900390625 523.231276718 121.900390625 360.900390625 c 0
35 359 m 0
 35 568.047661939 181.988390363 739 403 739 c 0
 623.908508807 739 774 575.846200568 774 367.001953125 c 0
 774 146.910275136 627.011609637 -9.998046875 406 -9.998046875 c 0
 185.091491193 -9.998046875 35 138.65399777 35 359 c 0
EndSplineSet
Validated: 1
EndChar

StartChar: registered
Encoding: 174 174 103
Width: 809
Flags: W
HStem: -9.99805 85.8994<287.764 523.652> 315.092 55.1094<329.789 429.161> 488.801 62.9492<331.887 467.33> 647.101 91.8994<285.348 521.236>
VStem: 35 86.9004<240.091 480.538> 250.283 75<209.569 480.323> 485.333 75.9502<385.189 470.822> 687.1 86.9004<241.944 482.277>
LayerCount: 2
Fore
SplineSet
329.283203125 381.75 m 4
 334.145901437 371.250443918 355.914182363 370.201171875 400.1328125 370.201171875 c 4
 463.317469212 370.201171875 485.333007812 393.942984855 485.333007812 428.401367188 c 4
 485.333007812 468.029351803 447.710999206 488.80078125 398.932617188 488.80078125 c 4
 359.1179951 488.80078125 350.956072186 482.53277983 339.283203125 476.25 c 4
 328.023466164 470.189583499 325.283203125 451.128999799 325.283203125 424.251953125 c 4
 325.283203125 409.663623649 326.813642574 387.082284227 329.283203125 381.75 c 4
483.494140625 327.474609375 m 5
 529.2819842 298.686958563 569.848632812 243.868667802 569.848632812 209.251953125 c 4
 569.848632812 189.273334704 558.852149129 177.251953125 535.283203125 177.251953125 c 4
 515.052800373 177.251953125 503.214100341 194.005950751 485.283203125 222.75 c 4
 445.68997713 286.219754146 426.017897003 315.091796875 353.283203125 315.091796875 c 6
 329.637695312 315.091796875 l 5
 331.663314527 250.543817879 341.348632812 226.071792406 341.348632812 208.751953125 c 4
 341.348632812 190.230955162 331.750883121 177.251953125 305.783203125 177.251953125 c 4
 258.531433932 177.251953125 250.283203125 245.637235184 250.283203125 364.75 c 4
 250.283203125 452.827238868 255.988333515 492.537850564 285.783203125 521.25 c 4
 310.745002685 545.304709033 343.034732329 551.75 400.783203125 551.75 c 4
 496.351439415 551.75 561.283203125 497.58526516 561.283203125 428.251953125 c 4
 561.283203125 382.831190751 534.781189575 342.36217863 483.494140625 327.474609375 c 5
121.900390625 360.900390625 m 0
 121.900390625 188.247562947 226.59956909 75.9013671875 405.700195312 75.9013671875 c 0
 584.908374629 75.9013671875 687.099609375 194.773366488 687.099609375 367.301757812 c 0
 687.099609375 529.326662396 582.40043091 647.100585938 403.299804688 647.100585938 c 0
 224.091625371 647.100585938 121.900390625 523.231276718 121.900390625 360.900390625 c 0
35 359 m 0
 35 568.047661939 181.988390363 739 403 739 c 0
 623.908508807 739 774 575.846200568 774 367.001953125 c 0
 774 146.910275136 627.011609637 -9.998046875 406 -9.998046875 c 0
 185.091491193 -9.998046875 35 138.65399777 35 359 c 0
EndSplineSet
Validated: 1
EndChar

StartChar: uni2117
Encoding: 8471 8471 104
Width: 809
Flags: W
HStem: -9.99805 85.8994<287.764 523.652> 295.501 61.7002<339.363 475.218> 488.801 62.9492<339.28 474.185> 647.101 91.8994<285.348 521.236>
VStem: 35 86.9004<240.091 480.538> 259.283 74<279.542 482.61> 493.55 71.9502<375.561 469.602> 687.1 86.9004<241.944 482.277>
LayerCount: 2
Fore
SplineSet
35 359 m 0
 35 568.047661939 181.988390363 739 403 739 c 0
 623.908508807 739 774 575.846200568 774 367.001953125 c 0
 774 146.910275136 627.011609637 -9.998046875 406 -9.998046875 c 0
 185.091491193 -9.998046875 35 138.65399777 35 359 c 0
121.900390625 360.900390625 m 0
 121.900390625 188.247562947 226.59956909 75.9013671875 405.700195312 75.9013671875 c 0
 584.908374629 75.9013671875 687.099609375 194.773366488 687.099609375 367.301757812 c 0
 687.099609375 529.326662396 582.40043091 647.100585938 403.299804688 647.100585938 c 0
 224.091625371 647.100585938 121.900390625 523.231276718 121.900390625 360.900390625 c 0
409.1328125 357.201171875 m 0
 462.170014644 357.201171875 493.549804688 380.002486569 493.549804688 422.901367188 c 4
 493.549804688 466.137895342 456.541061336 488.80078125 407.932617188 488.80078125 c 0
 384.910063023 488.80078125 359.286322866 487.320024231 349.283203125 480.25 c 0
 336.414932312 471.723380104 333.283203125 453.196542585 333.283203125 424.251953125 c 0
 333.283203125 409.663623649 333.748899757 390.184402346 336.283203125 381.75 c 0
 342.831232657 359.957535711 363.665943155 357.201171875 409.1328125 357.201171875 c 0
339.280273438 300.013671875 m 1
 342.18542777 246.581311556 350.348632812 224.652579878 350.348632812 208.751953125 c 0
 350.348632812 190.230955162 340.750883121 177.251953125 314.783203125 177.251953125 c 0
 267.531433932 177.251953125 259.283203125 245.637235184 259.283203125 364.75 c 0
 259.283203125 452.827238868 265.633667595 491.882903469 294.783203125 521.25 c 0
 318.659707052 545.304709033 349.545535407 551.75 404.783203125 551.75 c 0
 500.571052531 551.75 565.5 494.295856772 565.5 420.751953125 c 4
 565.5 347.630739328 512.222418961 295.500976562 410.75 295.500976562 c 0
 363.999940044 295.500976562 339.280273438 300.013671875 339.280273438 300.013671875 c 1
EndSplineSet
Validated: 1
EndChar

StartChar: plusminus
Encoding: 177 177 105
Width: 450
Flags: W
HStem: 152.934 92.3564<52.9858 183.161 268.363 396.288> 167.435 71.499<135.506 320.184> 336.934 92<40.9953 411.341>
VStem: 179.499 92<242.643 548.776>
LayerCount: 2
Fore
SplineSet
220 152.93359375 m 0xb0
 87.0774931066 152.93359375 30 169.145901192 30 206.93359375 c 0
 30 235.488729517 55.1614362616 245.290039062 86.935546875 245.290039062 c 0xb0
 121.328749273 245.290039062 166.498198895 238.93359375 223.998046875 238.93359375 c 0x70
 286.700584093 238.93359375 335.056516596 247.412109375 370.87109375 247.412109375 c 0
 406.904404235 247.412109375 420.998046875 236.094086039 420.998046875 209.93359375 c 0
 420.998046875 168.818839652 367.480683748 152.93359375 220 152.93359375 c 0xb0
271.499023438 357.434570312 m 0
 271.499023438 224.51171875 271.185546875 167.434570312 227.499023438 167.434570312 c 0x70
 182.456054688 167.434570312 179.499023438 221.966796875 179.499023438 361.432617188 c 0
 179.499023438 501.99609375 179.638671875 558.432617188 224.499023438 558.432617188 c 0
 271.499023438 558.432617188 271.499023438 504.915039062 271.499023438 357.434570312 c 0
220 336.93359375 m 0
 87.0774931066 336.93359375 30 337.247070312 30 380.93359375 c 0
 30 425.9765625 84.5320763955 428.93359375 223.998046875 428.93359375 c 0
 364.561248945 428.93359375 420.998046875 428.793945312 420.998046875 383.93359375 c 0
 420.998046875 336.93359375 367.480683748 336.93359375 220 336.93359375 c 0
EndSplineSet
Validated: 5
EndChar

StartChar: mu
Encoding: 181 181 106
Width: 588
Flags: W
HStem: -9.99805 88.8994<212.673 377.047> -9.99805 21G<466.844 514.202> 511 20G<91.7586 138.607 466.073 506.109>
VStem: 62.2901 85<27.5021 374.407> 453.007 101.479<148.178 297.33> 454.725 51.8682<119.262 343.911>
LayerCount: 2
Fore
SplineSet
51.9083969466 200.843638111 m 0x30
 51.9083969466 427.85765073 61.919519946 531 121.597648833 531 c 0
 155.616710807 531 168.190302959 503.952391854 168.190302959 459.002847503 c 0
 168.190302959 426.316885942 147.290076336 361.116427087 147.290076336 201.870160012 c 0
 147.290076336 -19.1867576224 174.419310592 -97.0908995368 174.419310592 -140.628570877 c 0
 174.419310592 -171.451347365 161.828358334 -189.998046875 127.762266842 -189.998046875 c 0
 73.9551708507 -189.998046875 51.9083969466 -15.4352217726 51.9083969466 200.843638111 c 0x30
554.485409829 261.019156442 m 0x78
 554.485409829 99.2324463851 544.365415281 -9.998046875 484.038283258 -9.998046875 c 0
 449.649245631 -9.998046875 436.938931298 10.2870222151 436.938931298 43.9981218366 c 0
 436.938931298 71.4535430331 454.724654104 126.220390234 454.724654104 259.982796683 c 0x74
 454.724654104 392.457830828 434.86259542 436.313534234 434.86259542 473.888667709 c 0
 434.86259542 509.544638463 448.127407243 531 484.018024697 531 c 0
 528.200385273 531 554.485409829 453.655315202 554.485409829 261.019156442 c 0x78
453.00675265 268.068601245 m 0xb8
 453.00675265 297.329861636 466.842376722 305.123872889 479.884484095 305.123872889 c 0
 493.573907504 305.123872889 506.592824427 295.363713824 506.592824427 268.855860096 c 0xb4
 506.592824427 112.303997987 428.285273156 -9.998046875 290.220296072 -9.998046875 c 0
 143.408355564 -9.998046875 62.2900763359 100.54962138 62.2900763359 258.703383683 c 0
 62.2900763359 296.335491498 73.8541789 321.74285467 103.290076336 321.74285467 c 4
 131.98572851 321.74285467 147.290076336 298.724568684 147.290076336 250.595425258 c 0
 147.290076336 142.55416282 199.145547042 78.901367983 290.081742672 78.901367983 c 0
 392.900131326 78.901367983 453.00675265 148.177948601 453.00675265 268.068601245 c 0xb8
EndSplineSet
EndChar

StartChar: degree
Encoding: 176 176 109
Width: 399
Flags: W
HStem: 409.994 75.8994<140.693 257.244> 657.093 81.8994<142.453 258.307>
VStem: 35 81.9004<510.051 630.83> 282.1 81.9004<511.547 632.279>
LayerCount: 2
Fore
SplineSet
116.900390625 568.892578125 m 0
 116.900390625 518.611647622 147.815742085 485.893554688 200.700195312 485.893554688 c 0
 252.539112036 485.893554688 282.099609375 522.362974475 282.099609375 575.293945312 c 0
 282.099609375 622.661718118 251.184257915 657.092773438 198.299804688 657.092773438 c 0
 146.460887964 657.092773438 116.900390625 618.919154253 116.900390625 568.892578125 c 0
35 566.9921875 m 0
 35 661.613760799 100.106270732 738.9921875 198 738.9921875 c 0
 296.843160275 738.9921875 364 667.064647364 364 574.994140625 c 0
 364 478.667544158 298.893729268 409.994140625 201 409.994140625 c 0
 102.156839725 409.994140625 35 473.241306486 35 566.9921875 c 0
EndSplineSet
Validated: 1
EndChar

StartChar: multiply
Encoding: 215 215 112
Width: 450
Flags: W
VStem: 61.4004 327.199<210.516 266.372>
LayerCount: 2
Fore
SplineSet
378.599609375 486 m 0
 378.599609375 468.765625 366.041383081 447.294774348 274.431640625 354 c 4
 167.374439525 244.973632812 151.958266074 190.001953125 110.400390625 190.001953125 c 0
 87.580078125 190.001953125 61.400390625 210.515625 61.400390625 240 c 0
 61.400390625 268.633789062 109.24043695 294.404421121 201.115234375 390 c 4
 301.525994729 494.47723457 301.203184691 531 332.599609375 531 c 0
 364.055664062 531 378.599609375 509.319335938 378.599609375 486 c 0
71.400390625 488 m 0
 71.400390625 510.283203125 90.376953125 531 113.400390625 531 c 0
 149.390625 531 148.924512826 496.127705618 252.884765625 390 c 4
 343.08077856 297.923502964 388.599609375 266.372243374 388.599609375 236 c 0
 388.599609375 208.874023438 361.859375 190.001953125 344.599609375 190.001953125 c 0
 303.171875 190.001953125 290.109142769 251.236978234 171.568359375 362 c 4
 81.2451171875 446.396905048 71.400390625 471.548632813 71.400390625 488 c 0
EndSplineSet
Validated: 5
EndChar

StartChar: macron
Encoding: 175 175 113
Width: 410
Flags: W
HStem: 652.992 86<50.5662 329.413>
LayerCount: 2
Fore
SplineSet
200 738.9921875 m 4
 332.805846252 738.9921875 380.998046875 723.106941598 380.998046875 681.9921875 c 0
 380.998046875 655.831695211 366.904404235 644.513671875 330.87109375 644.513671875 c 0
 299.93346004 644.513671875 258.162252717 652.9921875 203.998046875 652.9921875 c 4
 150.693354242 652.9921875 108.819441301 646.635742188 76.935546875 646.635742188 c 0
 50.7421520635 646.635742188 30 656.437051733 30 684.9921875 c 0
 30 722.779880058 81.0693359375 738.9921875 200 738.9921875 c 4
EndSplineSet
Validated: 1
EndChar

StartChar: acute
Encoding: 180 180 114
Width: 258
Flags: W
HStem: 517.994 220.998<140.104 142.976>
VStem: 32 194<547.992 697.994>
LayerCount: 2
Fore
SplineSet
32 547.9921875 m 0
 32 577.091796875 63.4462890625 584.017578125 85.63671875 607.22265625 c 4
 153.506835938 678.1953125 140.104492188 738.9921875 188 738.9921875 c 4
 210.626953125 738.9921875 226 721.010742188 226 697.994140625 c 0
 226 635.263671875 142.975585938 517.994140625 67 517.994140625 c 0
 46.1591796875 517.994140625 32 531.493164062 32 547.9921875 c 0
EndSplineSet
Validated: 1
EndChar

StartChar: divide
Encoding: 247 247 115
Width: 450
Flags: W
HStem: 153.936 122.998<175.676 274.324> 316.934 92<40.9953 411.341> 448.934 122.998<175.676 274.324>
VStem: 161 128<168.117 261.765 463.115 556.763>
CounterMasks: 1 e0
LayerCount: 2
Fore
SplineSet
220 316.93359375 m 4
 87.0774931066 316.93359375 30 317.247070312 30 360.93359375 c 4
 30 405.9765625 84.5320763955 408.93359375 223.998046875 408.93359375 c 4
 364.561248945 408.93359375 420.998046875 408.793945312 420.998046875 363.93359375 c 4
 420.998046875 316.93359375 367.480683748 316.93359375 220 316.93359375 c 4
161 510.931640625 m 4
 161 544.489257812 186.563476562 571.931640625 225 571.931640625 c 4
 263.108398438 571.931640625 289 544.301757812 289 508.93359375 c 4
 289 473.905273438 263.436523438 448.93359375 225 448.93359375 c 4
 186.891601562 448.93359375 161 473.91015625 161 510.931640625 c 4
161 215.93359375 m 0
 161 249.491210938 186.563476562 276.93359375 225 276.93359375 c 0
 263.108398438 276.93359375 289 249.303710938 289 213.935546875 c 0
 289 178.907226562 263.436523438 153.935546875 225 153.935546875 c 0
 186.891601562 153.935546875 161 178.912109375 161 215.93359375 c 0
EndSplineSet
Validated: 1
EndChar

StartChar: minus
Encoding: 8722 8722 116
Width: 450
Flags: W
HStem: 316.934 92<40.9953 411.341>
LayerCount: 2
Fore
SplineSet
220 316.93359375 m 4
 87.0774931066 316.93359375 30 317.247070312 30 360.93359375 c 4
 30 405.9765625 84.5320763955 408.93359375 223.998046875 408.93359375 c 4
 364.561248945 408.93359375 420.998046875 408.793945312 420.998046875 363.93359375 c 4
 420.998046875 316.93359375 367.480683748 316.93359375 220 316.93359375 c 4
EndSplineSet
Validated: 1
EndChar

StartChar: logicalnot
Encoding: 172 172 117
Width: 450
Flags: W
HStem: 339.25 90<62.3496 326.614>
VStem: 332.5 97<204.411 329.621>
LayerCount: 2
Fore
SplineSet
224.5 429.25 m 0
 88.2684502423 429.25 10.5 412.305573219 10.5 363.25 c 0
 10.5 329.56640625 30.78515625 317.1171875 58 317.1171875 c 0
 83.5163908122 317.1171875 118.337867131 339.25 216.498046875 339.25 c 0
 261.468474201 339.25 284.226125203 337.2883964 303.5 332.25 c 0
 326.035100673 326.35908438 332.5 318.9056875 332.5 286.25 c 0
 332.5 253.011480365 329.21875 242.710410371 329.21875 226 c 0
 329.21875 199.392578125 346.260791642 183.75 371.5 183.75 c 0
 409.432158321 183.75 429.5 226.746599455 429.5 318.749023438 c 0
 429.5 358.948768674 416.521961705 382.366101851 392 399 c 0
 357.109935079 424.079804779 318.767772243 429.25 224.5 429.25 c 0
EndSplineSet
Validated: 9
EndChar

StartChar: longs
Encoding: 383 383 118
Width: 324
Flags: W
HStem: -9.99805 21G<97.6603 148.841> -9.99805 21G<97.6603 148.841> 675.002 85.998<209.588 293.768>
VStem: 50 102<127.34 601.768>
AnchorPoint: "Anchor-2" 140.134 0 basechar 0
AnchorPoint: "Anchor-0" 250.134 751.031 basechar 0
LayerCount: 2
Fore
SplineSet
50 390.001953125 m 0xb0
 50 702.88671875 142.01171875 761 242 761 c 0
 283.713867188 761 299.131835938 740.989257812 299.131835938 719.001953125 c 0
 299.131835938 690.369140625 283.710117663 681.453868228 259.30859375 675.001953125 c 0
 186.603679271 655.778320312 152 634.524414062 152 391 c 0
 152 163.166992188 178.131835938 82.8740234375 178.131835938 38.001953125 c 0
 178.131835938 8.0341796875 165.682617188 -9.998046875 132 -9.998046875 c 0
 63.320688101 -9.998046875 50 168.655273438 50 390.001953125 c 0xb0
EndSplineSet
EndChar

StartChar: kgreenlandic
Encoding: 312 312 119
Width: 557
Flags: W
HStem: -9.99805 21G<91.6424 139.757 464.365 492.792> -9.99805 21G<91.6424 139.757 464.365 492.792> 213.501 102<158.26 307.98> 511 20G<106.581 148.11 452.828 485.549>
VStem: 51.9569 124.997<33.0949 202.87 319.263 456.566> 74.458 79.499<129.578 390.911>
LayerCount: 2
Fore
SplineSet
51.9569471624 261.019156442 m 0xb8
 51.9569471624 422.504010193 81.6364253001 531 131.525751199 531 c 0
 164.694726672 531 176.953703399 510.715357879 176.954101562 486 c 4xb8
 176.953738459 449.416780217 153.95703125 399.958121067 153.95703125 259.982421875 c 4xb4
 153.95703125 126.219933575 171.7578125 71.4529774321 171.7578125 43.998046875 c 4
 171.7578125 10.2865670857 158.156841856 -9.998046875 121.35804373 -9.998046875 c 0
 61.9268083199 -9.998046875 51.9569471624 99.2326634674 51.9569471624 261.019156442 c 0xb8
210.735351562 213.500976562 m 0
 95.2726761136 213.500976562 74.4580078125 213.850244635 74.4580078125 262.500976562 c 0xb4
 74.4580078125 312.235669089 97.3584671935 315.500976562 214.840820312 315.500976562 c 0
 305.524411829 315.500976562 336.130928657 351.475867688 380.517578125 419 c 0
 417.678350443 475.531613378 432.235862937 531 473.419921875 531 c 0
 497.678309316 531 516.91015625 512.967927632 516.91015625 483 c 0
 516.91015625 415.949275554 426.67632239 293.261566844 341.158203125 269.001953125 c 1
 438.655779591 238.220421007 527.301379419 95.8912405608 527.301379419 34.001953125 c 0
 527.301379419 6.53135279607 503.843467762 -9.998046875 481.739575763 -9.998046875 c 0
 446.989765256 -9.998046875 430.03428005 24.8005833114 408.523710182 66.0439453125 c 0
 350.004553191 178.245843761 304.038470863 213.500976562 210.735351562 213.500976562 c 0
EndSplineSet
EndChar

StartChar: florin
Encoding: 402 402 120
Width: 388
Flags: W
HStem: -190.064 85.998<-16.3222 69.9868> 438.934 92<20.4885 369.872> 675.002 85.998<271.152 357.23>
VStem: 114.335 102<-54.5712 614.693>
LayerCount: 2
Fore
SplineSet
185.026367188 438.93359375 m 4
 62.8464255613 438.93359375 10.3818359375 439.247070312 10.3818359375 482.93359375 c 4
 10.3818359375 527.9765625 60.6282962533 530.93359375 189.133789062 530.93359375 c 4
 324.741380146 530.93359375 379.188476562 530.793945312 379.188476562 485.93359375 c 4
 379.188476562 438.93359375 327.491237338 438.93359375 185.026367188 438.93359375 c 4
216.335347388 70.93359375 m 0
 216.335347388 -129.893310405 130.180794429 -190.064453125 36.556855643 -190.064453125 c 0
 -6.05283054862 -190.064453125 -21.8015267176 -170.053228164 -21.8015267176 -148.06640625 c 0
 -21.8015267176 -119.433875943 -6.11964430035 -109.171921133 19.5416865458 -104.06640625 c 0
 83.7670962569 -91.2882776665 114.335341126 -57.0133173987 114.335341126 69.935546875 c 0
 114.335341126 124.403543486 107.967437977 290.801241913 107.967437977 390.001953125 c 0
 107.967437977 702.88671875 202.053206993 761 304.295339429 761 c 0
 346.949485294 761 362.714992843 740.989257812 362.714992843 719.001953125 c 0
 362.714992843 690.369140625 346.787748738 681.236328125 321.435147452 675.001953125 c 0
 246.070926357 655.778320312 210.201558325 634.524414062 210.201558325 391 c 0
 210.201558325 334.467448612 216.335347388 164.869794447 216.335347388 70.93359375 c 0
EndSplineSet
EndChar

StartChar: Thorn
Encoding: 222 222 121
Width: 629
Flags: W
HStem: -9.99805 21G<100.064 158.937> -9.99805 21G<100.064 158.937> 159.501 95.4004<184.296 429.417> 490.101 101.899<195.27 420.76> 719 20G<103.323 158.937>
VStem: 52.5811 109.419<187.509 549.374> 482.1 111.9<303.221 433.476>
LayerCount: 2
Fore
SplineSet
182 279 m 0x3e
 199.501361085 258.900225726 234.510564753 254.901367188 321.700195312 254.901367188 c 0
 440.652761995 254.901367188 482.099609375 301.977059585 482.099609375 370.301757812 c 4
 482.099609375 448.901628218 411.210396852 490.100585938 319.299804688 490.100585938 c 0
 232.995136981 490.100585938 212.495563073 481.404319166 190 465 c 0
 167.480526077 448.578244453 162 417.655741837 162 367.001953125 c 0
 162 336.796247448 164.404025795 299.20843453 182 279 c 0x3e
171.368164062 172.635742188 m 1
 173.562002679 122.248295553 190.131835938 76.0528513782 190.131835938 45.001953125 c 0
 190.131835938 10.6637027138 176.873031887 -9.998046875 141 -9.998046875 c 0xbe
 59.1288624872 -9.998046875 52.5810546875 204.997907413 52.5810546875 370.826171875 c 0
 52.5810546875 580.579515901 65.6464967641 739 141 739 c 0
 176.873031887 739 190.131835938 718.338250411 190.131835938 684 c 0
 190.131835938 644.975747248 173.642599513 615.32779689 171.384765625 577.008789062 c 1
 171.384765625 577.008789062 218.062705217 592 323 592 c 0
 484.364436353 592 594 494.63436833 594 370.001953125 c 4
 594 247.11199782 504.659255245 159.500976562 334.500976562 159.500976562 c 0
 216.418384641 159.500976562 171.368164062 172.635742188 171.368164062 172.635742188 c 1
EndSplineSet
Validated: 1
EndChar

StartChar: thorn
Encoding: 254 254 122
Width: 615
Flags: W
HStem: -9.99805 91.8994<231.744 408.166> 413.101 97.8994<233.516 404.979>
VStem: 50 108.032<36.0765 399.246> 90.1318 54.8682<37.353 451.29> 481.231 97.9004<156.985 335.792>
LayerCount: 2
Fore
SplineSet
50 190.001953125 m 0xe8
 50 575.741658288 72.7851845562 751 139 751 c 0
 170.4921875 751 182.131835938 731.46484375 182.131835938 699 c 0
 182.131835938 634.424513177 145 505.612290112 145 191 c 0xd8
 145 -23.9249476908 171.131835938 -99.6680812016 171.131835938 -141.998046875 c 0
 171.131835938 -171.965820312 158.682617188 -189.998046875 125 -189.998046875 c 0
 71.7985983456 -189.998046875 50 -20.2774769176 50 190.001953125 c 0xe8
481.231445312 244.900390625 m 0
 481.231445312 340.301965652 422.981959372 413.100585938 320.83203125 413.100585938 c 0
 218.091879865 413.100585938 158.032226562 344.996002032 158.032226562 251.301757812 c 0xe8
 158.032226562 151.005764596 216.281712503 81.9013671875 318.431640625 81.9013671875 c 0
 421.17179201 81.9013671875 481.231445312 146.154908466 481.231445312 244.900390625 c 0
579.131835938 243 m 0
 579.131835938 91.9228515625 481.6328125 -9.998046875 338.131835938 -9.998046875 c 0
 189.189453125 -9.998046875 90.1318359375 98.630859375 90.1318359375 251.001953125 c 0xd8
 90.1318359375 396.967773438 187.630859375 511 331.131835938 511 c 0
 480.07421875 511 579.131835938 390.43359375 579.131835938 243 c 0
EndSplineSet
Validated: 5
EndChar

StartChar: Oslash
Encoding: 216 216 123
Width: 789
Flags: W
HStem: -10 101<285.477 495.34> 633 106<285.66 492.692>
VStem: 35 110<240.354 480.556> 636 110<242.315 486.953>
AnchorPoint: "Anchor-0" 393 731.008 basechar 0
AnchorPoint: "Anchor-2" 396 0 basechar 0
AnchorPoint: "Anchor-3" 384 0 basechar 0
LayerCount: 2
Fore
SplineSet
456.118164062 360.932617188 m 0
 228.750976562 -6.025390625 206.25 -82.19921875 151.303710938 -82.19921875 c 0
 128.2421875 -82.19921875 100.25 -62.095703125 100.25 -31.3369140625 c 0
 100.25 0 119.978515625 0 386.051757812 426.08984375 c 0
 536.868164062 667.606445312 589.833984375 796.44921875 645.823242188 796.44921875 c 0
 666.853515625 796.44921875 688.75 779.698242188 688.75 752.642578125 c 0
 688.75 714 658.938476562 688.272460938 456.118164062 360.932617188 c 0
EndSplineSet
Refer: 1 79 N 1 0 0 1 0 0 2
EndChar

StartChar: oslash
Encoding: 248 248 124
Width: 601
Flags: W
HStem: -9.99805 89.8994<213.903 387.474> 438.101 92.8994<216.759 385.348>
VStem: 36.3701 99.9004<162.04 349.727> 467.963 99.9004<164.218 354.953>
AnchorPoint: "Anchor-0" 294 501.029 basechar 0
AnchorPoint: "Anchor-2" 297 0 basechar 0
AnchorPoint: "Anchor-3" 291 0 basechar 0
LayerCount: 2
Fore
SplineSet
349.956054688 256.551757812 m 0
 153.41015625 6.033203125 141.469726562 -52.2666015625 95.623046875 -52.2666015625 c 0
 74.8681640625 -52.2666015625 49.6748046875 -34.173828125 49.6748046875 -6.4912109375 c 0
 49.6748046875 15.546875 62.8032130679 19.1829940967 286.896484375 315.193359375 c 0
 407.020507812 473.868164062 454.611328125 558.516601562 500.69140625 558.516601562 c 0
 519.618164062 558.516601562 539.325195312 543.440429688 539.325195312 519.090820312 c 0
 539.325195312 493.19140625 512.236503862 463.395369937 349.956054688 256.551757812 c 0
EndSplineSet
Refer: 26 111 N 1 0 0 1 0 0 2
EndChar

StartChar: uni018F
Encoding: 399 399 125
Width: 723
Flags: W
HStem: -10 104<225.387 444.954> 352 90<195.743 529.586> 635 104<215.028 449.513>
VStem: 29 108<170.781 304.277> 563 125<224.67 436.683>
LayerCount: 2
Fore
SplineSet
563 292 m 0
 563 167 464 94 338 94 c 0
 216 94 137 151 137 241 c 0
 137 317 193 352 328 352 c 0
 435 352 563 348 563 292 c 0
573 414 m 1
 573 414 489 442 334 442 c 0
 185 442 29 417 29 236 c 0
 29 137 116 -10 336 -10 c 0
 563 -10 688 151 688 370 c 0
 688 590 547 739 341 739 c 0
 166 739 58 652 58 602 c 0
 58 572 75 555 105 555 c 0
 169 555 167 635 339 635 c 0
 470 635 564 561 573 414 c 1
EndSplineSet
EndChar

StartChar: fraction
Encoding: 8260 8260 130
Width: 203
Flags: W
HStem: -10 21G<-167.895 -134.67> -10 21G<-167.895 -134.67> 719 20G<338.18 376.39>
LayerCount: 2
Fore
SplineSet
400.959960938 704 m 0xa0
 400.959960938 658.616477273 312.109765499 566.581641691 146.099609375 349 c 4
 -49.0078707686 93.2818751158 -113.600256189 -10 -155.740234375 -10 c 0
 -180.049303886 -10 -196.959960938 8.37837837838 -196.959960938 24 c 4
 -196.959960938 68.3529411765 -113.58211713 149.634141951 77.5 401 c 4
 250.059793622 628 311.719713231 739 364.639648438 739 c 0
 388.141027114 739 400.959960938 721.5 400.959960938 704 c 0xa0
EndSplineSet
EndChar

StartChar: AE
Encoding: 198 198 132
Width: 1036
Flags: W
HStem: -10 98<600.219 944.641> -10 21G<60 98> 218 91<232.971 476.756> 315 99<587.902 884.625> 637 102<598.628 948.063>
VStem: 32 123<46.3947 138.732> 480 87<218 308> 499 87<213.897 514.698>
AnchorPoint: "Anchor-0" 553 731 basechar 0
AnchorPoint: "Anchor-2" 553 0 basechar 0
LayerCount: 2
Fore
SplineSet
668 315 m 0x3d
 518 315 499 316 499 363 c 0
 499 411 515 414 672 414 c 0
 846 414 895 413 895 365 c 0
 895 315 850 315 668 315 c 0x3d
358 218 m 0
 180 218 159 219 159 262 c 0
 159 307 177 309 362 309 c 0
 535 309 567 308 567 264 c 0x3e
 567 218 538 218 358 218 c 0
586 365 m 0x7d
 586 241 590 158 594 125 c 0
 599 89 630 88 719 88 c 0
 851 88 905 110 958 110 c 0
 992 110 1007 90 1007 69 c 0
 1007 17 941 -10 679 -10 c 0
 599 -10 550 -5 519 38 c 0
 486 84 480 183 480 367 c 0xbe
 480 477 482 559 489 623 c 1
 489 623 389 601 267 363 c 0
 249 328 195 222 155 110 c 0
 123 16 120 -10 76 -10 c 0
 44 -10 32 18 32 51 c 0
 32 124 139 361 223 487 c 0
 336 656 414 739 596 739 c 2
 680 739 l 6
 947 739 1007 718 1007 668 c 0
 1007 645 992 621 960 621 c 0
 902 621 843 637 699 637 c 0
 630 637 600 636 594 601 c 0
 589 571 586 487 586 365 c 0x7d
EndSplineSet
EndChar

StartChar: ae
Encoding: 230 230 133
Width: 890
Flags: W
HStem: -10.0889 90.8994<566.741 751.32> -9.99805 76.8994<174.186 336.431> 201.49 79<515.949 755.013> 268.101 72.8994<173.095 333.403> 444.101 86.8994<556.185 728.752> 447.458 83.542<161.215 330.145>
VStem: 35 97.9004<107.29 228.697> 386.37 109.739<149.149 224.2 224.92 378.546> 774.869 97.5225<302.254 403.017>
AnchorPoint: "Anchor-0" 436 501.029 basechar 0
AnchorPoint: "Anchor-2" 425 0 basechar 0
LayerCount: 2
Back
SplineSet
484.131835938 271 m 0xf0
 484.131835938 103.255340325 474.219594576 -9.998046875 415.131835938 -9.998046875 c 0
 383.63963345 -9.998046875 372 9.53669819081 372 42.001953125 c 0
 372 70.9842541225 389.131835938 128.798001069 389.131835938 270.001953125 c 0xe8
 389.131835938 429.377176372 312.075364014 447.458007812 245.998046875 447.458007812 c 0
 168.918437519 447.458007812 155.551332146 410.900390625 119.038085938 410.900390625 c 0
 93.9659852393 410.900390625 77 423.458118229 77 451 c 0
 77 500.946546054 152.372354295 531 245.131835938 531 c 0
 394.983892081 531 484.131835938 446.514966995 484.131835938 271 c 0xf0
132.900390625 169.900390625 m 0
 132.900390625 107.503430698 178.203588351 66.9013671875 255.700195312 66.9013671875 c 0
 332.376118242 66.9013671875 376.099609375 107.450122595 376.099609375 166.301757812 c 0xf0
 376.099609375 225.251059081 330.796411649 268.100585938 253.299804688 268.100585938 c 0
 176.623881758 268.100585938 132.900390625 225.598901599 132.900390625 169.900390625 c 0
35 163 m 0
 35 260.922325856 114.086144815 341 233 341 c 0
 371.683585634 341 434 275.212688855 434 191.001953125 c 0xe8
 434 73.6586447011 354.913855185 -9.998046875 236 -9.998046875 c 0
 116.316414366 -9.998046875 35 59.6947702154 35 163 c 0
EndSplineSet
Fore
SplineSet
471.131835938 281 m 4x0780
 471.131835938 202.79937535 464.092708013 150.001953125 422.131835938 150.001953125 c 4
 390.63963345 150.001953125 379 169.536698191 379 202.001953125 c 4
 379 211.916950835 383.131835938 231.695337948 383.131835938 280.001953125 c 4
 383.131835938 430.39606702 309.305480638 447.458007812 245.998046875 447.458007812 c 0
 168.918437519 447.458007812 155.551332146 410.900390625 119.038085938 410.900390625 c 0
 93.9659852393 410.900390625 77 423.458118229 77 451 c 0
 77 500.946546054 152.372354295 531 245.131835938 531 c 0
 386.83294342 531 471.131835938 449.764391341 471.131835938 281 c 4x0780
132.900390625 169.900390625 m 4
 132.900390625 107.503430698 178.203588351 66.9013671875 255.700195312 66.9013671875 c 0
 332.376118242 66.9013671875 376.099609375 107.450122595 376.099609375 166.301757812 c 4
 376.099609375 225.251059081 330.796411649 268.100585938 253.299804688 268.100585938 c 0x5380
 176.623881758 268.100585938 132.900390625 225.598901599 132.900390625 169.900390625 c 4
35 163 m 4
 35 260.922325856 108.080394553 341 243 341 c 0
 379.233433604 341 455 250.96854976 455 177.001953125 c 4
 455 67.831810462 371.520180472 -9.998046875 246 -9.998046875 c 0
 120.36200712 -9.998046875 35 59.6947702154 35 163 c 4
EndSplineSet
Refer: 32 101 N 1 0 0 1 350 0 2
EndChar

StartChar: Eth
Encoding: 208 208 136
Width: 821
Flags: W
HStem: -10 104<256.371 508.504> 301.934 102<23.2274 406.418> 635 104<255.609 506.51>
VStem: 112 108<133.717 593.665> 660 108<250.17 479.617>
LayerCount: 2
Fore
SplineSet
190 301.93359375 m 4
 64.0734145221 301.93359375 10 302.282692649 10 350.93359375 c 0
 10 400.668538411 61.7211163227 403.93359375 193.998046875 403.93359375 c 4
 354.53959517 403.93359375 418.998046875 403.778428819 418.998046875 353.93359375 c 4
 418.998046875 301.93359375 358.025500699 301.93359375 190 301.93359375 c 4
EndSplineSet
Refer: 12 68 N 1 0 0 1 60 0 2
EndChar

StartChar: eth
Encoding: 240 240 137
Width: 609
Flags: W
HStem: -9.99805 91.8994<212.928 388.729> 440.101 90.8994<216.34 384.907> 559 114<219.03 277.441> 741.002 20G<225.01 310.301>
VStem: 36.3359 97.9004<162.583 350.252> 469.771 105.9<164.217 354.198>
LayerCount: 2
Fore
SplineSet
187.303710938 559 m 0
 142.553725719 559 123.337890625 567.242231889 123.337890625 593 c 0
 123.337890625 639.942339015 221.871463059 653.264389615 337.931640625 673 c 0
 396.739397321 683 424.424898727 693 467.927734375 693 c 0
 499.130340231 693 524.671875 681.447296627 524.671875 653 c 0
 524.671875 616.099985096 439.200920475 602.532382294 358.56640625 585 c 0
 293.079804221 570.761289078 236.000648422 559 187.303710938 559 c 0
36.3359375 253 m 0
 36.3359375 405.934868472 125.140088808 531 288.659179688 531 c 0
 382.061228945 531 433.224609375 478.020507812 433.224609375 478.020507812 c 1
 357.75776521 660.613134658 193.378384423 665.626608507 193.378384423 725 c 0
 193.378384423 744.848221629 209.249462597 761.001953125 240.7699054 761.001953125 c 0
 379.831700657 761.001953125 575.671875 545.760246512 575.671875 294 c 0
 575.671875 96.8483603803 466.538362428 -9.998046875 302.4453125 -9.998046875 c 4
 143.992953441 -9.998046875 36.3359375 95.9515583782 36.3359375 253 c 0
134.236328125 254.900390625 m 0
 134.236328125 150.097327717 196.588634255 81.9013671875 303.249806178 81.9013671875 c 0
 409.298522967 81.9013671875 469.771484375 155.084807551 469.771484375 261.301757812 c 0
 469.771484375 364.839943661 407.41910674 440.100585938 300.7578125 440.100585938 c 0
 194.709219146 440.100585938 134.236328125 359.944734765 134.236328125 254.900390625 c 0
EndSplineSet
EndChar

StartChar: Delta
Encoding: 8710 8710 138
Width: 688
Flags: W
HStem: -10 93<127.788 549.21> 607.998 131<317.201 371.397>
VStem: 9 110.711<96.0794 198.653> 563.201 116.211<52.8679 200.237>
LayerCount: 2
Fore
SplineSet
344.412109375 607.998046875 m 0
 287.20703125 607.998046875 119.7109375 180.608398438 119.7109375 125.392578125 c 0
 119.7109375 85.9267578125 167.206054688 83 343.690429688 83 c 4
 518.681640625 83 563.201171875 92.7861328125 563.201171875 132.693359375 c 4
 563.201171875 197.274414062 401.698242188 607.998046875 344.412109375 607.998046875 c 0
351.692382812 -10 m 0
 74.7568359375 -10 9 -10 9 101 c 0
 9 177.364257812 103.737304688 420.353515625 181.450195312 557 c 0
 259.529296875 694.291992188 290.56640625 738.998046875 344.412109375 738.998046875 c 0
 397.9921875 738.998046875 427.890625 693.411132812 506.961914062 557 c 0
 582.65234375 426.421875 679.412109375 177.364257812 679.412109375 101 c 0
 679.412109375 5.3408203125 625.97265625 -10 351.692382812 -10 c 0
EndSplineSet
Validated: 1
EndChar

StartChar: Eng
Encoding: 330 330 139
Width: 745
Flags: W
HStem: -190 106<340.739 468.338> 643 96<267.906 478.894>
VStem: 52 106<129 584> 91 67<210 587> 587 106<95.1255 502.987>
LayerCount: 2
Back
SplineSet
52 365 m 4xf0
 52 603.086914062 74.0783396291 739 138 739 c 4
 171.682617188 739 184.131835938 718.713918586 184.131835938 685 c 4xf0
 184.131835938 644.195798439 162 562.800322806 162 364.001953125 c 4xe8
 162 165.820967783 184.131835938 84.6788668058 184.131835938 44.001953125 c 4
 184.131835938 10.2880345395 171.682617188 -9.998046875 138 -9.998046875 c 4
 74.0783396291 -9.998046875 52 126.773229598 52 365 c 4xf0
92 364.001953125 m 4
 92 607.930836144 188.752514105 739 403 739 c 4
 609.227455364 739 701 590.415726902 701 382 c 4
 701 143.313819472 669.053496308 -9.998046875 615.131835938 -9.998046875 c 4
 581.44921875 -9.998046875 569 10.288034539 569 44.001953125 c 4
 569 87.3748942089 591.099609375 174.745149886 591.099609375 381.700195312 c 4
 591.099609375 533.722913451 544.044963724 640.100585938 382.700195312 640.100585938 c 4
 211.93451236 640.100585938 161.900390625 540.225686486 161.900390625 388.1015625 c 4
 161.900390625 236.038142688 166.131835938 174.734139693 166.131835938 144.001953125 c 4
 166.131835938 122.774671052 159.079852523 110.001953125 140 110.001953125 c 4
 104.322794212 110.001953125 92 208.753262799 92 364.001953125 c 4
EndSplineSet
Fore
SplineSet
52 366 m 0xe8
 52 603 73 739 135 739 c 0
 168 739 180 719 180 685 c 0
 180 644 158 565 158 366 c 0
 158 168 180 87 180 46 c 0
 180 12 168 -7 135 -7 c 0
 73 -7 52 129 52 366 c 0xe8
587 311 m 0
 587 527 540 643 379 643 c 0
 208 643 158 542 158 390 c 0xe8
 158 238 162 177 162 146 c 0
 162 125 155 112 137 112 c 0
 102 112 91 210 91 365 c 0xd8
 91 609 187 739 399 739 c 0
 603 739 693 581 693 311 c 0
 693 -7 581 -190 394 -190 c 0
 339 -190 319 -173 319 -144 c 0
 319 -94 369 -101 424 -84 c 0
 503 -58 587 11 587 311 c 0
EndSplineSet
EndChar

StartChar: eng
Encoding: 331 331 140
Width: 586
Flags: W
HStem: -189.998 85.998<282.058 374.929> -9.99805 21G<91.5881 138.236> -9.99805 21G<91.5881 138.236> 442.101 88.8994<227.945 387.369>
VStem: 51.9082 99.7158<223.335 372.227> 98.04 51.8682<175.164 401.913> 454.228 98<-1.00648 357.135>
LayerCount: 2
Fore
SplineSet
454.227539062 208.001953125 m 0x96
 454.227539062 376.205022041 403.499508404 442.100585938 314.540039062 442.100585938 c 0
 211.726859004 442.100585938 151.624023438 372.226500306 151.624023438 251.301757812 c 4x9a
 151.624023438 223.334900339 137.788422062 215.885742188 124.747070312 215.885742188 c 4
 111.058101505 215.885742188 98.0400390625 225.336058217 98.0400390625 251.001953125 c 4
 98.0400390625 408.196276795 179.993373285 531 324.486328125 531 c 0
 471.17670684 531 552.227539062 415.858698323 552.227539062 201 c 0
 552.227539061 -114.837259092 448.165752008 -189.998046875 335.08206639 -189.998046875 c 0
 292.355537972 -189.998046875 276.563656489 -169.986821914 276.563656489 -148 c 0
 276.563656489 -119.367469693 292.249344546 -109.123230125 317.906869752 -104 c 0
 410.268018579 -84.9469266133 454.22753906 -37.5603084718 454.227539062 208.001953125 c 0x96
51.908203125 261 m 4
 51.908203125 422.496311879 81.5824157388 531 131.462890625 531 c 0
 161.705872229 531 172.883789062 511.465254935 172.883789062 479 c 0
 172.883789062 451.161698386 149.908203125 395.630363036 149.908203125 260.001953125 c 4
 149.908203125 124.991156861 167.692890745 69.71310057 167.692890745 42.001953125 c 0
 167.692890745 9.53669819081 155.173100025 -9.998046875 121.299543253 -9.998046875 c 0xd6
 61.8766627146 -9.998046875 51.908203125 99.2249426596 51.908203125 261 c 4
EndSplineSet
EndChar

StartChar: paragraph
Encoding: 182 182 141
Width: 790
Flags: W
HStem: 234 96<211.587 396.433> 636 103<222.669 382.361 498.012 587.988>
VStem: 35 109<392.072 561.772> 414 107<221.625 599.62> 622 116<81.5324 596.622>
LayerCount: 2
Fore
SplineSet
405 234 m 1
 402 25.4380944293 376 -76.8374554178 376 -134.994140625 c 0
 376 -168.994140625 389 -189.994140625 424 -189.994140625 c 0
 496 -189.994140625 521 -35.5578630845 521 367 c 0
 521 494 516 578 498 634 c 1
 498 634 515 636 536 636 c 0
 571 636 588.4404775 626.185512709 603 591 c 0
 615 562 622 501 622 360 c 0
 622 88.4546313575 593 -56.8371710526 593 -134.994140625 c 0
 593 -168.994140625 606 -189.994140625 641 -189.994140625 c 0
 713 -189.994140625 738 -35.5570769989 738 366 c 0
 738 540 727.875549066 622.702452394 686 674 c 0
 646 723 601 739 516 739 c 2
 312 739 l 2
 137 739 35 625 35 478 c 0
 35 336 110 234 308 234 c 2
 405 234 l 1
373 335 m 0
 364 333 352 330 314 330 c 0
 188 330 144 391 144 478 c 0
 144 582 219 636 317 636 c 0
 363 636 372.870352615 625.893783676 386 610 c 0
 405 587 414 530 414 444 c 0
 414 407 410.908248365 343.424055192 373 335 c 0
EndSplineSet
EndChar

StartChar: section
Encoding: 167 167 142
Width: 506
Flags: W
HStem: -29.998 90.8994<151.398 333.812> 668.101 90.8994<180.706 347.47>
VStem: 35 97.9004<324.317 420.964> 65 97.9004<561.288 649.673> 353.16 97.9004<81.4918 163.463> 373.16 97.9004<308.92 402.705>
LayerCount: 2
Fore
SplineSet
260.290039062 759 m 0xd0
 369.646484375 759 441.186523438 709.031728316 441.186523438 671 c 0
 441.186523438 647.546875 423.896484375 628.389648438 403 628.389648438 c 0
 356.182617188 628.389648438 342.037109375 668.100585938 258 668.100585938 c 0
 188.786132812 668.100585938 162.900390625 642.283457327 162.900390625 608.900390625 c 0
 162.900390625 562.763230618 199.592314741 541.152476707 262.66015625 531 c 0
 398.049731306 509.205382105 471.060546875 455.927600337 471.060546875 366 c 0xd4
 471.060546875 257.447251392 379.544921875 228.55078125 379.544921875 228.55078125 c 1
 379.544921875 228.55078125 451.060546875 198.565604483 451.060546875 116 c 0
 451.060546875 31.1838221316 369.98828125 -29.998046875 254.360351562 -29.998046875 c 0
 125.231445312 -29.998046875 37 27.2609538714 37 67 c 0
 37 93.9521484375 55.6748046875 111.090820312 80.3779296875 111.090820312 c 0
 126.833984375 111.090820312 146.66796875 60.9013671875 254.090820312 60.9013671875 c 0
 318.748046875 60.9013671875 353.16015625 85.9519673825 353.16015625 123.1015625 c 0
 353.16015625 165.901020724 307.91015625 186.476706767 222.9296875 201.100585938 c 0
 107.522565072 220.96044125 35 269.070512971 35 360 c 0xe8
 35 469.150799625 123.373046875 497.21875 123.373046875 497.21875 c 1
 123.373046875 497.21875 65 519.973460999 65 598 c 0
 65 683.53327873 136.67578125 759 260.290039062 759 c 0xd0
287.090820312 288.901367188 m 0
 343.263857345 288.901367188 373.16015625 317.57617817 373.16015625 360.1015625 c 0
 373.16015625 416.463267931 288.633789063 440.100585938 218 440.100585938 c 4
 156.064453125 440.100585938 132.900390625 408.178075433 132.900390625 366.900390625 c 0xe4
 132.900390625 323.000665955 186.667659074 288.901367188 287.090820312 288.901367188 c 0
EndSplineSet
Validated: 1
EndChar

StartChar: uni01B7
Encoding: 439 439 143
Width: 624
Flags: W
HStem: -10 97<184.629 412.937> 641 98<96.3942 446.683>
VStem: 449 124<582.259 668.445> 478 107<144.843 273.22>
LayerCount: 2
Fore
SplineSet
356 408 m 1xe0
 356 408 386 407 424 399 c 0
 488 386 585 333 585 204 c 0
 585 74 467 -10 298 -10 c 0
 128 -10 30 72 30 118 c 0
 30 149 50 168 78 168 c 0
 142 168 135 87 301 87 c 0
 410 87 478 130 478 209 c 0xd0
 478 291 403 328 276 328 c 0
 229 328 198 341 198 382 c 0
 198 418 251 444 320 492 c 0
 386 539 449 596 449 616 c 0
 449 637 417 641 317 641 c 0
 210 641 140 619 97 619 c 0
 65 619 50 643 50 666 c 0
 50 714 97 739 315 739 c 0
 527 739 573 702 573 634 c 0
 573 572 465 477 356 408 c 1xe0
EndSplineSet
EndChar

StartChar: uni0292
Encoding: 658 658 144
Width: 545
Flags: W
HStem: -189.994 93.8994<160.733 360.612> 439 92<102.505 381.825>
VStem: 383.808 113.802<370.91 463.032> 412.271 100.9<-49.4562 86.2205>
LayerCount: 2
Fore
SplineSet
318.000976562 216.99609375 m 1xd0
 440.187204769 312.765710304 497.609375 374.013114571 497.609375 436 c 0
 497.609375 490.064522809 456.033706066 531 264.733398438 531 c 0
 90.2069763884 531 51.908203125 508.1646875 51.908203125 465 c 0
 51.908203125 443.259253139 67.4879918301 421.71875 100.981445312 421.71875 c 0
 133.166130915 421.71875 185.766953702 439.000000002 266.2890625 439 c 0
 355.782436599 438.999999998 383.807617188 434.676090309 383.807617188 412.301757812 c 0xe0
 383.807617188 386.08335022 354.214379605 359.17752901 276.15234375 292.115234375 c 0
 207.250842722 232.922661288 173.374023438 220.79902134 173.374023438 184 c 0
 173.374023438 155.32614967 202.218700574 139.005859375 244.68359375 139.005859375 c 0
 343.429241181 139.005859375 412.270728769 101.727107413 412.270728769 18.00390625 c 0
 412.270728769 -56.071926877 357.294856731 -96.0947265625 268.303773625 -96.0947265625 c 0
 126.83071451 -96.0947265625 132.830268528 -29.9052734375 78.1210471048 -29.9052734375 c 0
 50.6409823862 -29.9052734375 31.1450381679 -47.4989161642 31.1450381679 -75.71484375 c 0
 31.1450381679 -124.068690382 117.228466981 -189.994140625 265.817621208 -189.994140625 c 0
 410.945008653 -189.994140625 513.171140267 -106.184570313 513.171140267 12.005859375 c 0
 513.171140267 134.276389927 436.749957957 184.985382324 371.352539062 204.16015625 c 0
 340.968870554 213.068764335 318.000976562 216.99609375 318.000976562 216.99609375 c 1xd0
EndSplineSet
EndChar

StartChar: guilsinglleft
Encoding: 8249 8249 145
Width: 360
Flags: W
VStem: 35.501 99<321.638 388.01>
LayerCount: 2
Fore
SplineSet
134.500976562 353.705078125 m 4
 134.500976562 335.41015625 158.008542317 316.272604733 229.040039062 264.705078125 c 4
 293.467145635 217.932214188 324.499023438 216.953364801 324.499023438 181.424804688 c 0
 324.499023438 155.120117188 300.729492188 138.705078125 279 138.705078125 c 0
 244.979898827 138.705078125 210.72522848 167.922524003 157.499023438 210.155273438 c 0
 65.3561250192 283.266778154 35.5009765625 306.387601007 35.5009765625 353.705078125 c 0
 35.5009765625 402.041633914 65.3630375741 425.148862917 157.499023438 498.254882812 c 0
 210.72522848 540.487632247 244.979898827 569.705078125 279 569.705078125 c 0
 300.729492188 569.705078125 324.499023438 558.290039062 324.499023438 526.985351562 c 0
 324.499023438 500.890413502 294.761114453 488.641623517 229.040039062 443.705078125 c 4
 158.008542317 395.137551517 134.500976562 373 134.500976562 353.705078125 c 4
EndSplineSet
Validated: 1
EndChar

StartChar: guilsinglright
Encoding: 8250 8250 146
Width: 360
Flags: W
VStem: 225.499 99<321.638 388.01>
LayerCount: 2
Fore
SplineSet
225.499023438 353.705078125 m 0
 225.499023438 373 201.99155131 395.137695312 130.959960938 443.705078125 c 0
 65.2385631753 488.641651661 35.5009765625 500.890625 35.5009765625 526.985351562 c 0
 35.5009765625 558.290039062 59.2705078125 569.705078125 81 569.705078125 c 0
 115.020507812 569.705078125 149.274414062 540.487304688 202.500976562 498.254882812 c 0
 294.63671875 425.1484375 324.499023438 402.041992188 324.499023438 353.705078125 c 0
 324.499023438 306.387695312 294.643554688 283.266601562 202.500976562 210.155273438 c 0
 149.274414062 167.922851562 115.020507812 138.705078125 81 138.705078125 c 0
 59.2705078125 138.705078125 35.5009765625 155.120117188 35.5009765625 181.424804688 c 0
 35.5009765625 216.953125 66.532852869 217.932405178 130.959960938 264.705078125 c 0
 201.99155131 316.272460938 225.499023438 335.41015625 225.499023438 353.705078125 c 0
EndSplineSet
Validated: 1
EndChar

StartChar: currency
Encoding: 164 164 149
Width: 543
Flags: W
HStem: 150.002 82.8994<197.808 344.233> 490.101 88.8994<197.171 345.192>
VStem: 55 92.9004<282.379 439.252> 395.1 92.9004<284.053 441.428>
LayerCount: 2
Fore
SplineSet
351 193.344726562 m 1
 411.693359375 245 l 1
 465.683133589 213.24039172 513.131835938 154.3492885 513.131835938 108.344726562 c 0
 513.131835938 83.9438936756 491.341350001 64.3447265625 468 64.3447265625 c 0
 419.148867221 64.3447265625 422.274467499 137.627402609 351 193.344726562 c 1
192 193.344726562 m 1
 120.725532501 137.627402609 123.851132779 64.3447265625 75 64.3447265625 c 0
 51.6586499985 64.3447265625 29.8681640625 83.9438936756 29.8681640625 108.344726562 c 0
 29.8681640625 154.3492885 77.3168664111 213.24039172 131.306640625 245 c 1
 192 193.344726562 l 1
273 150.001953125 m 0
 143.193922048 150.001953125 55 234.19748548 55 359 c 0
 55 480.027593754 140.87636937 579 270 579 c 0
 399.806077952 579 488 486.02024618 488 367.001953125 c 0
 488 237.650619335 407.489361702 150.001953125 273 150.001953125 c 0
351 529 m 1
 422.274467499 584.717323954 419.148867221 658 468 658 c 0
 491.341350001 658 513.131835938 638.400832887 513.131835938 614 c 0
 513.131835938 567.995438062 465.683133589 509.104334842 411.693359375 477.344726562 c 1
 351 529 l 1
192 529 m 1
 131.306640625 477.344726562 l 1
 77.3168664111 509.104334842 29.8681640625 567.995438062 29.8681640625 614 c 0
 29.8681640625 638.400832887 51.6586499985 658 75 658 c 0
 123.851132779 658 120.725532501 584.717323954 192 529 c 1
147.900390625 360.900390625 m 0
 147.900390625 283.358393919 193.941426621 232.901367188 272.700195312 232.901367188 c 0
 350.649810867 232.901367188 395.099609375 287.727797262 395.099609375 367.301757812 c 0
 395.099609375 438.411663967 349.058573379 490.100585938 270.299804688 490.100585938 c 0
 192.350189133 490.100585938 147.900390625 434.181899624 147.900390625 360.900390625 c 0
EndSplineSet
Validated: 5
EndChar

StartChar: cedilla
Encoding: 184 184 150
Width: 236
Flags: W
HStem: -220 61<33.9586 134.919> -79 60<60.6944 133.954>
VStem: 139 68<-154.82 -85.3907>
LayerCount: 2
Fore
SplineSet
207 -117 m 0
 207 -193.296296296 154.6875 -220 99 -220 c 0
 49.1911764706 -220 16 -202 16 -175 c 0
 16 -157.068965517 29.5416666667 -149 41 -149 c 0
 57.7391304348 -149 70.8913043478 -159 96 -159 c 0
 113.981818182 -159 139 -151.083333333 139 -119 c 0
 139 -92.4649122807 123.065900785 -82.6475290934 96 -79 c 4
 71.0381682385 -75.6360252224 59 -69.6666666667 59 -51 c 0
 59 -32.268292683 72.2692307692 -19 105 -19 c 4
 157.623440044 -19 207 -52.848583878 207 -117 c 0
EndSplineSet
Validated: 1
EndChar

StartChar: tilde
Encoding: 732 732 151
Width: 384
VWidth: 999
Flags: W
HStem: 611.992 79<203.426 323.5> 659.992 79<59.8146 179.559>
LayerCount: 2
Fore
SplineSet
375 681.9921875 m 0x80
 375 643.506627458 332.691139816 611.9921875 266 611.9921875 c 4x80
 198.570390625 611.9921875 165.399330951 659.9921875 118 659.9921875 c 0
 78.4039794922 659.9921875 71.1219726562 635.9921875 47 635.9921875 c 0
 23.0159254808 635.9921875 9 653.715629209 9 673.9921875 c 0
 9 713.02242017 49.7178580729 738.9921875 112 738.9921875 c 0x40
 189.155855219 738.9921875 216.103245512 690.9921875 260 690.9921875 c 4
 305.363956105 690.9921875 307.392649025 714.9921875 339 714.9921875 c 0
 359.638619087 714.9921875 375 702.586613582 375 681.9921875 c 0x80
EndSplineSet
Validated: 1
EndChar

StartChar: dotaccent
Encoding: 729 729 152
Width: 198
Flags: W
HStem: 615.994 122.998<49.6762 148.324>
VStem: 35 128<630.176 723.824>
LayerCount: 2
Fore
SplineSet
35 677.9921875 m 0
 35 711.549838496 60.563198324 738.9921875 99 738.9921875 c 0
 137.108206371 738.9921875 163 711.362013657 163 675.994140625 c 0
 163 640.966287364 137.436801676 615.994140625 99 615.994140625 c 0
 60.8917936289 615.994140625 35 640.970252314 35 677.9921875 c 0
EndSplineSet
Validated: 1
EndChar

StartChar: lira
Encoding: 8356 8356 153
Width: 631
Flags: W
HStem: -9.99805 101<215.615 537.318> 211 100<22.7421 416.536> 635.442 103.558<389.107 518.96>
VStem: 9 418.998<211.342 307.797> 24 418.998<371.342 467.797> 87.998 110.802<108.697 203.1>
LayerCount: 2
Fore
SplineSet
219 211 m 0xf0
 72.0859375 211 9 211.341796875 9 259 c 0
 9 307.796875 69.154296875 311 222.998046875 311 c 0
 369.26953125 311 427.998046875 310.84765625 427.998046875 262 c 0
 427.998046875 211 372.350585938 211 219 211 c 0xf0
234 371 m 4
 87.0859375 371 24 371.341796875 24 419 c 4
 24 467.796875 84.154296875 471 237.998046875 471 c 4
 384.26953125 471 442.998046875 470.84765625 442.998046875 422 c 4xe8
 442.998046875 371 387.350585938 371 234 371 c 4
533.254882812 688.001953125 m 0
 533.254882812 655.737524503 505 643 450.225585938 635.442382812 c 0
 317.501007029 617.129424547 198.799804688 462.034945316 198.799804688 157.700195312 c 0
 198.799804688 101.803710938 233.663967978 91.001953125 344.998046875 91.001953125 c 0
 437.172851562 91.001953125 497.385742188 112.283203125 534.228515625 112.283203125 c 0
 566.490234375 112.283203125 581.497070312 88.751953125 581.497070312 65.001953125 c 0
 581.497070312 15.951171875 538.848632812 -9.998046875 344.499023438 -9.998046875 c 0
 133.791314702 -9.998046875 87.998046875 36.7109375 87.998046875 125.001953125 c 0xe4
 87.998046875 578.826171875 310.919507502 739 452.998046875 739 c 0
 506.466515384 739 533.254882812 719.639157946 533.254882812 688.001953125 c 0
EndSplineSet
Validated: 5
EndChar

StartChar: Euro
Encoding: 8364 8364 154
Width: 763
Flags: W
HStem: -10.0889 106.899<350.333 554.943> 241.934 92<41.4582 426.949> 632.101 106.899<349.164 551.318>
VStem: 115 117.9<336.55 387.763>
LayerCount: 2
Fore
SplineSet
228 241.93359375 m 0
 89.4803967928 241.93359375 30 242.247070312 30 285.93359375 c 0
 30 330.9765625 86.7810008132 333.93359375 231.998046875 333.93359375 c 0
 378.269684923 333.93359375 436.998046875 333.793945312 436.998046875 288.93359375 c 0
 436.998046875 241.93359375 381.350395191 241.93359375 228 241.93359375 c 0
240 391.93359375 m 0
 93.0852693257 391.93359375 30 392.247070312 30 435.93359375 c 0
 30 480.9765625 90.1541621893 483.93359375 243.998046875 483.93359375 c 0
 405.967129006 483.93359375 470.998046875 483.793945312 470.998046875 438.93359375 c 0
 470.998046875 391.93359375 409.492692905 391.93359375 240 391.93359375 c 0
449.299804688 96.810546875 m 0
 612.132662211 96.8105468755 616.888097985 195 673.14453125 195 c 0
 700.652956341 195 723.522460938 177.354506667 723.522460938 147.190429688 c 0
 723.522460938 85.2103751733 616.698407749 -10.0888671875 446 -10.0888671875 c 0
 248.909102583 -10.0888671875 115 118.65399777 115 359 c 0
 115 588.047661939 246.011391411 739 443 739 c 0
 613.343487279 739 720.522460938 637.310576642 720.522460938 571.720703125 c 0
 720.522460938 541.556626146 697.652956341 523.911132812 670.14453125 523.911132812 c 0
 613.888097985 523.911132812 609.132662211 632.100585938 446.299804688 632.100585938 c 0
 310.397174653 632.100585938 232.900390625 534.723374448 232.900390625 360.900390625 c 0
 232.900390625 181.570228414 312.538982131 96.8105468746 449.299804688 96.810546875 c 0
EndSplineSet
Validated: 5
EndChar

StartChar: integral
Encoding: 8747 8747 155
Width: 488
Flags: W
HStem: -190.064 85.998<-15.4744 79.3536> 675.002 85.998<360.146 457.598>
LayerCount: 2
Fore
SplineSet
222.698242188 2.59765625 m 0
 199.360700134 -131.064664935 133.29074315 -190.064453125 36.1318359375 -190.064453125 c 0
 -5.5823018158 -190.064453125 -21 -170.053228164 -21 -148.06640625 c 0
 -21 -119.433875943 -6.18509680782 -107.475778894 18.8232421875 -104.06640625 c 0
 93.460557527 -94.7224472349 114.590454362 -58.2932458981 128.984375 23.171875 c 0
 150.281531687 143.707168191 169.188437249 267.39355853 207.897460938 531.763671875 c 0
 232.623496744 700.634500069 302.832749466 761 405.998046875 761 c 0
 447.711914062 761 463.129882812 740.989257812 463.129882812 719.001953125 c 0
 463.129882812 690.369140625 448.289640095 678.595184998 423.306640625 675.001953125 c 0
 345.533475582 664.693091804 328.946809179 635.134630539 308.517578125 522.703125 c 0
 269.645204227 308.770475768 256.914339787 198.565295715 222.698242188 2.59765625 c 0
EndSplineSet
Validated: 1
EndChar

StartChar: partialdiff
Encoding: 8706 8706 156
Width: 605
Flags: W
HStem: -9.99805 100.899<205.472 369.651> 396.101 96.8994<222.62 390.046> 636 102.992<181.454 366.388>
VStem: 35 109.9<150.77 318.434> 446.1 123.9<194.28 446.761>
LayerCount: 2
Fore
SplineSet
446.099609375 259 m 0
 446.099609375 346.252001971 394.916027034 396.100585938 303.700195312 396.100585938 c 0
 202.908095351 396.100585938 144.900390625 320.991785175 144.900390625 232.301757812 c 0
 144.900390625 148.583646364 196.083972966 90.9013671875 287.299804688 90.9013671875 c 0
 388.091904649 90.9013671875 446.099609375 163.219593287 446.099609375 259 c 0
269 738.9921875 m 0
 476.065955351 738.9921875 570 597.16338679 570 364 c 0
 570 104.847840866 454.052808077 -9.998046875 285 -9.998046875 c 0
 134.272273137 -9.998046875 35 90.3067262201 35 231.001953125 c 0
 35 380.955010309 141.262860831 493 289 493 c 0
 420.963394499 493 461.823242188 419.362304688 461.823242188 419.362304688 c 1
 454.117452436 554.263767595 404.963118673 636 265 636 c 0
 235.196130607 636 206.758586805 629 189 629 c 0
 158 629 146 652.135652835 146 668 c 0
 146 708.884437311 182.067669173 738.9921875 269 738.9921875 c 0
EndSplineSet
EndChar

StartChar: product
Encoding: 8719 8719 157
Width: 782
Flags: W
HStem: 638 101<204.084 569.456>
VStem: 52 110<45.1103 590.558> 620 110<45.1103 568.812>
LayerCount: 2
Fore
SplineSet
390.500976562 739 m 0
 527.582098921 739 614.916085385 735.843799096 663 692 c 0
 722.310756861 637.919359334 730 527.173284686 730 315 c 0
 730 -45.8124809419 698.236282388 -189.998046875 636 -189.998046875 c 4
 600.857106346 -189.998046875 587.868164062 -169.71196546 587.868164062 -135.998046875 c 4
 587.868164062 -78.8476167503 620 35.155771227 620 315.001953125 c 0
 620 463.347138471 610.167828116 566.385443502 584 602 c 0
 560.166308924 634.437783282 528.01306138 638 391 638 c 0
 248.307640739 638 214.91453641 634.559214904 190 602 c 0
 165.782887867 570.3522043 162 463.347138471 162 315.001953125 c 0
 162 35.155771227 194.131835938 -78.8476167503 194.131835938 -135.998046875 c 0
 194.131835938 -169.71196546 181.142893654 -189.998046875 146 -189.998046875 c 4
 83.7637176117 -189.998046875 52 -45.8124809419 52 315 c 0
 52 527.173284686 52.395074023 638.009528624 111 692 c 0
 160.358297137 737.471906743 250.491194976 739 390.500976562 739 c 0
EndSplineSet
Validated: 1
EndChar

StartChar: bullet
Encoding: 8226 8226 173
Width: 278
Flags: W
HStem: 260.002 202.998<72.8931 205.107>
VStem: 35 208<297.092 423.989>
LayerCount: 2
Fore
SplineSet
35 362 m 0
 35 417.562612065 76.5406494141 463 139 463 c 4
 200.926147461 463 243 417.826790571 243 360.001953125 c 0
 243 301.621419271 201.459350586 260.001953125 139 260.001953125 c 4
 77.0738525391 260.001953125 35 301.092934552 35 362 c 0
EndSplineSet
Validated: 1
EndChar

StartChar: uni20BF
Encoding: 8383 8383 174
Width: 662
Flags: W
HStem: -109.998 188.998<196.278 258.747 396.278 458.747> -10 96<198.753 448.643> 320 83<164.378 440.639> 638 101<195.457 431.38> 650.002 188.998<196.278 258.747 396.278 458.747>
VStem: 52 108<120.36 604.1> 181.5 94<-96.2928 75.3444 653.658 825.295> 381.5 94<-96.2928 75.3444 653.658 825.295> 494 105<448.365 583.846> 511 109<138.856 269.288>
LayerCount: 2
Fore
SplineSet
381.5 0.001953125 m 4xa7
 381.5 68.1923942057 390.5 79 429.5 79 c 4
 467.357421875 79 475.5 67.3500482795 475.5 4 c 4
 475.5 -59.6784597797 462.481445312 -109.998046875 426.5 -109.998046875 c 4
 391.8203125 -109.998046875 381.5 -58.6200669643 381.5 0.001953125 c 4xa7
381.5 729 m 4
 381.5 787.622020089 391.8203125 839 426.5 839 c 4
 462.481445312 839 475.5 788.680412905 475.5 725.001953125 c 4
 475.5 661.651904846 467.357421875 650.001953125 429.5 650.001953125 c 4x2f
 390.5 650.001953125 381.5 660.809558919 381.5 729 c 4
181.5 0.001953125 m 4
 181.5 68.1923942057 190.5 79 229.5 79 c 4
 267.357421875 79 275.5 67.3500482795 275.5 4 c 4
 275.5 -59.6784597797 262.481445312 -109.998046875 226.5 -109.998046875 c 4xa7
 191.8203125 -109.998046875 181.5 -58.6200669643 181.5 0.001953125 c 4
181.5 729 m 4
 181.5 787.622020089 191.8203125 839 226.5 839 c 4
 262.481445312 839 275.5 788.680412905 275.5 725.001953125 c 4
 275.5 661.651904846 267.357421875 650.001953125 229.5 650.001953125 c 4x2f
 190.5 650.001953125 181.5 660.809558919 181.5 729 c 4
EndSplineSet
Refer: 18 66 N 1 0 0 1 0 0 2
EndChar

StartChar: uni20B5
Encoding: 8373 8373 175
Width: 683
Flags: W
HStem: -10.0889 106.899<269.149 476.477> 632.101 106.899<269.164 471.319>
VStem: 35 117.9<226.215 496.145> 322.5 94<106.898 591.948>
LayerCount: 2
Fore
SplineSet
322.5 339 m 0
 322.5 784.03515625 332.8203125 839 367.5 839 c 0
 403.481445312 839 416.5 791.533203125 416.5 335.001953125 c 0
 416.5 -40.875 408.357421875 -109.998046875 370.5 -109.998046875 c 0
 331.5 -109.998046875 322.5 -48.5712890625 322.5 339 c 0
369.299804688 96.810546875 m 0
 532.1328125 96.810546875 536.887695312 195 593.14453125 195 c 0
 620.653320312 195 643.522460938 177.354492188 643.522460938 147.190429688 c 0
 643.522460938 85.2099609375 536.698242188 -10.0888671875 366 -10.0888671875 c 0
 168.909179688 -10.0888671875 35 118.654296875 35 359 c 0
 35 588.047851562 166.01171875 739 363 739 c 0
 533.34375 739 640.522460938 637.310546875 640.522460938 571.720703125 c 0
 640.522460938 541.556640625 617.653320312 523.911132812 590.14453125 523.911132812 c 0
 533.887695312 523.911132812 529.1328125 632.100585938 366.299804688 632.100585938 c 0
 230.397460938 632.100585938 152.900390625 534.723632812 152.900390625 360.900390625 c 0
 152.900390625 181.5703125 232.5390625 96.810546875 369.299804688 96.810546875 c 0
EndSplineSet
Validated: 5
EndChar

StartChar: uni20B8
Encoding: 8376 8376 176
Width: 633
Flags: W
HStem: -9.99805 21G<293.938 340.543> -9.99805 21G<293.938 340.543> 416.719 122.281<77.6459 264.794 368.237 556.078> 438 81<170.794 462.425> 638 101<78.5597 555.052>
VStem: 259.5 114<8.57186 432.698>
LayerCount: 2
Fore
SplineSet
316.499023438 638 m 0x0c
 199.96875 638 123.845703125 616.71875 77.2685546875 616.71875 c 0
 45.0068359375 616.71875 30 640.25 30 664 c 0
 30 713.05078125 81.646484375 739 316.998046875 739 c 0
 552.349609375 739 603.499023438 713.050442536 603.499023438 664 c 0
 603.499023438 640.250003017 588.491843991 616.71875 556.23046875 616.71875 c 0
 509.653351013 616.71875 433.029296875 638 316.499023438 638 c 0x0c
316.499023438 438 m 0x1c
 199.96875 438 123.845703125 416.71875 77.2685546875 416.71875 c 0
 45.0068359375 416.71875 30 440.25 30 464 c 0
 30 513.05078125 81.646484375 539 316.998046875 539 c 0
 552.349609375 539 603.499023438 513.050442536 603.499023438 464 c 0
 603.499023438 440.250003017 588.491843991 416.71875 556.23046875 416.71875 c 0x2c
 509.653351013 416.71875 433.029296875 438 316.499023438 438 c 0x1c
259.5 159 m 0
 259.5 479.425488282 262.114257812 519 314.5 519 c 0
 370.82421875 519 373.5 484.718400793 373.5 155.001953125 c 0
 373.5 41.0164937814 363.586914062 -9.998046875 317.5 -9.998046875 c 0x9c
 270.375 -9.998046875 259.5 38.5997591291 259.5 159 c 0
EndSplineSet
Validated: 5
EndChar

StartChar: uni20BC
Encoding: 8380 8380 177
Width: 893
Flags: W
HStem: -9.99805 21G<90.7286 136.841 423.938 470.543 756.291 798.441> -9.99805 21G<90.7286 136.841 423.938 470.543 756.291 798.441> 463.101 105.899<303.676 581.984> 719 20G<423.307 466.162>
VStem: 52 109.9<25.7471 329.565> 389.5 114<61.2778 457.429> 731.1 109.9<31.3031 317.512>
CounterMasks: 1 0e
LayerCount: 2
Fore
SplineSet
52 194.001953125 m 4xbe
 52 417.930836144 173.640620627 569 443 569 c 0
 718.431299446 569 841 412.091677989 841 192 c 4
 841 84.4239394369 823.750239772 -9.998046875 773.131835938 -9.998046875 c 0
 739.44921875 -9.998046875 727 10.288034539 727 44.001953125 c 0
 727 74.5380610085 731.099609375 112.750972925 731.099609375 191.700195312 c 4
 731.099609375 351.371103654 665.981709232 463.100585938 442.700195312 463.100585938 c 0
 225.530753119 463.100585938 161.900390625 356.077261778 161.900390625 198.1015625 c 4
 161.900390625 113.595639641 166.131835938 74.8945514802 166.131835938 44.001953125 c 0
 166.131835938 10.288034539 153.682617188 -9.998046875 120 -9.998046875 c 0
 61.4572917998 -9.998046875 52 84.7685740658 52 194.001953125 c 4xbe
389.5 339 m 0
 389.5 695.028320312 402.114257812 739 444.5 739 c 0
 487.82421875 739 503.5 700.951171875 503.5 335.001953125 c 0
 503.5 43.591796875 493.586914062 -9.998046875 447.5 -9.998046875 c 0
 400.375 -9.998046875 389.5 37.748046875 389.5 339 c 0
EndSplineSet
Validated: 5
EndChar

StartChar: dong
Encoding: 8363 8363 178
Width: 607
Flags: W
HStem: -10 81<70.4808 532.784> 140.004 81.8994<214.094 371.361> 483.103 87.8994<218.301 372.46> 599 78<316.791 592.173>
VStem: 65 97.9004<272.786 428.723> 426.1 108.032<269.024 518.033> 439.132 54.8682<256.078 539.149>
LayerCount: 2
Fore
SplineSet
290 -10 m 0xf8
 149.706043199 -10 30 0.469645655365 30 50 c 0
 30 74.6463854905 47.6486531248 85.3564453125 69.935546875 85.3564453125 c 0
 126.159728635 85.3564453125 156.716314773 71 293.998046875 71 c 0
 439.454889303 71 475.37872958 87.478515625 533.87109375 87.478515625 c 0
 564.872517043 87.478515625 576.998046875 75.1462875259 576.998046875 51 c 0
 576.998046875 0.0422535214909 459.138431479 -10 290 -10 c 0xf8
438.001953125 599 m 0
 349.85334329 599 312.001953125 599.263605291 312.001953125 636 c 0
 312.001953125 674.474202474 348.543885055 677 442 677 c 0
 552.595412796 677 597 676.882074652 597 639 c 0
 597 599 554.665478131 599 438.001953125 599 c 0
534.131835938 441.001953125 m 0xfc
 534.131835938 261.31808878 524.219594576 140.00390625 465.131835938 140.00390625 c 0
 433.63963345 140.00390625 422 159.538651316 422 192.00390625 c 0
 422 223.528514353 439.131835938 286.41364261 439.131835938 440.00390625 c 0xfa
 439.131835938 605.977459788 417 665.774552149 417 708 c 0
 417 731.46720806 427.290324616 751.001953125 455.131835938 751.001953125 c 0
 504.664523951 751.001953125 534.131835938 626.423644542 534.131835938 441.001953125 c 0xfc
162.900390625 349.90234375 m 0
 162.900390625 272.360347045 211.523860566 221.903320312 294.700195312 221.903320312 c 0
 378.381427684 221.903320312 426.099609375 276.729750388 426.099609375 356.303710938 c 0xfc
 426.099609375 429.729922784 376.738301163 483.102539062 292.299804688 483.102539062 c 0
 209.892264942 483.102539062 162.900390625 425.452626688 162.900390625 349.90234375 c 0
65 348.001953125 m 0
 65 470.679923158 151.675219318 571.001953125 282 571.001953125 c 0
 408.233433604 571.001953125 494 472.320558099 494 346.00390625 c 0xfa
 494 225.741610054 406.525930735 140.00390625 275 140.00390625 c 0
 149.957447845 140.00390625 65 223.796585404 65 348.001953125 c 0
EndSplineSet
Validated: 5
EndChar

StartChar: uni20AD
Encoding: 8365 8365 179
Width: 767
Flags: W
HStem: -9.99805 21G<196.039 244.841> -9.99805 21G<196.039 244.841> 312.934 102<86.5485 613.08> 719 20G<196.039 244.841 636.274 671.25>
VStem: 142 132.132<76.5215 311.287 416.882 652.884> 162.501 89.499<215.613 512.447>
LayerCount: 2
Fore
SplineSet
350 312.93359375 m 0x30
 126.130859375 312.93359375 30 313.282226562 30 361.93359375 c 0
 30 411.668945312 121.07421875 414.93359375 353.998046875 414.93359375 c 0
 621.567382812 414.93359375 728.998046875 414.778320312 728.998046875 364.93359375 c 0
 728.998046875 312.93359375 628.086914062 312.93359375 350 312.93359375 c 0x30
142 365 m 0xb8
 142 603.086914062 164.078125 739 228 739 c 0
 261.682617188 739 274.131835938 718.713867188 274.131835938 685 c 0xb8
 274.131835938 644.1953125 252 562.80078125 252 364.001953125 c 0xb4
 252 165.821289062 274.131835938 84.6787109375 274.131835938 44.001953125 c 0
 274.131835938 10.2880859375 261.682617188 -9.998046875 228 -9.998046875 c 0
 164.078125 -9.998046875 142 126.7734375 142 365 c 0xb8
284.500976562 313.500976562 m 0
 181.134765625 313.500976562 162.500976562 313.850585938 162.500976562 362.500976562 c 0
 162.500976562 412.235351562 183.0546875 415.500976562 288.499023438 415.500976562 c 0
 429.623046875 415.500976562 496.580078125 505.166015625 564 632 c 0
 598.482421875 692.478515625 617.548828125 739 655 739 c 0
 687.500976562 739 701.131835938 720.967773438 701.131835938 691 c 0
 701.131835938 619.534179688 582.173828125 419.053710938 450 367.001953125 c 1
 596.452148438 322.392578125 711.131835938 108.557617188 711.131835938 34.001953125 c 0
 711.131835938 6.53125 697.41015625 -9.998046875 668 -9.998046875 c 0x74
 622.340820312 -9.998046875 612.864257812 25.9189453125 582 81 c 0
 498.606445312 239.831054688 435.974609375 313.500976562 284.500976562 313.500976562 c 0
EndSplineSet
Validated: 5
EndChar

StartChar: uni20B2
Encoding: 8370 8370 180
Width: 723
Flags: W
HStem: -10.0889 106.899<269.149 485.548> 309.501 93<441.877 577.125> 632.101 106.899<269.164 473.466>
VStem: 35 117.9<226.215 496.145> 322.5 94<106.898 591.948> 580 108.499<181.08 307.507>
LayerCount: 2
Fore
SplineSet
322.5 339 m 0
 322.5 784.03515625 332.8203125 839 367.5 839 c 0
 403.481445312 839 416.5 791.533203125 416.5 335.001953125 c 0
 416.5 -40.875 408.357421875 -109.998046875 370.5 -109.998046875 c 0
 331.5 -109.998046875 322.5 -48.5712890625 322.5 339 c 0
366 -10.0888671875 m 0
 168.909179688 -10.0888671875 35 118.654296875 35 359 c 0
 35 588.047851562 166.01171875 739 363 739 c 0
 536.41275835 739 645.522460938 637.310546875 645.522460938 571.720703125 c 4
 645.522460938 541.556640625 622.653320312 523.911132812 595.14453125 523.911132812 c 4
 537.631091308 523.911132812 532.769999096 632.100585938 366.299804688 632.100585938 c 0
 230.397460938 632.100585938 152.900390625 534.723632812 152.900390625 360.900390625 c 0
 152.900390625 181.5703125 232.5390625 96.810546875 369.299804688 96.810546875 c 0
 502.648626411 96.810546875 580 154.890426588 580 262 c 0
 580 299.981800895 574.111411066 309.500976562 540 309.500976562 c 0
 509.611377445 309.500976562 491.917631977 307.375 466 307.375 c 0
 446.327189415 307.375 432.500976562 322.441976927 432.500976562 349 c 0
 432.500976562 392.510646446 460.114307929 402.500976562 557.500976562 402.500976562 c 0
 667.655058113 402.500976562 688.499023438 360.458129837 688.499023438 267 c 0
 688.499023438 89.1134744872 564.362574385 -10.0888671875 366 -10.0888671875 c 0
EndSplineSet
Validated: 5
EndChar

StartChar: uni20B3
Encoding: 8371 8371 181
Width: 798
Flags: W
HStem: -10 21G<122.833 159.523 636.887 674.676> -10 21G<122.833 159.523 636.887 674.676> 168.501 92<252.941 547.859> 313.501 92<300.496 501.392> 718.998 20G<372.988 426.701>
VStem: 94.499 119<32.2901 163.165> 582.911 122<32.6322 164.241>
LayerCount: 2
Fore
SplineSet
395 168.500976562 m 0x3e
 76.7734375 168.500976562 15 168.814453125 15 212.500976562 c 0
 15 257.543945312 71.1650390625 260.500976562 398.998046875 260.500976562 c 0
 704.1953125 260.500976562 783.998046875 260.361328125 783.998046875 215.500976562 c 0
 783.998046875 168.500976562 710.779296875 168.500976562 395 168.500976562 c 0x3e
395 313.500976562 m 4
 112.375976562 313.500976562 55 313.814453125 55 357.500976562 c 4
 55 402.543945312 107.3984375 405.500976562 398.998046875 405.500976562 c 4
 670.408203125 405.500976562 743.998046875 405.361328125 743.998046875 360.500976562 c 4
 743.998046875 313.500976562 676.251953125 313.500976562 395 313.500976562 c 4
399.911132812 607.998046875 m 0
 375.573242188 607.998046875 288.98888453 431.463039877 213.499023438 109.458984375 c 0
 191.259591719 14.5960835563 179.827148438 -10 139.21875 -10 c 0
 106.448242188 -10 94.4990234375 18.4306640625 94.4990234375 51 c 0
 94.4990234375 132.387695312 169.193741061 393.170718632 236.94921875 537 c 0
 310.129882812 692.345703125 346.065429688 738.998046875 399.911132812 738.998046875 c 0
 453.491210938 738.998046875 489.457312033 692.110483714 562.4609375 537 c 0
 627.431640625 398.95703125 704.911132812 132.387695312 704.911132812 51 c 0
 704.911132812 18.4306640625 692.16015625 -10 657.19140625 -10 c 0xbe
 616.583007812 -10 604.314274913 15.3691992595 582.911132812 109.458984375 c 0
 510.387695312 428.27734375 423.0625 607.998046875 399.911132812 607.998046875 c 0
EndSplineSet
Validated: 5
EndChar

StartChar: franc
Encoding: 8355 8355 182
Width: 623
Flags: W
HStem: -9.99805 21G<156.039 204.841> -9.99805 21G<156.039 204.841> 136.934 92<19.8379 369.439> 326.501 102<216.04 481.928> 638 101<251.001 549.297>
VStem: 10 368.998<137.247 225.977> 102 132.132<76.5214 135.765> 132.501 79.499<246.336 456.128>
LayerCount: 2
Fore
SplineSet
180 136.93359375 m 0x3c
 61.0693359375 136.93359375 10 137.247070312 10 180.93359375 c 0
 10 225.9765625 58.91015625 228.93359375 183.998046875 228.93359375 c 0
 323.13421136 228.93359375 378.998046875 228.793945312 378.998046875 183.93359375 c 0
 378.998046875 136.93359375 326.013199998 136.93359375 180 136.93359375 c 0x3c
212 364.001953125 m 0xb9
 212 165.820967783 234.131835938 84.6788668058 234.131835938 44.001953125 c 0
 234.131835938 10.2880345395 221.682617188 -9.998046875 188 -9.998046875 c 0
 124.078339629 -9.998046875 102 126.773229598 102 365 c 0xba
 102 549.033591757 109.238425926 644.428576107 161 692 c 0
 201.332900096 729.067912281 261.563555645 739 362.500976562 739 c 0
 549.326413182 739 593.499023438 713.050442536 593.499023438 664 c 0
 593.499023438 640.250003017 578.491843991 616.71875 546.23046875 616.71875 c 0
 506.268464545 616.71875 464.980051581 638 365 638 c 0
 276.260970609 638 257.281300547 632.114664779 240 602 c 0
 222.216841664 571.010789983 212 487.019739343 212 364.001953125 c 0xb9
282.500976562 326.500976562 m 4
 148.990356445 326.500976562 132.500976562 326.850244634 132.500976562 375.500976562 c 4x39
 132.500976562 425.235669089 147.00462395 428.500976562 286.499023438 428.500976562 c 4
 446.213159997 428.500976562 491.499023438 428.34565915 491.499023438 378.500976562 c 4
 491.499023438 326.500976562 449.378730513 326.500976562 282.500976562 326.500976562 c 4
EndSplineSet
Validated: 5
EndChar

StartChar: peseta
Encoding: 8359 8359 183
Width: 800
Flags: W
HStem: -9.99805 21G<177.924 228.937> -9.99805 21G<177.924 228.937> 226.501 99.4004<254.59 489.381> 426.934 92<240.975 551.691> 633.101 105.899<264.494 478.956>
VStem: 122 110<224.416 599.481> 562.1 111.9<391.805 557.266>
LayerCount: 2
Back
SplineSet
241.998046875 380 m 4
 260.50390625 362.228515625 290.75 355.901367188 371.698242188 355.901367188 c 4
 490.650390625 355.901367188 532.09765625 409.50390625 532.09765625 487.301757812 c 4
 532.09765625 582.959960938 466.854492188 633.100585938 359.297851562 633.100585938 c 4
 286.342773438 633.100585938 269.388671875 624.172851562 249.998046875 608 c 4
 227.478515625 589.216796875 221.998046875 538.432617188 221.998046875 464.001953125 c 4
 221.998046875 435.168945312 223.708007812 397.565429688 241.998046875 380 c 4
231.366210938 269.635742188 m 5
 233.559570312 142.762695312 250.129882812 80.5546875 250.129882812 45.001953125 c 4
 250.129882812 10.6640625 236.87109375 -9.998046875 200.998046875 -9.998046875 c 4
 134.846679688 -9.998046875 111.998046875 126.7734375 111.998046875 365 c 4
 111.998046875 549.033203125 119.236328125 644.428710938 170.998046875 692 c 4
 210.260742188 728.084960938 266.583007812 739 362.998046875 739 c 4
 540.31640625 739 643.998046875 628.4765625 643.998046875 487.001953125 c 4
 643.998046875 352.436523438 554.657226562 256.500976562 384.499023438 256.500976562 c 4
 273.655273438 256.500976562 231.366210938 269.635742188 231.366210938 269.635742188 c 5
209.998046875 106.93359375 m 4
 84.0712890625 106.93359375 29.998046875 107.247070312 29.998046875 150.93359375 c 4
 29.998046875 195.9765625 81.71875 198.93359375 213.99609375 198.93359375 c 4
 345.997070312 198.93359375 398.99609375 198.793945312 398.99609375 153.93359375 c 4
 398.99609375 106.93359375 348.673828125 106.93359375 209.998046875 106.93359375 c 4
EndSplineSet
Fore
SplineSet
252 350 m 0x3e
 270.020507812 331.736328125 300.751953125 325.901367188 381.700195312 325.901367188 c 0
 515.484375 325.901367188 562.099609375 387.663085938 562.099609375 477.301757812 c 0
 562.099609375 579.521484375 489.3046875 633.100585938 369.299804688 633.100585938 c 0
 296.344726562 633.100585938 279.250976562 624.33984375 260 608 c 0
 237.48046875 588.885742188 232 528.770507812 232 444.001953125 c 0
 232 411.736328125 233.709960938 368.537109375 252 350 c 0x3e
241.368164062 239.635742188 m 1
 243.561523438 129.706054688 260.131835938 75.806640625 260.131835938 45.001953125 c 0
 260.131835938 10.6640625 246.873046875 -9.998046875 211 -9.998046875 c 0xbe
 144.848632812 -9.998046875 122 126.7734375 122 365 c 0
 122 549.033203125 129.23828125 644.428710938 181 692 c 0
 220.262695312 728.084960938 276.584960938 739 373 739 c 0
 562.938476562 739 674 624.090820312 674 477.001953125 c 0
 674 330.759765625 577.7734375 226.500976562 394.500976562 226.500976562 c 0
 283.657226562 226.500976562 241.368164062 239.635742188 241.368164062 239.635742188 c 1
390 426.93359375 m 4
 78.1474609375 426.93359375 30 427.247070312 30 470.93359375 c 4
 30 515.9765625 72.318359375 518.93359375 393.998046875 518.93359375 c 4
 724.967773438 518.93359375 770.998046875 518.793945312 770.998046875 473.93359375 c 4
 770.998046875 426.93359375 731.505859375 426.93359375 390 426.93359375 c 4
EndSplineSet
Validated: 5
EndChar

StartChar: uni20A6
Encoding: 8358 8358 184
Width: 929
Flags: W
HStem: -9.99805 141.688<627.917 706.589> -9.99805 21G<215.039 263.841> 221.934 92<37.523 204.669 725.329 892.475> 371.934 92<37.523 204.669 725.329 892.475> 596.738 142.262<222.636 311.791>
VStem: 161 110<91.9398 595.939> 161 59.998<221.934 313.794 371.934 463.794> 670.132 110<134.639 635.568> 709 71.1318<221.934 313.794 371.934 463.794>
LayerCount: 2
Fore
SplineSet
769.998046875 221.93359375 m 0x3880
 725.241290848 221.93359375 709 221.93359375 709 268.93359375 c 0
 709 313.793945312 725.329349421 313.93359375 766 313.93359375 c 0
 862.331627193 313.93359375 899.998046875 310.9765625 899.998046875 265.93359375 c 0
 899.998046875 222.247070312 860.945261102 221.93359375 769.998046875 221.93359375 c 0x3880
769.998046875 371.93359375 m 0
 725.241290848 371.93359375 709 371.93359375 709 418.93359375 c 0
 709 463.793945312 725.329349421 463.93359375 766 463.93359375 c 0
 862.331627193 463.93359375 899.998046875 460.9765625 899.998046875 415.93359375 c 0
 899.998046875 372.247070312 860.945261102 371.93359375 769.998046875 371.93359375 c 0
160 221.93359375 m 0
 69.052785773 221.93359375 30 222.247070312 30 265.93359375 c 0
 30 310.9765625 67.6664196822 313.93359375 163.998046875 313.93359375 c 0
 204.668697454 313.93359375 220.998046875 313.793945312 220.998046875 268.93359375 c 0x3a
 220.998046875 221.93359375 204.756756027 221.93359375 160 221.93359375 c 0
160 371.93359375 m 0
 69.052785773 371.93359375 30 372.247070312 30 415.93359375 c 0
 30 460.9765625 67.6664196822 463.93359375 163.998046875 463.93359375 c 0
 204.668697454 463.93359375 220.998046875 463.793945312 220.998046875 418.93359375 c 0
 220.998046875 371.93359375 204.756756027 371.93359375 160 371.93359375 c 0
646 131.690429688 m 0xbd
 669.375627937 131.690429688 670.131835938 246.333504334 670.131835938 364.001953125 c 0
 670.131835938 562.800322806 648 644.195798439 648 685 c 0
 648 718.713918586 660.44921875 739 694.131835938 739 c 0
 748.053496308 739 780.131835938 603.086914062 780.131835938 365 c 0
 780.131835938 82 745.177637298 -9.998046875 668 -9.998046875 c 0xbd
 584.192746527 -9.998046875 546.035856659 64.22538008 417.165039062 346.52734375 c 0
 318.546693819 562.558816472 307.62148759 596.73828125 293 596.73828125 c 0
 271.62962963 596.73828125 271 479.547257663 271 364.001953125 c 0
 271 165.820967783 293.131835938 84.6788668058 293.131835938 44.001953125 c 0
 293.131835938 10.2880345395 280.682617188 -9.998046875 247 -9.998046875 c 0x7d
 183.078339629 -9.998046875 161 126.773229598 161 365 c 0
 161 603.086914062 179.271729348 739 266 739 c 0
 329.536780499 739 374.197655713 702.342228738 521.298828125 386.010742188 c 0
 629.281665062 153.800687229 631.731837831 131.690429688 646 131.690429688 c 0xbd
EndSplineSet
Validated: 5
EndChar

StartChar: uni20A9
Encoding: 8361 8361 185
Width: 1114
Flags: W
HStem: -10 128<319.256 352.981 745.254 780.722> 248.501 92<46.1729 237.728 876.27 1067.83> 393.501 92<26.3237 217.753 896.245 1087.67> 719 20G<131.5 164.5 931.5 964>
VStem: 15 203.998<408.38 472.926> 35 203.998<263.38 327.926> 102 114<514.284 691.419> 875 203.998<263.38 327.926> 891 105<529.184 721.764> 895 203.998<408.38 472.926>
LayerCount: 2
Fore
SplineSet
928.998046875 485.500976562 m 0xf040
 1037.36256168 485.500976562 1098.99804688 485.1875 1098.99804688 441.500976562 c 0
 1098.99804688 396.458007812 1039.65226647 393.500976562 925 393.500976562 c 0
 901.218394886 393.500976562 895 393.640625 895 438.500976562 c 0
 895 485.500976562 901.399246769 485.500976562 928.998046875 485.500976562 c 0xf040
908.998046875 340.500976562 m 0
 1018.43505859 340.500976562 1078.99804688 340.1875 1078.99804688 296.500976562 c 0
 1078.99804688 251.458007812 1020.66504299 248.500976562 905 248.500976562 c 0
 881.399116848 248.500976562 875 248.640625 875 293.500976562 c 0xf1
 875 340.500976562 881.599563784 340.500976562 908.998046875 340.500976562 c 0
185 485.500976562 m 0
 212.598800106 485.500976562 218.998046875 485.500976562 218.998046875 438.500976562 c 0
 218.998046875 393.640625 212.779651989 393.500976562 188.998046875 393.500976562 c 0
 74.3457804081 393.500976562 15 396.458007812 15 441.500976562 c 0xf8
 15 485.1875 76.6354851974 485.500976562 185 485.500976562 c 0
205 340.500976562 m 0
 232.398483091 340.500976562 238.998046875 340.500976562 238.998046875 293.500976562 c 0
 238.998046875 248.640625 232.598930027 248.500976562 208.998046875 248.500976562 c 0
 93.3330038845 248.500976562 35 251.458007812 35 296.500976562 c 0xf4
 35 340.1875 95.5629882813 340.500976562 205 340.500976562 c 0
EndSplineSet
Refer: 14 87 S 1 0 0 1 70 0 2
EndChar

StartChar: uni20B4
Encoding: 8372 8372 186
Width: 695
Flags: W
HStem: -9.99805 100.899<243.505 463.081> 241.934 242<123.126 573.038> 638.101 100.899<234.71 443.467>
VStem: 80 107.9<139.422 242.797> 485.16 107.9<485.653 602.896>
LayerCount: 2
Fore
SplineSet
340 241.93359375 m 0
 123.125873766 241.93359375 30 242.247070312 30 285.93359375 c 0
 30 330.9765625 118.263840323 333.93359375 343.998046875 333.93359375 c 0
 573.038026452 333.93359375 664.998046875 333.793945312 664.998046875 288.93359375 c 4
 664.998046875 241.93359375 578.46432859 241.93359375 340 241.93359375 c 0
340 391.93359375 m 0
 123.125873766 391.93359375 30 392.247070312 30 435.93359375 c 0
 30 480.9765625 118.263840323 483.93359375 343.998046875 483.93359375 c 0
 573.038026452 483.93359375 664.998046875 483.793945312 664.998046875 438.93359375 c 4
 664.998046875 391.93359375 578.46432859 391.93359375 340 391.93359375 c 0
350.770507812 739 m 0
 504.135298099 739 593.060546875 646.190429688 593.060546875 541 c 0
 593.060546875 402.952619709 501.444648929 358.43532059 358.130859375 325.100585938 c 0
 249.649266651 299.867807436 187.900390625 268.689850658 187.900390625 200.1015625 c 0
 187.900390625 134.880255632 243.154067949 90.9013671875 346.969726562 90.9013671875 c 0
 483.457549025 90.9013671875 521.586146152 160.090820312 567.682617188 160.090820312 c 0
 594.094049713 160.090820312 614.060546875 139.507977214 614.060546875 112.28125 c 0
 614.060546875 57.6572265625 505.533203125 -9.998046875 346.700195312 -9.998046875 c 0
 189.923828125 -9.998046875 80 69.8115234375 80 195.001953125 c 0
 80 332.480691938 192.261190974 392.308055789 358.400390625 431 c 0
 437.761616485 449.482333669 485.16015625 475.475362073 485.16015625 544.900390625 c 0
 485.16015625 597.455998808 450.509406405 638.100585938 340.500976562 638.100585938 c 0
 231.514783951 638.100585938 195.413122507 584.389648438 156.32421875 584.389648438 c 0
 130.44111498 584.389648438 110.874023438 604.560473107 110.874023438 631.2421875 c 0
 110.874023438 679.379242799 218.379827655 739 350.770507812 739 c 0
EndSplineSet
Validated: 5
EndChar

StartChar: perthousand
Encoding: 8240 8240 187
Width: 1214
Flags: W
HStem: -10 21G<182.105 215.33 182.105 215.33> -9.99805 84.8994<605.792 732.426 925.171 1052.15> 283.101 87.8994<608.03 733.829 927.466 1053.52> 362 84<158.597 285.372> 650 89<159.858 284.403> 719 20G<688.18 726.39>
VStem: 35 90<480.228 615.657> 318 90<478.467 615.983> 482 89.9004<109.199 245.918> 767.1 124.801<119.122 237.136> 810 39<69.0804 281.475> 1087.1 91.9004<111.442 248.036>
LayerCount: 2
Fore
SplineSet
125 546 m 0x1b90
 125 486 161.626262626 446 223 446 c 0
 283.364583333 446 318 488 318 551 c 0
 318 608 281.373737374 650 220 650 c 0
 159.635416667 650 125 605 125 546 c 0x1b90
35 543 m 0
 35 651 109 739 220 739 c 0
 332 739 408 655 408 550 c 0
 408 440 334 362 223 362 c 0
 111 362 35 435 35 543 c 0
891.900390625 176.900390625 m 4x63d0
 891.900390625 115.109232169 928.349529111 74.9013671875 990.700195312 74.9013671875 c 4
 1052.09180673 74.9013671875 1087.09960938 119.121524653 1087.09960938 183.301757812 c 4
 1087.09960938 241.092906234 1050.65047089 283.100585938 988.299804688 283.100585938 c 4
 926.908193269 283.100585938 891.900390625 237.136449476 891.900390625 176.900390625 c 4x63d0
810 172 m 0x63b0
 810 281.474959805 883.893620156 371 995 371 c 0
 1104.56109332 371 1179 287.230589667 1179 180.001953125 c 0
 1179 69.0804177989 1106.70407974 -9.998046875 998 -9.998046875 c 0
 886.057143786 -9.998046875 810 63.3204490316 810 172 c 0x63b0
571.900390625 176.900390625 m 4
 571.900390625 115.109232169 608.349529111 74.9013671875 670.700195312 74.9013671875 c 4
 732.091806731 74.9013671875 767.099609375 119.121524653 767.099609375 183.301757812 c 4x63d0
 767.099609375 241.092906234 730.650470889 283.100585938 668.299804688 283.100585938 c 4
 606.908193269 283.100585938 571.900390625 237.136449476 571.900390625 176.900390625 c 4
482 172 m 0
 482 281.474959805 553.497070312 371 661 371 c 0
 772.942856214 371 849 287.230589667 849 180.001953125 c 0x63b0
 849 69.0804177989 775.106379844 -9.998046875 664 -9.998046875 c 0
 555.629788133 -9.998046875 482 63.3204490316 482 172 c 0
EndSplineSet
Refer: 130 8260 N 1 0 0 1 350 0 2
EndChar

StartChar: uni2031
Encoding: 8241 8241 188
Width: 1544
Flags: W
HStem: -10 21G<182.105 215.33 182.105 215.33> -9.99805 84.8994<605.792 732.426 933.934 1056.95 1255.17 1382.15> 283.101 87.8994<608.03 733.829 935.173 1058.18 1257.47 1383.52> 362 84<158.597 285.372> 650 89<159.858 284.403> 719 20G<688.18 726.39>
VStem: 35 90<480.228 615.657> 318 90<478.467 615.983> 482 89.9004<109.199 245.918> 767.1 132.9<119.122 238> 812 37<69.0804 282> 1093 128.9<120 237.136> 1140 41<69 281.475> 1417.1 91.9004<111.442 248.036>
LayerCount: 2
Fore
SplineSet
900 177 m 4x03d4
 900 115 936.626262626 75 998 75 c 4
 1058.36458333 75 1093 120 1093 183 c 4
 1093 241 1056.37373737 283 995 283 c 4
 934.635416667 283 900 238 900 177 c 4x03d4
812 173 m 0xa3ac
 812 282 885.2 371 995 371 c 0
 1105.80851064 371 1181 288 1181 181 c 0
 1181 69 1107.8 -10 998 -10 c 0
 887.191489362 -10 812 63 812 173 c 0xa3ac
1221.90039062 176.900390625 m 0x6394
 1221.90039062 115.109232169 1258.34952911 74.9013671875 1320.70019531 74.9013671875 c 0
 1382.09180673 74.9013671875 1417.09960938 119.121524653 1417.09960938 183.301757812 c 0
 1417.09960938 241.092906234 1380.65047089 283.100585938 1318.29980469 283.100585938 c 0
 1256.90819327 283.100585938 1221.90039062 237.136449476 1221.90039062 176.900390625 c 0x6394
1140 172 m 0x638c
 1140 281.474959805 1213.89362016 371 1325 371 c 0
 1434.56109332 371 1509 287.230589667 1509 180.001953125 c 0
 1509 69.0804177989 1436.70407974 -9.998046875 1328 -9.998046875 c 0
 1216.05714379 -9.998046875 1140 63.3204490316 1140 172 c 0x638c
125 546 m 0
 125 486 161.626262626 446 223 446 c 0
 283.364583333 446 318 488 318 551 c 0
 318 608 281.373737374 650 220 650 c 0x1b84
 159.635416667 650 125 605 125 546 c 0
35 543 m 0
 35 651 109 739 220 739 c 0
 332 739 408 655 408 550 c 0
 408 440 334 362 223 362 c 0
 111 362 35 435 35 543 c 0
571.900390625 176.900390625 m 0
 571.900390625 115.109232169 608.349529111 74.9013671875 670.700195312 74.9013671875 c 0
 732.091806731 74.9013671875 767.099609375 119.121524653 767.099609375 183.301757812 c 0
 767.099609375 241.092906234 730.650470889 283.100585938 668.299804688 283.100585938 c 0x63c4
 606.908193269 283.100585938 571.900390625 237.136449476 571.900390625 176.900390625 c 0
482 172 m 0
 482 281.474959805 553.497070312 371 661 371 c 0
 772.942856214 371 849 287.230589667 849 180.001953125 c 0x63a4
 849 69.0804177989 775.106379844 -9.998046875 664 -9.998046875 c 0
 555.629788133 -9.998046875 482 63.3204490316 482 172 c 0
EndSplineSet
Refer: 130 8260 N 1 0 0 1 350 0 2
EndChar

StartChar: uni20BD
Encoding: 8381 8381 189
Width: 679
Flags: W
HStem: -9.99805 21G<167.924 218.937> -9.99805 21G<167.924 218.937> 111.934 94<40.4165 408.949> 268.501 96.4004<225.901 467.564> 633.101 105.899<253.768 463.147>
VStem: 112 110<166.888 598.931> 532.1 111.9<421.49 571.051>
LayerCount: 2
Fore
SplineSet
222 414.001953125 m 0xbe
 222 187.961914062 250.131835938 103.403320312 250.131835938 45.001953125 c 0
 250.131835938 10.6640625 236.873046875 -9.998046875 201 -9.998046875 c 0
 134.848632812 -9.998046875 112 126.7734375 112 365 c 0
 112 549.033203125 119.238864301 644.428162537 171 692 c 0
 210.262695312 728.084960938 266.584960938 739 363 739 c 0
 540.318359375 739 644 633.301035656 644 498.001953125 c 4
 644 364.020318924 560.887695312 268.500976562 344.500976562 268.500976562 c 0
 126.734375 268.500976562 30.001953125 290.375791419 30.001953125 348 c 0
 30.001953125 374.529296875 51.6591796875 389 73.001953125 389 c 0
 129.599609375 389 205.004882812 364.901367188 341.001953125 364.901367188 c 0
 490.65234375 364.901367188 532.099609375 419.319607422 532.099609375 498.301757812 c 4
 532.099609375 586.74289172 466.856445312 633.100585938 359.299804688 633.100585938 c 0
 286.344726562 633.100585938 265.903110931 627.61247447 250 608 c 0
 229.48046875 582.694335938 222 546 222 414.001953125 c 0xbe
210 111.93359375 m 0
 84.0732421875 111.93359375 30 112.25419478 30 156.93359375 c 0
 30 202.914957682 81.720703125 205.93359375 213.998046875 205.93359375 c 0
 360.269399282 205.93359375 418.998046875 205.790842014 418.998046875 159.93359375 c 0
 418.998046875 111.93359375 363.350618746 111.93359375 210 111.93359375 c 0
EndSplineSet
Validated: 5
EndChar

StartChar: minute
Encoding: 8242 8242 193
Width: 201
Flags: W
HStem: 480.994 257.998<85.3313 110.204>
VStem: 32 137
LayerCount: 2
Fore
SplineSet
32 510.9921875 m 0
 32 532.449179978 39.9887116823 547.982654061 49.63671875 574.22265625 c 4
 90 684 85.3312850514 738.9921875 131 738.9921875 c 0
 153.626953125 738.9921875 169 721.010742188 169 697.994140625 c 0
 169 622.369075521 110.204171409 480.994140625 67 480.994140625 c 0
 46.1591796875 480.994140625 32 494.493164062 32 510.9921875 c 0
EndSplineSet
Validated: 1
EndChar

StartChar: uni203D
Encoding: 8253 8253 196
Width: 605
Flags: W
HStem: -10 121<215.19 310.81> 638 101<192.747 391.036>
VStem: 201 124<2.69263 96.8479> 205 110<219.649 314.2 415.596 539.457> 214 99.9004<209.378 311.846> 435.16 107.9<474.235 598.696>
LayerCount: 2
Fore
SplineSet
313.900390625 259 m 4xcc
 313.900390625 218 297.448020311 201 263 201 c 0
 228.896403518 201 217.506121038 225.139908096 214 269.001953125 c 0xcc
 208.206821555 341.475393447 205 403.152164914 205 456 c 0
 205 523.633585799 221.545898438 551.998046875 261 551.998046875 c 0
 298.303710938 551.998046875 315 525.552788628 315 459.998046875 c 0xd4
 315 437.539327693 314.322131433 415.579714387 314.322131433 415.579714387 c 1
 314.322131433 415.579714387 349.307775428 432.247266081 368.400390625 441 c 0
 410.282283676 460.200149489 435.16015625 491.69125279 435.16015625 534.900390625 c 0
 435.16015625 593.038280314 400.988005984 638 292.499023438 638 c 0
 156 638 141.905282541 556.71875 94.2685546875 556.71875 c 0
 59.9592769019 556.71875 44 580.25 44 604 c 0
 44 664.360371767 145.977278585 739 295.998046875 739 c 0
 452.383710301 739 543.060546875 646.190429688 543.060546875 541 c 4
 543.060546875 433.517749092 478.975249792 379.685336442 399.932617188 347.20703125 c 4
 322 315.184827003 313.900390625 297.683306006 313.900390625 259 c 4xcc
EndSplineSet
Refer: 40 46 N 1 0 0 1 166 0 2
EndChar

StartChar: uni2116
Encoding: 8470 8470 197
Width: 1277
Flags: W
HStem: -10 21G<118 164.5 118 164.5 530.5 617 530.5 617> 153.994 85<827.238 1207.1> 303.994 85.8994<939.458 1093.53> 647.093 91.8994<942.725 1091.67> 719 20G<125 207.5 590.5 637>
VStem: 52 106<117.264 596.051> 597 106<134.087 611.807> 798 91.9004<440.977 592.67> 1145.1 91.9004<442.036 596.165>
LayerCount: 2
Fore
SplineSet
1014.00195312 153.994140625 m 0xe780
 892.054129136 153.994140625 788.001953125 165.161762657 788.001953125 217.994140625 c 0
 788.001953125 242.640526116 805.65060625 253.350585938 827.9375 253.350585938 c 0
 875.630034653 253.350585938 901.549861277 238.994140625 1018 238.994140625 c 0
 1130.71173166 238.994140625 1158.54843 255.47265625 1203.87304688 255.47265625 c 0
 1234.87447017 255.47265625 1247 243.140428151 1247 218.994140625 c 0
 1247 164.694902574 1151.31621228 153.994140625 1014.00195312 153.994140625 c 0xe780
889.900390625 514.892578125 m 0
 889.900390625 439.167932926 937.416792384 389.893554688 1018.70019531 389.893554688 c 0
 1099.19691134 389.893554688 1145.09960938 443.496484609 1145.09960938 521.293945312 c 0
 1145.09960938 594.141430053 1097.58320762 647.092773438 1016.29980469 647.092773438 c 0xf780
 935.803088663 647.092773438 889.900390625 589.875894604 889.900390625 514.892578125 c 0
798 512.9921875 m 0
 798 637.320516558 885.074741097 738.9921875 1016 738.9921875 c 0
 1147.59250778 738.9921875 1237 643.380689759 1237 520.994140625 c 0
 1237 394.310127814 1149.9252589 303.994140625 1019 303.994140625 c 0
 887.407492217 303.994140625 798 388.189528583 798 512.9921875 c 0
EndSplineSet
Refer: 11 78 N 1 0 0 1 0 0 2
EndChar

StartChar: dagger
Encoding: 8224 8224 199
Width: 480
Flags: W
HStem: 410.934 100<23.8547 459.027> 741 20G<214.233 263.326>
VStem: 188.499 104<32.4219 557.579>
LayerCount: 2
Fore
SplineSet
188.499023438 299 m 0
 188.499023438 710.212890625 189.966796875 761 238.499023438 761 c 0
 288.15234375 761 292.499023438 717.112304688 292.499023438 295.001953125 c 0
 292.499023438 -125.34375 292.499023438 -189.998046875 241.499023438 -189.998046875 c 0
 189.436523438 -189.998046875 188.499023438 -123.098632812 188.499023438 299 c 0
236 410.93359375 m 4
 77.193359375 410.93359375 9 411.275568182 9 458.93359375 c 0
 9 507.730143229 73.9326171875 510.93359375 239.998046875 510.93359375 c 0
 405.534179688 510.93359375 471.998046875 510.781532118 471.998046875 461.93359375 c 0
 471.998046875 410.93359375 409.162109375 410.93359375 236 410.93359375 c 4
EndSplineSet
Validated: 5
EndChar

StartChar: daggerdbl
Encoding: 8225 8225 200
Width: 480
Flags: W
HStem: 200.934 100<23.8547 459.027> 440.934 100<23.8547 459.027> 741 20G<214.233 263.326>
VStem: 188.499 104<32.4219 557.579>
LayerCount: 2
Fore
SplineSet
236 200.93359375 m 4
 77.193359375 200.93359375 9 201.275568182 9 248.93359375 c 4
 9 297.730143229 73.9326171875 300.93359375 239.998046875 300.93359375 c 4
 405.534179688 300.93359375 471.998046875 300.781532118 471.998046875 251.93359375 c 4
 471.998046875 200.93359375 409.162109375 200.93359375 236 200.93359375 c 4
188.499023438 299 m 0
 188.499023438 710.212890625 189.966796875 761 238.499023438 761 c 0
 288.15234375 761 292.499023438 717.112304688 292.499023438 295.001953125 c 0
 292.499023438 -125.34375 292.499023438 -189.998046875 241.499023438 -189.998046875 c 0
 189.436523438 -189.998046875 188.499023438 -123.098632812 188.499023438 299 c 0
236 440.93359375 m 0
 77.193359375 440.93359375 9 441.275568182 9 488.93359375 c 0
 9 537.730143229 73.9326171875 540.93359375 239.998046875 540.93359375 c 0
 405.534179688 540.93359375 471.998046875 540.781532118 471.998046875 491.93359375 c 0
 471.998046875 440.93359375 409.162109375 440.93359375 236 440.93359375 c 0
EndSplineSet
Validated: 5
EndChar

StartChar: germandbls
Encoding: 223 223 201
Width: 662
Flags: W
HStem: -9.99805 90.8994<333.258 500.558> -9.99805 21G<97.6603 148.841> 670.002 90.998<235.357 406.981>
VStem: 50 102<127.34 570.453> 305 98.9004<341.783 399.112> 440 99<513.881 639.406> 523.16 97.9004<103.837 201.144>
LayerCount: 2
Fore
SplineSet
305 362 m 0xba
 305 462.246956053 440 468.218076903 440 581 c 0
 440 633.301806208 403.936213147 670.001953125 329.30859375 670.001953125 c 4
 206.383045297 670.001953125 152 610.589152146 152 391 c 0
 152 163.166992188 178.131835938 82.8740234375 178.131835938 38.001953125 c 0
 178.131835938 8.0341796875 165.682617188 -9.998046875 132 -9.998046875 c 0
 63.320688101 -9.998046875 50 168.655273438 50 390.001953125 c 0
 50 702.88671875 184.72260274 761 329 761 c 0
 435.468531468 761 539 709.204596849 539 580 c 0x7c
 539 516.931276868 501.522033799 465.76274975 466 434 c 0
 433.349871681 404.805223007 403.900390625 387.043161014 403.900390625 366 c 0
 403.900390625 309.22116497 621.060546875 322.857273801 621.060546875 152 c 0
 621.060546875 53.4805583098 540.400258612 -9.998046875 425.360351562 -9.998046875 c 0
 316.429928701 -9.998046875 242 26.8516496764 242 77 c 0
 242 102.117928363 259.813911083 120.090820312 283.377929688 120.090820312 c 0
 321.276283101 120.090820312 337.456229503 80.9013671875 425.090820312 80.9013671875 c 0
 489.095190734 80.9013671875 523.16015625 108.368065145 523.16015625 149.1015625 c 0
 523.16015625 266.472971541 305 224.070857532 305 362 c 0xba
EndSplineSet
EndChar

StartChar: dcroat
Encoding: 273 273 203
Width: 615
Flags: W
HStem: -9.99805 21G<490.194 536.88> -9.99805 91.8994<212.73 388.476> 433.101 97.8994<216.023 391.299> 551 92<320.261 622.402> 741 20G<472.512 520.93>
VStem: 36.3699 97.9004<162.452 348.283> 470.119 108.032<100.976 476.867> 480.151 57.8682<123.156 490.844>
LayerCount: 2
Fore
SplineSet
471.001953125 551 m 4x3c
 359.067210478 551 311.001953125 551.313476562 311.001953125 595 c 4
 311.001953125 640.04296875 357.101149302 643 475 643 c 4
 585.595412796 643 630 642.860351562 630 598 c 4
 630 551 587.665478131 551 471.001953125 551 c 4x3c
EndSplineSet
Refer: 29 100 N 1 0 0 1 0 0 2
EndChar

StartChar: Hbar
Encoding: 294 294 204
Width: 908
Flags: W
HStem: -9.99805 21G<183.538 232.34 675.79 719.592> -9.99805 21G<183.538 232.34 675.79 719.592> 275.501 102<243.466 663.715> 470.501 96<248.765 650.928> 719 20G<183.538 232.34 675.79 719.592>
VStem: 129.499 132.132<76.5215 271.799 569.074 652.884> 150 89.499<193.362 496.078> 646.499 132.132<94.2504 271.799> 668.631 90.3672<191.295 497.633>
LayerCount: 2
Fore
SplineSet
450 470.500976562 m 4x38
 76.169921875 470.500976562 30 480.216796875 30 516.500976562 c 4
 30 553.986328125 69.9326171875 566.500976562 453.998046875 566.500976562 c 4
 812.981445312 566.500976562 878.998046875 556.955078125 878.998046875 519.500976562 c 4
 878.998046875 479.923828125 820.307617188 470.500976562 450 470.500976562 c 4x38
450 275.500976562 m 4
 182.978515625 275.500976562 150 275.850585938 150 324.500976562 c 4
 150 374.235351562 178.630859375 377.500976562 453.998046875 377.500976562 c 4
 711.62109375 377.500976562 758.998046875 377.345703125 758.998046875 327.500976562 c 4x3a80
 758.998046875 275.500976562 716.724609375 275.500976562 450 275.500976562 c 4
778.630859375 365 m 0xb9
 778.630859375 126.7734375 746.552734375 -9.998046875 692.630859375 -9.998046875 c 0
 658.948242188 -9.998046875 646.499023438 10.2880859375 646.499023438 44.001953125 c 0xb9
 646.499023438 84.6787109375 668.630859375 165.821289062 668.630859375 364.001953125 c 0xb880
 668.630859375 562.80078125 646.499023438 644.1953125 646.499023438 685 c 0
 646.499023438 718.713867188 658.948242188 739 692.630859375 739 c 0
 746.552734375 739 778.630859375 603.086914062 778.630859375 365 c 0xb9
129.499023438 365 m 0xbc
 129.499023438 603.086914062 151.577148438 739 215.499023438 739 c 0
 249.181640625 739 261.630859375 718.713867188 261.630859375 685 c 0xbc
 261.630859375 644.1953125 239.499023438 562.80078125 239.499023438 364.001953125 c 0xba
 239.499023438 165.821289062 261.630859375 84.6787109375 261.630859375 44.001953125 c 0
 261.630859375 10.2880859375 249.181640625 -9.998046875 215.499023438 -9.998046875 c 0
 151.577148438 -9.998046875 129.499023438 126.7734375 129.499023438 365 c 0xbc
EndSplineSet
Validated: 5
EndChar

StartChar: hbar
Encoding: 295 295 205
Width: 575
Flags: W
HStem: -9.99805 21G<94.014 141.59 94.014 141.59 466.11 512.956 466.11 512.956> 442.101 88.8994<230.158 392.363> 551 92<-14.7408 287.4> 741 20G<110.089 158.157>
VStem: 51.9569 102.564<223.606 372.708> 99.8943 51.8682<184.832 489.402> 456.367 98<45.361 371.227>
LayerCount: 2
Fore
SplineSet
136 551 m 4xf2
 24.0652573529 551 -24 551.313476562 -24 595 c 4
 -24 640.04296875 22.0991961773 643 139.998046875 643 c 4
 250.593459671 643 294.998046875 642.860351562 294.998046875 598 c 4
 294.998046875 551 252.663525006 551 136 551 c 4xf2
EndSplineSet
Refer: 46 104 N 1 0 0 1 0 0 2
EndChar

StartChar: IJ
Encoding: 306 306 206
Width: 688
HStem: -10 104<278.398 407.338> -9.99805 21G<106.039 154.841> -9.99805 21G<106.039 154.841> 642 97<292.646 510.688> 719 20G<106.039 154.841>
VStem: 52 110<91.9398 640.256> 526 106<247.249 626.227>
LayerCount: 2
Fore
SplineSet
52 365 m 0x4e
 52 603.086914062 74.0783396291 739 138 739 c 0
 171.682617188 739 184.131835938 718.713918586 184.131835938 685 c 0
 184.131835938 644.195798439 162 562.800322806 162 364.001953125 c 0
 162 165.820967783 184.131835938 84.6788668058 184.131835938 44.001953125 c 0
 184.131835938 10.2880345395 171.682617188 -9.998046875 138 -9.998046875 c 0
 74.0783396291 -9.998046875 52 126.773229598 52 365 c 0x4e
EndSplineSet
Refer: 3 74 N 1 0 0 1 234 0 2
EndChar

StartChar: ij
Encoding: 307 307 207
Width: 440
Flags: W
HStem: -190.064 85.998<164.336 251.073> -9.99805 21G<84.0867 129.841> -9.99805 21G<84.0867 129.841> 491 20G<79.4796 125.206> 510.934 20G<305.633 355.862> 570 121<75.1897 170.81> 577.023 122.998<267.676 366.324>
VStem: 50 98<32.6558 472.565> 61 124<582.693 676.848> 253 128<591.205 684.853> 295.01 98<-56.1525 351.12>
LayerCount: 2
Fore
SplineSet
50 251 m 0xd1
 50 406.514966995 50.9592011821 511 108 511 c 0
 142.41275542 511 155.131835938 491.465254935 155.131835938 459 c 0
 155.131835938 432.432865048 148 379.437229725 148 250.001953125 c 0
 148 121.184312653 159.131835938 68.4419470175 159.131835938 42.001953125 c 0
 159.131835938 9.53669819081 146.682617188 -9.998046875 113 -9.998046875 c 0
 55.1733842523 -9.998046875 50 95.1945449946 50 251 c 0xd1
EndSplineSet
Refer: 40 46 S 1 0 0 1 26 580 2
Refer: 39 106 N 1 0 0 1 217 0 2
EndChar

StartChar: uni20BA
Encoding: 8378 8378 208
Width: 694
Flags: W
HStem: -10 101<272.125 445.514> 719 20G<186.039 234.841>
VStem: 132 110<125.44 640.256>
LayerCount: 2
Fore
SplineSet
132 365 m 0
 132 603.086914062 154.078339629 739 218 739 c 0
 251.682617188 739 264.131835938 718.713918586 264.131835938 685 c 0
 264.131835938 644.195798439 242 562.800322806 242 364.001953125 c 0
 242 237.36199708 248.508532092 149.734867839 267 119 c 0
 281.115881154 95.5378420003 298.977248703 91 331 91 c 0
 586.348631489 91 534.375069141 298.28125 616.23046875 298.28125 c 0
 640.174356402 298.28125 664.499023438 278.432266484 664.499023438 247 c 0
 664.499023438 179.126827377 595.574657257 -10 322.500976562 -10 c 0
 256.628494708 -10 218.785212458 0.0234873708811 191 28 c 0
 139.238425926 80.1179506168 132 175.338469657 132 365 c 0
70 207.93359375 m 0
 46.2138671875 207.93359375 36 221.338047293 36 239.93359375 c 0
 36 300.779386949 326.272405936 372.93359375 367.998046875 372.93359375 c 0
 395.82524858 372.93359375 406.998046875 358.353647807 406.998046875 342 c 0
 406.998046875 282.666581127 110.751611645 207.93359375 70 207.93359375 c 0
64 357.93359375 m 0
 40.2138671875 357.93359375 30 371.338047293 30 389.93359375 c 0
 30 450.779386949 320.272405936 522.93359375 361.998046875 522.93359375 c 0
 389.82524858 522.93359375 400.998046875 508.353647807 400.998046875 492 c 0
 400.998046875 432.666581127 104.751611645 357.93359375 64 357.93359375 c 0
EndSplineSet
Validated: 5
EndChar

StartChar: uni20AE
Encoding: 8366 8366 209
Width: 633
Flags: W
HStem: -10 21G<293 338.5 293 338.5> 621 118<73.6951 268.719 361.281 556.305> 641 79<170.589 458.911>
VStem: 260 110<6.89684 427.661>
LayerCount: 2
Fore
SplineSet
157.000976562 167.93359375 m 4x90
 133.21484375 167.93359375 123.000976562 181.338047293 123.000976562 199.93359375 c 4
 123.000976562 263.981797118 437.754331837 339.93359375 482.999023438 339.93359375 c 4
 510.826225142 339.93359375 521.999023438 325.353647807 521.999023438 309 c 4
 521.999023438 246.56860943 201.138498412 167.93359375 157.000976562 167.93359375 c 4x90
151.000976562 317.93359375 m 4
 127.21484375 317.93359375 117.000976562 331.338047293 117.000976562 349.93359375 c 4
 117.000976562 413.981797118 431.754331837 489.93359375 476.999023438 489.93359375 c 4
 504.826225142 489.93359375 515.999023438 475.353647807 515.999023438 459 c 4
 515.999023438 396.56860943 195.138498412 317.93359375 151.000976562 317.93359375 c 4
EndSplineSet
Refer: 21 84 N 1 0 0 1 0 0 2
EndChar

StartChar: uni20B1
Encoding: 8369 8369 210
Width: 800
Flags: W
HStem: -9.99805 21G<177.924 228.937> -9.99805 21G<177.924 228.937> 226.501 99.4004<254.59 489.381> 361.934 92<240.975 528.962> 491.934 92<240.975 528.962> 633.101 105.899<264.494 478.956>
VStem: 122 110<224.416 489.756>
LayerCount: 2
Back
SplineSet
252 350 m 0x3e
 270.020507812 331.736328125 300.751953125 325.901367188 381.700195312 325.901367188 c 0
 515.484375 325.901367188 562.099609375 387.663085938 562.099609375 477.301757812 c 0
 562.099609375 579.521484375 489.3046875 633.100585938 369.299804688 633.100585938 c 0
 296.344726562 633.100585938 279.250921635 624.339908463 260 608 c 0
 237.48046875 588.885742188 232 528.770507812 232 444.001953125 c 0
 232 411.736328125 233.709826317 368.536976547 252 350 c 0x3e
241.368164062 239.635742188 m 1
 243.561523438 129.706054688 260.131835938 75.806640625 260.131835938 45.001953125 c 0
 260.131835938 10.6640625 246.873046875 -9.998046875 211 -9.998046875 c 0xbe
 144.848632812 -9.998046875 122 132.609051227 122 381 c 4
 122 556.028520403 129.957544224 645.976587447 181 692 c 0
 220.262695312 728.084960938 276.584960938 739 373 739 c 0
 562.938476562 739 674 624.090820312 674 477.001953125 c 0
 674 330.759765625 577.7734375 226.500976562 394.500976562 226.500976562 c 0
 283.657226562 226.500976562 241.368164062 239.635742188 241.368164062 239.635742188 c 1
640.998046875 357.93359375 m 4x3880
 596.241290848 357.93359375 580 357.93359375 580 404.93359375 c 4
 580 449.793945312 596.329349421 449.93359375 637 449.93359375 c 4
 733.331627193 449.93359375 770.998046875 446.9765625 770.998046875 401.93359375 c 4
 770.998046875 358.247070312 731.945261102 357.93359375 640.998046875 357.93359375 c 4x3880
640.998046875 491.93359375 m 0
 596.241290848 491.93359375 580 491.93359375 580 538.93359375 c 0
 580 583.793945312 596.329349421 583.93359375 637 583.93359375 c 0
 733.331627193 583.93359375 770.998046875 580.9765625 770.998046875 535.93359375 c 0
 770.998046875 492.247070312 731.945261102 491.93359375 640.998046875 491.93359375 c 0
160 357.93359375 m 4
 69.052785773 357.93359375 30 358.247070312 30 401.93359375 c 4
 30 446.9765625 67.6664196822 449.93359375 163.998046875 449.93359375 c 4
 204.668697454 449.93359375 220.998046875 449.793945312 220.998046875 404.93359375 c 4x3a
 220.998046875 357.93359375 204.756756027 357.93359375 160 357.93359375 c 4
160 491.93359375 m 0
 69.052785773 491.93359375 30 492.247070312 30 535.93359375 c 0
 30 580.9765625 67.6664196822 583.93359375 163.998046875 583.93359375 c 0
 204.668697454 583.93359375 220.998046875 583.793945312 220.998046875 538.93359375 c 0
 220.998046875 491.93359375 204.756756027 491.93359375 160 491.93359375 c 0
EndSplineSet
Fore
SplineSet
390 361.93359375 m 4x3e
 78.1474609375 361.93359375 30 362.247070312 30 405.93359375 c 4
 30 450.9765625 72.318359375 453.93359375 393.998046875 453.93359375 c 4
 724.967773438 453.93359375 770.998046875 453.793945312 770.998046875 408.93359375 c 4
 770.998046875 361.93359375 731.505859375 361.93359375 390 361.93359375 c 4x3e
390 491.93359375 m 4
 78.1474609375 491.93359375 30 492.247070312 30 535.93359375 c 4
 30 580.9765625 72.318359375 583.93359375 393.998046875 583.93359375 c 4
 724.967773438 583.93359375 770.998046875 583.793945312 770.998046875 538.93359375 c 4
 770.998046875 491.93359375 731.505859375 491.93359375 390 491.93359375 c 4
252 350 m 0
 270.020507812 331.736328125 300.751953125 325.901367188 381.700195312 325.901367188 c 0
 515.484375 325.901367188 562.099609375 387.663085938 562.099609375 477.301757812 c 0
 562.099609375 579.521484375 489.3046875 633.100585938 369.299804688 633.100585938 c 0
 296.344726562 633.100585938 279.250921635 624.339908463 260 608 c 0
 237.48046875 588.885742188 232 528.770507812 232 444.001953125 c 0
 232 411.736328125 233.709826317 368.536976547 252 350 c 0
241.368164062 239.635742188 m 1
 243.561523438 129.706054688 260.131835938 75.806640625 260.131835938 45.001953125 c 0
 260.131835938 10.6640625 246.873046875 -9.998046875 211 -9.998046875 c 0xbe
 144.848632812 -9.998046875 122 126.7734375 122 365 c 0
 122 549.033203125 129.238821454 644.428123156 181 692 c 0
 220.262695312 728.084960938 276.584960938 739 373 739 c 0
 562.938476562 739 674 624.090820312 674 477.001953125 c 0
 674 330.759765625 577.7734375 226.500976562 394.500976562 226.500976562 c 0
 283.657226562 226.500976562 241.368164062 239.635742188 241.368164062 239.635742188 c 1
EndSplineSet
Validated: 5
EndChar

